<svg width="170" height="55" viewBox="0 0 170 55" fill="none" xmlns="http://www.w3.org/2000/svg">
<rect x="0.387695" width="169.125" height="55" rx="4" fill="black"/>
<path d="M42.2439 27.876C42.2574 26.8327 42.5343 25.8097 43.0489 24.9023C43.5635 23.9948 44.299 23.2324 45.1872 22.6859C44.623 21.8795 43.8787 21.2158 43.0133 20.7476C42.148 20.2794 41.1856 20.0196 40.2024 19.9888C38.1051 19.7685 36.0718 21.2449 35.0031 21.2449C33.9137 21.2449 32.2682 20.0107 30.4962 20.0472C29.3501 20.0843 28.2331 20.4178 27.2541 21.0154C26.275 21.613 25.4673 22.4542 24.9097 23.457C22.4942 27.6426 24.296 33.7939 26.6098 37.1771C27.7675 38.8338 29.1204 40.6844 30.8908 40.6188C32.6232 40.5469 33.2702 39.5132 35.3613 39.5132C37.433 39.5132 38.0401 40.6188 39.8463 40.577C41.7052 40.5468 42.8764 38.913 43.9935 37.2406C44.8253 36.0602 45.4653 34.7555 45.8899 33.375C44.8099 32.9178 43.8883 32.1526 43.24 31.1747C42.5916 30.1969 42.2452 29.0496 42.2439 27.876Z" fill="white"/>
<path d="M38.8322 17.7642C39.8457 16.5464 40.3451 14.9812 40.2241 13.4009C38.6756 13.5637 37.2453 14.3044 36.218 15.4754C35.7158 16.0475 35.3311 16.713 35.086 17.434C34.8409 18.1549 34.7402 18.9172 34.7896 19.6771C35.5641 19.6851 36.3303 19.5171 37.0306 19.1857C37.7308 18.8544 38.3468 18.3683 38.8322 17.7642Z" fill="white"/>
<path d="M64.1422 36.4247H58.2304L56.8107 40.6203H54.3066L59.9062 25.0978H62.5078L68.1074 40.6203H65.5607L64.1422 36.4247ZM58.8426 34.4887H63.5287L61.2187 27.6796H61.154L58.8426 34.4887Z" fill="white"/>
<path d="M80.2014 34.9622C80.2014 38.479 78.3206 40.7385 75.4824 40.7385C74.7634 40.7762 74.0484 40.6104 73.4192 40.2603C72.79 39.9101 72.272 39.3897 71.9246 38.7585H71.8709V44.364H69.5498V29.303H71.7965V31.1853H71.8392C72.2026 30.5572 72.7293 30.0395 73.3633 29.6872C73.9973 29.3349 74.7149 29.1612 75.4397 29.1846C78.3096 29.1846 80.2014 31.4551 80.2014 34.9622ZM77.8156 34.9622C77.8156 32.6709 76.6325 31.1646 74.8274 31.1646C73.054 31.1646 71.8611 32.7027 71.8611 34.9622C71.8611 37.2425 73.054 38.7696 74.8274 38.7696C76.6326 38.7696 77.8156 37.2742 77.8156 34.9622Z" fill="white"/>
<path d="M92.6457 34.9622C92.6457 38.479 90.7649 40.7385 87.9267 40.7385C87.2078 40.7762 86.4927 40.6104 85.8635 40.2602C85.2343 39.9101 84.7163 39.3896 84.3689 38.7585H84.3152V44.364H81.9941V29.303H84.2408V31.1853H84.2835C84.6469 30.5572 85.1736 30.0395 85.8076 29.6872C86.4416 29.3349 87.1592 29.1612 87.884 29.1846C90.754 29.1846 92.6457 31.4551 92.6457 34.9622ZM90.26 34.9622C90.26 32.6709 89.0769 31.1646 87.2717 31.1646C85.4983 31.1646 84.3055 32.7026 84.3055 34.9622C84.3055 37.2424 85.4983 38.7695 87.2717 38.7695C89.0769 38.7695 90.26 37.2742 90.26 34.9622H90.26Z" fill="white"/>
<path d="M100.872 36.295C101.044 37.8343 102.538 38.845 104.58 38.845C106.536 38.845 107.944 37.8342 107.944 36.4463C107.944 35.2415 107.095 34.52 105.085 34.0256L103.075 33.541C100.227 32.8525 98.9047 31.5195 98.9047 29.3564C98.9047 26.6782 101.237 24.8386 104.548 24.8386C107.825 24.8386 110.072 26.6782 110.148 29.3564H107.805C107.664 27.8074 106.385 26.8723 104.515 26.8723C102.645 26.8723 101.366 27.8184 101.366 29.1953C101.366 30.2927 102.183 30.9385 104.182 31.4328L105.891 31.8527C109.073 32.6059 110.395 33.8852 110.395 36.1557C110.395 39.0598 108.084 40.8786 104.408 40.8786C100.968 40.8786 98.6461 39.1025 98.4961 36.2949L100.872 36.295Z" fill="white"/>
<path d="M115.404 26.6245V29.3027H117.554V31.1423H115.404V37.3813C115.404 38.3506 115.834 38.8022 116.78 38.8022C117.035 38.7978 117.29 38.7799 117.543 38.7485V40.5771C117.118 40.6566 116.686 40.6926 116.254 40.6845C113.965 40.6845 113.072 39.8239 113.072 37.6291V31.1423H111.428V29.3027H113.072V26.6245H115.404Z" fill="white"/>
<path d="M118.8 34.9622C118.8 31.4014 120.895 29.1638 124.163 29.1638C127.441 29.1638 129.527 31.4013 129.527 34.9622C129.527 38.5327 127.452 40.7605 124.163 40.7605C120.874 40.7605 118.8 38.5327 118.8 34.9622ZM127.162 34.9622C127.162 32.5195 126.044 31.0779 124.163 31.0779C122.282 31.0779 121.165 32.5305 121.165 34.9622C121.165 37.4145 122.282 38.8452 124.163 38.8452C126.044 38.8452 127.162 37.4145 127.162 34.9622H127.162Z" fill="white"/>
<path d="M131.44 29.3029H133.654V31.2291H133.708C133.858 30.6275 134.21 30.0959 134.705 29.7235C135.2 29.3512 135.809 29.1608 136.428 29.1845C136.695 29.1835 136.962 29.2126 137.223 29.2711V31.444C136.885 31.3407 136.533 31.2933 136.18 31.3036C135.843 31.2899 135.507 31.3494 135.195 31.478C134.883 31.6066 134.602 31.8013 134.372 32.0487C134.143 32.296 133.969 32.5902 133.864 32.9111C133.758 33.2319 133.723 33.5718 133.761 33.9074V40.62H131.44L131.44 29.3029Z" fill="white"/>
<path d="M147.925 37.2961C147.613 39.3506 145.614 40.7605 143.056 40.7605C139.766 40.7605 137.725 38.5547 137.725 35.0159C137.725 31.4661 139.777 29.1638 142.958 29.1638C146.087 29.1638 148.054 31.3147 148.054 34.7461V35.542H140.068V35.6824C140.031 36.0989 140.083 36.5185 140.22 36.9133C140.358 37.3081 140.578 37.669 140.866 37.9722C141.153 38.2754 141.502 38.5139 141.889 38.6717C142.276 38.8296 142.692 38.9033 143.11 38.8879C143.658 38.9394 144.208 38.8122 144.679 38.5254C145.149 38.2386 145.515 37.8075 145.721 37.2961L147.925 37.2961ZM140.079 33.9185H145.732C145.753 33.544 145.696 33.1692 145.565 32.8177C145.434 32.4662 145.233 32.1455 144.972 31.8758C144.712 31.6061 144.398 31.3932 144.052 31.2504C143.705 31.1076 143.333 31.0381 142.958 31.0461C142.58 31.0439 142.206 31.1166 141.856 31.26C141.506 31.4034 141.188 31.6148 140.92 31.8818C140.653 32.1488 140.441 32.4663 140.296 32.8159C140.152 33.1654 140.078 33.5402 140.079 33.9185V33.9185Z" fill="white"/>
<path d="M57.1936 16.5667H58.1901C58.3616 16.5881 58.5357 16.5737 58.7014 16.5244C58.8671 16.4751 59.0208 16.392 59.1528 16.2803C59.2848 16.1686 59.3923 16.0307 59.4684 15.8754C59.5446 15.72 59.5877 15.5506 59.5952 15.3778C59.5952 14.6899 59.078 14.2456 58.2011 14.2456C58.0253 14.221 57.8464 14.2319 57.675 14.2777C57.5035 14.3234 57.343 14.4031 57.2028 14.512C57.0626 14.6209 56.9456 14.7568 56.8588 14.9117C56.772 15.0666 56.717 15.2373 56.6972 15.4138H55.6031C55.6219 15.0934 55.7065 14.7803 55.8514 14.4941C55.9964 14.2078 56.1987 13.9545 56.4457 13.7499C56.6927 13.5452 56.9792 13.3937 57.2873 13.3047C57.5953 13.2156 57.9184 13.191 58.2364 13.2324C59.7037 13.2324 60.7368 14.0545 60.7368 15.238C60.7403 15.6345 60.6077 16.0201 60.3613 16.3306C60.1149 16.6411 59.7696 16.8576 59.383 16.9439V17.0318C59.8413 17.0522 60.273 17.2533 60.5836 17.5913C60.8942 17.9293 61.0585 18.3766 61.0405 18.8354C61.0066 19.1653 60.9072 19.485 60.7482 19.776C60.5892 20.0669 60.3738 20.3231 60.1146 20.5297C59.8553 20.7362 59.5575 20.8888 59.2386 20.9787C58.9196 21.0685 58.586 21.0937 58.2572 21.0528C57.9277 21.0978 57.5925 21.0759 57.2717 20.9884C56.9508 20.901 56.6509 20.7498 56.3896 20.5438C56.1284 20.3379 55.9113 20.0814 55.7513 19.7896C55.5912 19.4979 55.4915 19.1769 55.458 18.8458H56.5691C56.6362 19.5593 57.2912 20.0195 58.2572 20.0195C59.2232 20.0195 59.8538 19.5026 59.8538 18.7738C59.8538 18.0347 59.2598 17.5794 58.2218 17.5794H57.1936V16.5667Z" fill="white"/>
<path d="M62.3027 19.2799C62.3027 18.2667 63.0577 17.6826 64.3945 17.5996L65.9179 17.5117V17.0259C65.9179 16.4314 65.5264 16.0957 64.7665 16.0957C64.1469 16.0957 63.7188 16.3234 63.5944 16.7213H62.5198C62.6333 15.7545 63.5432 15.1344 64.8189 15.1344C66.2289 15.1344 67.0241 15.8369 67.0241 17.0259V20.8717H65.9545V20.0807H65.8667C65.6884 20.3644 65.4381 20.5957 65.1413 20.751C64.8446 20.9063 64.5119 20.9799 64.1774 20.9644C63.9413 20.989 63.7027 20.9638 63.4769 20.8904C63.2512 20.8171 63.0433 20.6972 62.8666 20.5384C62.69 20.3797 62.5486 20.1857 62.4515 19.969C62.3543 19.7522 62.3037 19.5175 62.3027 19.2799ZM65.9179 18.7989V18.3284L64.5445 18.4163C63.77 18.4681 63.4187 18.7318 63.4187 19.228C63.4187 19.7346 63.8578 20.0294 64.4616 20.0294C64.6385 20.0473 64.8172 20.0295 64.9871 19.9768C65.1569 19.9242 65.3145 19.838 65.4504 19.7232C65.5862 19.6084 65.6977 19.4674 65.778 19.3086C65.8583 19.1498 65.9059 18.9765 65.9179 18.7989Z" fill="white"/>
<path d="M69.9693 16.179V20.8726H68.8594V15.2439H72.5624V16.1789L69.9693 16.179Z" fill="white"/>
<path d="M79.2891 18.055C79.2891 19.8433 78.3853 20.9646 76.9656 20.9646C76.6171 20.9884 76.269 20.912 75.9624 20.7445C75.6558 20.5771 75.4034 20.3254 75.2349 20.0191H75.147V22.7431H74.0371V15.2431H75.1056V16.1733H75.1885C75.36 15.8564 75.6157 15.593 75.9274 15.4124C76.2391 15.2318 76.5946 15.1409 76.9546 15.1498C78.3853 15.1497 79.2891 16.2661 79.2891 18.055ZM78.1475 18.055C78.1475 16.866 77.5852 16.1477 76.6448 16.1477C75.7106 16.1477 75.1263 16.8813 75.1263 18.0599C75.1263 19.233 75.7105 19.9672 76.6399 19.9672C77.5852 19.9672 78.1475 19.2488 78.1475 18.055Z" fill="white"/>
<path d="M80.7667 22.8886V21.9321C80.8868 21.9474 81.0078 21.9543 81.1289 21.9529C81.3653 21.9704 81.5999 21.8999 81.7877 21.755C81.9754 21.61 82.103 21.4007 82.1461 21.1674L82.229 20.8933L80.1934 15.2439H81.4021L82.8121 19.7147H82.8999L84.305 15.2439H85.482L83.3853 21.1051C82.9048 22.4747 82.373 22.9142 81.2265 22.9142C81.1338 22.9142 80.8703 22.9038 80.7667 22.8886Z" fill="white"/>
<path d="M86.3477 19.2734H87.4527C87.5612 19.7697 88.026 20.0284 88.676 20.0284C89.4152 20.0284 89.8689 19.7025 89.8689 19.1959C89.8689 18.6533 89.4615 18.3946 88.676 18.3946H87.8345V17.5315H88.6614C89.3322 17.5315 89.6737 17.2733 89.6737 16.8028C89.6737 16.3896 89.3432 16.074 88.6614 16.074C88.0406 16.074 87.5869 16.3377 87.5149 16.782H86.4452C86.5252 16.2715 86.8022 15.8127 87.2166 15.5044C87.6311 15.1961 88.1499 15.0629 88.6614 15.1335C89.9982 15.1335 90.7629 15.7383 90.7629 16.6893C90.7692 16.9541 90.6844 17.213 90.5228 17.4227C90.3611 17.6325 90.1325 17.7804 89.875 17.8416V17.9295C90.1815 17.9691 90.4629 18.1199 90.6657 18.3533C90.8685 18.5868 90.9786 18.8866 90.9751 19.196C90.9751 20.266 90.0653 20.9739 88.676 20.9739C87.4478 20.9739 86.4501 20.4105 86.3477 19.2734Z" fill="white"/>
<path d="M92.5742 20.8726V15.2439H93.6744V19.1154H93.7622L96.354 15.2439H97.4542V20.8726H96.354V16.9804H96.2711L93.6744 20.8726L92.5742 20.8726Z" fill="white"/>
<path d="M103.515 16.1789H101.743V20.8725H100.632V16.1789H98.8613V15.2439H103.515V16.1789Z" fill="white"/>
<path d="M109.494 19.352C109.342 19.8664 109.015 20.3113 108.57 20.6089C108.124 20.9066 107.588 21.0381 107.056 20.9804C106.685 20.9902 106.317 20.9192 105.976 20.7723C105.636 20.6254 105.332 20.4061 105.085 20.1297C104.837 19.8533 104.653 19.5263 104.545 19.1715C104.437 18.8168 104.407 18.4426 104.458 18.0752C104.408 17.7066 104.439 17.3316 104.547 16.9758C104.655 16.62 104.838 16.2915 105.084 16.0127C105.33 15.7338 105.632 15.5111 105.972 15.3596C106.311 15.2081 106.679 15.1313 107.051 15.1345C108.615 15.1345 109.561 16.2045 109.561 17.972V18.3596H105.589V18.4219C105.572 18.6285 105.598 18.8365 105.665 19.0325C105.733 19.2285 105.84 19.4082 105.982 19.5601C106.123 19.712 106.294 19.8326 106.484 19.9143C106.675 19.996 106.88 20.0369 107.087 20.0344C107.353 20.0661 107.621 20.0182 107.859 19.8967C108.097 19.7752 108.294 19.5856 108.424 19.352L109.494 19.352ZM105.589 17.5381H108.429C108.443 17.3493 108.417 17.1596 108.354 16.9813C108.29 16.8029 108.19 16.6399 108.06 16.5026C107.93 16.3653 107.772 16.2567 107.597 16.1839C107.423 16.1112 107.235 16.0757 107.046 16.0799C106.854 16.0773 106.663 16.1133 106.485 16.1856C106.307 16.258 106.146 16.3653 106.01 16.5012C105.874 16.6372 105.767 16.799 105.695 16.977C105.623 17.1551 105.587 17.3459 105.589 17.5381H105.589Z" fill="white"/>
<path d="M114.199 15.2439H116.735C117.835 15.2439 118.48 15.8018 118.48 16.6751C118.482 16.9523 118.389 17.2216 118.216 17.438C118.043 17.6545 117.801 17.8049 117.53 17.8641V17.952C117.859 17.9728 118.167 18.119 118.39 18.3605C118.614 18.602 118.737 18.9203 118.733 19.2496C118.733 20.2317 117.995 20.8725 116.761 20.8725H114.199V15.2439ZM115.299 16.0966V17.5541H116.4C117.07 17.5541 117.391 17.2959 117.391 16.8198C117.391 16.381 117.112 16.0965 116.523 16.0965L115.299 16.0966ZM115.299 18.3707V20.0199H116.615C117.272 20.0199 117.623 19.73 117.623 19.1978C117.623 18.6344 117.225 18.3707 116.476 18.3707L115.299 18.3707Z" fill="white"/>
</svg>
