<svg width="170" height="55" viewBox="0 0 170 55" fill="none" xmlns="http://www.w3.org/2000/svg">
<rect width="170" height="55" rx="4" fill="black"/>
<path d="M85.7568 29.5415C82.7346 29.5415 80.342 31.8101 80.342 34.9609C80.342 37.9857 82.7346 40.3803 85.7568 40.3803C88.779 40.3803 91.1716 38.1117 91.1716 34.9609C91.1716 31.684 88.779 29.5415 85.7568 29.5415ZM85.7568 38.1117C84.1198 38.1117 82.7346 36.7253 82.7346 34.8349C82.7346 32.9444 84.1198 31.558 85.7568 31.558C87.3938 31.558 88.779 32.8183 88.779 34.8349C88.779 36.7253 87.3938 38.1117 85.7568 38.1117ZM74.0457 29.5415C71.0235 29.5415 68.6309 31.8101 68.6309 34.9609C68.6309 37.9857 71.0235 40.3803 74.0457 40.3803C77.0679 40.3803 79.4605 38.1117 79.4605 34.9609C79.4605 31.684 77.0679 29.5415 74.0457 29.5415ZM74.0457 38.1117C72.4087 38.1117 71.0235 36.7253 71.0235 34.8349C71.0235 32.9444 72.4087 31.558 74.0457 31.558C75.6827 31.558 77.0679 32.8183 77.0679 34.8349C77.0679 36.7253 75.6827 38.1117 74.0457 38.1117ZM60.0679 31.1799V33.4485H65.4827C65.3568 34.7088 64.8531 35.7171 64.2235 36.3472C63.4679 37.1034 62.2087 37.9857 60.0679 37.9857C56.6679 37.9857 54.1494 35.339 54.1494 31.9361C54.1494 28.5332 56.7939 25.8865 60.0679 25.8865C61.8309 25.8865 63.2161 26.6427 64.2235 27.5249L65.8605 25.8865C64.4753 24.6262 62.7124 23.6179 60.1939 23.6179C55.6605 23.6179 51.7568 27.3989 51.7568 31.9361C51.7568 36.4733 55.6605 40.2543 60.1939 40.2543C62.7124 40.2543 64.4753 39.4981 65.9865 37.8596C67.4976 36.3472 68.0013 34.2047 68.0013 32.5663C68.0013 32.0621 68.0013 31.558 67.8753 31.1799H60.0679ZM117.238 32.9444C116.735 31.684 115.475 29.5415 112.705 29.5415C109.935 29.5415 107.668 31.684 107.668 34.9609C107.668 37.9857 109.935 40.3803 112.957 40.3803C115.349 40.3803 116.86 38.8679 117.364 37.9857L115.601 36.7253C114.972 37.6076 114.216 38.2377 112.957 38.2377C111.698 38.2377 110.942 37.7336 110.312 36.5993L117.49 33.5745L117.238 32.9444ZM109.935 34.7088C109.935 32.6923 111.572 31.558 112.705 31.558C113.586 31.558 114.468 32.0621 114.72 32.6923L109.935 34.7088ZM104.016 39.8762H106.409V24.1221H104.016V39.8762ZM100.238 30.6758C99.6086 30.0456 98.6012 29.4154 97.342 29.4154C94.6975 29.4154 92.179 31.8101 92.179 34.8349C92.179 37.8596 94.5716 40.1282 97.342 40.1282C98.6012 40.1282 99.6086 39.4981 100.112 38.8679H100.238V39.6241C100.238 41.6406 99.1049 42.7749 97.342 42.7749C95.9568 42.7749 94.9494 41.7667 94.6975 40.8844L92.6827 41.7667C93.3123 43.153 94.8235 44.9175 97.4679 44.9175C100.238 44.9175 102.505 43.2791 102.505 39.372V29.7935H100.238V30.6758ZM97.4679 38.1117C95.8309 38.1117 94.4457 36.7253 94.4457 34.8349C94.4457 32.9444 95.8309 31.558 97.4679 31.558C99.1049 31.558 100.364 32.9444 100.364 34.8349C100.364 36.7253 99.1049 38.1117 97.4679 38.1117ZM128.194 24.1221H122.527V39.8762H124.92V33.9526H128.194C130.838 33.9526 133.357 32.0621 133.357 29.0373C133.357 26.0125 130.838 24.1221 128.194 24.1221ZM128.32 31.684H124.92V26.2646H128.32C130.083 26.2646 131.09 27.777 131.09 28.9113C130.964 30.2977 129.957 31.684 128.32 31.684ZM142.801 29.4154C141.038 29.4154 139.275 30.1716 138.646 31.8101L140.786 32.6923C141.29 31.8101 142.046 31.558 142.927 31.558C144.186 31.558 145.32 32.3142 145.446 33.5745V33.7006C145.068 33.4485 144.06 33.0704 143.053 33.0704C140.786 33.0704 138.52 34.3307 138.52 36.5993C138.52 38.7419 140.409 40.1282 142.423 40.1282C144.06 40.1282 144.816 39.372 145.446 38.6158H145.572V39.8762H147.838V33.8266C147.586 31.0539 145.446 29.4154 142.801 29.4154ZM142.549 38.1117C141.794 38.1117 140.66 37.7336 140.66 36.7253C140.66 35.465 142.046 35.0869 143.179 35.0869C144.186 35.0869 144.69 35.339 145.32 35.5911C145.068 37.1034 143.809 38.1117 142.549 38.1117ZM155.772 29.7935L153.127 36.5993H153.001L150.231 29.7935H147.712L151.868 39.372L149.475 44.6654H151.868L158.29 29.7935H155.772ZM134.616 39.8762H137.009V24.1221H134.616V39.8762Z" fill="white"/>
<path d="M13.0975 11.5186C12.7197 11.8967 12.5938 12.5268 12.5938 13.283V41.1363C12.5938 41.8925 12.8456 42.5227 13.2234 42.9008L13.3493 43.0268L28.9641 27.3987V27.2727V27.1466L13.0975 11.5186Z" fill="url(#paint0_linear_603_38811)"/>
<path d="M33.9999 32.6919L28.8369 27.5246V27.2725V27.1465L33.9999 21.9791L34.1258 22.1052L40.2962 25.6341C42.0591 26.6423 42.0591 28.2808 40.2962 29.289L33.9999 32.6919Z" fill="url(#paint1_linear_603_38811)"/>
<path d="M34.1263 32.566L28.8374 27.2726L13.0967 43.0267C13.7263 43.6569 14.6078 43.6569 15.7411 43.1527L34.1263 32.566Z" fill="url(#paint2_linear_603_38811)"/>
<path d="M34.1263 21.9794L15.7411 11.5187C14.6078 10.8885 13.7263 11.0145 13.0967 11.6447L28.8374 27.2728L34.1263 21.9794Z" fill="url(#paint3_linear_603_38811)"/>
<path opacity="0.2" d="M34.0004 32.4401L15.7411 42.7748C14.7337 43.4049 13.8522 43.2789 13.2226 42.7748L13.0967 42.9008L13.2226 43.0268C13.8522 43.531 14.7337 43.657 15.7411 43.0268L34.0004 32.4401Z" fill="white"/>
<path opacity="0.12" d="M13.0975 42.7745C12.7197 42.3964 12.5938 41.7662 12.5938 41.01V41.136C12.5938 41.8922 12.8456 42.5224 13.2234 42.9005V42.7745H13.0975Z" fill="white"/>
<path opacity="0.12" d="M40.2953 28.911L33.999 32.4399L34.1249 32.566L40.2953 29.037C41.1768 28.5329 41.5546 27.9027 41.5546 27.2726C41.5546 27.9027 41.0509 28.4069 40.2953 28.911Z" fill="white"/>
<path opacity="0.25" d="M15.7419 11.6448L40.2974 25.6344C41.053 26.1386 41.5567 26.6427 41.5567 27.2729C41.5567 26.6427 41.1789 26.0125 40.2974 25.5084L15.7419 11.5188C13.9789 10.5105 12.5938 11.2667 12.5938 13.2832V13.4092C12.5938 11.5188 13.9789 10.6365 15.7419 11.6448Z" fill="white"/>
<path d="M53.0143 20.0879H52.1328V17.5672H52.8884C53.518 17.0631 53.8958 16.0548 53.8958 14.6684V10.8875H58.9328V17.5672H59.8143V20.0879H58.9328V18.4494H53.1402V20.0879H53.0143ZM54.7773 14.6684C54.7773 15.8027 54.5254 16.811 54.0217 17.5672H57.7995V11.7697H54.6513V14.6684H54.7773Z" fill="white" stroke="white" stroke-width="0.2" stroke-miterlimit="10"/>
<path d="M67.2444 17.4421C66.4888 18.1983 65.6073 18.5764 64.474 18.5764C63.3407 18.5764 62.4592 18.1983 61.7036 17.4421C60.9481 16.6859 60.5703 15.8036 60.5703 14.6694C60.5703 13.5351 60.9481 12.6528 61.7036 11.8966C62.4592 11.1404 63.3407 10.7623 64.474 10.7623C65.6073 10.7623 66.4888 11.1404 67.2444 11.8966C67.9999 12.6528 68.3777 13.5351 68.3777 14.6694C68.3777 15.8036 67.9999 16.6859 67.2444 17.4421ZM62.4592 16.8119C62.9629 17.316 63.7185 17.6941 64.474 17.6941C65.2296 17.6941 65.9851 17.4421 66.4888 16.8119C66.9925 16.3078 67.3703 15.5516 67.3703 14.6694C67.3703 13.7871 67.1185 13.0309 66.4888 12.5268C65.9851 12.0227 65.2296 11.6446 64.474 11.6446C63.7185 11.6446 62.9629 11.8966 62.4592 12.5268C61.9555 13.0309 61.5777 13.7871 61.5777 14.6694C61.5777 15.5516 61.8296 16.3078 62.4592 16.8119Z" fill="white" stroke="white" stroke-width="0.2" stroke-miterlimit="10"/>
<path d="M73.2885 18.5764C72.1551 18.5764 71.2737 18.1983 70.5181 17.4421C69.7625 16.6859 69.3848 15.8036 69.3848 14.6694C69.3848 13.5351 69.7625 12.6528 70.5181 11.8966C71.2737 11.1404 72.1551 10.7623 73.2885 10.7623C74.4218 10.7623 75.3033 11.1404 76.0588 12.0227L75.4292 12.6528C74.9255 12.0227 74.1699 11.6446 73.2885 11.6446C72.407 11.6446 71.7774 11.8966 71.1477 12.5268C70.5181 13.0309 70.2662 13.7871 70.2662 14.6694C70.2662 15.5516 70.5181 16.3078 71.1477 16.8119C71.6514 17.316 72.407 17.6941 73.2885 17.6941C74.1699 17.6941 74.9255 17.316 75.5551 16.5598L76.1848 17.19C75.807 17.5681 75.4292 17.9462 74.9255 18.1983C74.4218 18.4503 73.9181 18.5764 73.2885 18.5764Z" fill="white" stroke="white" stroke-width="0.2" stroke-miterlimit="10"/>
<path d="M80.2146 18.4511H79.2071V11.7714H77.0664V10.8892H82.2294V11.7714H80.0886V18.4511H80.2146Z" fill="white" stroke="white" stroke-width="0.2" stroke-miterlimit="10"/>
<path d="M88.9038 10.8892L86.0075 17.3168C85.6297 18.1991 85.0001 18.7032 84.2446 18.7032C83.9927 18.7032 83.7409 18.7032 83.489 18.5772L83.7409 17.6949C83.8668 17.821 84.1186 17.821 84.2446 17.821C84.4964 17.821 84.6223 17.821 84.7483 17.6949C84.8742 17.5689 85.0001 17.4429 85.126 17.1908L85.3779 16.5606L82.8594 11.0152H83.9927L85.8816 15.3003L87.7705 10.8892H88.9038Z" fill="white" stroke="white" stroke-width="0.2" stroke-miterlimit="10"/>
<path d="M90.0371 18.4511V10.8892H95.4519V18.4511H94.4445V11.7714H90.9186V18.4511H90.0371Z" fill="white" stroke="white" stroke-width="0.2" stroke-miterlimit="10"/>
<path d="M97.2148 18.4511V10.8892H98.2223V14.166H102V10.8892H103.007V18.4511H102V15.0482H98.2223V18.4511H97.2148Z" fill="white" stroke="white" stroke-width="0.2" stroke-miterlimit="10"/>
<path d="M110.94 17.4421C110.184 18.1983 109.303 18.5764 108.169 18.5764C107.036 18.5764 106.155 18.1983 105.399 17.4421C104.643 16.6859 104.266 15.8036 104.266 14.6694C104.266 13.5351 104.643 12.6528 105.399 11.8966C106.155 11.1404 107.036 10.7623 108.169 10.7623C109.303 10.7623 110.184 11.1404 110.94 11.8966C111.695 12.6528 112.073 13.5351 112.073 14.6694C111.947 15.8036 111.569 16.6859 110.94 17.4421ZM106.029 16.8119C106.532 17.316 107.288 17.6941 108.043 17.6941C108.799 17.6941 109.555 17.4421 110.058 16.8119C110.562 16.3078 110.94 15.5516 110.94 14.6694C110.94 13.7871 110.688 13.0309 110.058 12.5268C109.555 12.0227 108.799 11.6446 108.043 11.6446C107.288 11.6446 106.532 11.8966 106.029 12.5268C105.525 13.0309 105.147 13.7871 105.147 14.6694C105.147 15.5516 105.525 16.3078 106.029 16.8119Z" fill="white" stroke="white" stroke-width="0.2" stroke-miterlimit="10"/>
<path d="M115.978 18.4511V10.8892H118.748C119.378 10.8892 119.881 11.1412 120.259 11.5193C120.637 11.8974 120.889 12.4016 120.889 12.9057C120.889 13.2838 120.763 13.5359 120.637 13.914C120.511 14.166 120.259 14.4181 119.881 14.5441C120.259 14.6701 120.511 14.9222 120.763 15.1743C121.015 15.4263 121.14 15.8044 121.14 16.3086C121.14 16.9387 120.889 17.4429 120.511 17.821C120.007 18.1991 119.503 18.4511 118.874 18.4511H115.978ZM116.985 14.166H118.748C119.126 14.166 119.378 14.04 119.629 13.7879C119.881 13.5359 120.007 13.2838 120.007 13.0317C120.007 12.7797 119.755 12.4016 119.629 12.1495C119.378 11.8974 119.126 11.7714 118.748 11.7714H116.985V14.166ZM116.985 17.5689H119C119.378 17.5689 119.629 17.4429 119.881 17.1908C120.133 16.9387 120.259 16.6867 120.259 16.3086C120.259 16.0565 120.133 15.6784 119.881 15.4263C119.629 15.1743 119.378 15.0482 119 15.0482H117.111V17.5689H116.985Z" fill="white" stroke="white" stroke-width="0.2" stroke-miterlimit="10"/>
<defs>
<linearGradient id="paint0_linear_603_38811" x1="27.4525" y1="13.0433" x2="6.30114" y2="34.1767" gradientUnits="userSpaceOnUse">
<stop stop-color="#00A0FF"/>
<stop offset="0.00657445" stop-color="#00A1FF"/>
<stop offset="0.2601" stop-color="#00BEFF"/>
<stop offset="0.5122" stop-color="#00D2FF"/>
<stop offset="0.7604" stop-color="#00DFFF"/>
<stop offset="1" stop-color="#00E3FF"/>
</linearGradient>
<linearGradient id="paint1_linear_603_38811" x1="42.606" y1="27.2744" x2="12.1359" y2="27.2744" gradientUnits="userSpaceOnUse">
<stop stop-color="#FFE000"/>
<stop offset="0.4087" stop-color="#FFBD00"/>
<stop offset="0.7754" stop-color="#FFA500"/>
<stop offset="1" stop-color="#FF9C00"/>
</linearGradient>
<linearGradient id="paint2_linear_603_38811" x1="31.2639" y1="30.1666" x2="2.58093" y2="58.8251" gradientUnits="userSpaceOnUse">
<stop stop-color="#FF3A44"/>
<stop offset="1" stop-color="#C31162"/>
</linearGradient>
<linearGradient id="paint3_linear_603_38811" x1="9.18945" y1="2.2884" x2="21.9977" y2="15.0856" gradientUnits="userSpaceOnUse">
<stop stop-color="#32A071"/>
<stop offset="0.0685" stop-color="#2DA771"/>
<stop offset="0.4762" stop-color="#15CF74"/>
<stop offset="0.8009" stop-color="#06E775"/>
<stop offset="1" stop-color="#00F076"/>
</linearGradient>
</defs>
</svg>
