<svg width="17" height="12" viewBox="0 0 17 12" fill="none" xmlns="http://www.w3.org/2000/svg">
<g clip-path="url(#clip0_698_38550)">
<path fill-rule="evenodd" clip-rule="evenodd" d="M0 0H17V12H0V0Z" fill="#BE0027"/>
<path fill-rule="evenodd" clip-rule="evenodd" d="M5.10173 6.42788C5.3896 6.03882 5.98862 6.4185 6.47758 6.1396C5.8976 6.17476 5.58222 5.83022 5.12501 5.87944C5.59915 5.55601 6.00344 5.98491 6.53261 5.81382C5.83199 5.74819 5.86162 5.39897 5.22238 5.34976C5.78965 5.08257 6.06906 5.62632 6.62575 5.5021C5.96957 5.33569 5.8849 4.90913 5.39806 4.81772C6.10927 4.70054 6.06271 5.1646 6.7591 5.22085C6.05212 4.88569 6.23628 4.59272 5.64572 4.33726C6.30824 4.32085 6.26379 4.82944 6.9369 4.96069C6.36116 4.55757 6.43101 4.1896 5.95899 3.90132C6.51991 3.91304 6.57283 4.54819 7.14646 4.74507C6.63633 4.29741 6.76968 3.91772 6.32941 3.51694C6.88822 3.66226 6.80567 4.21069 7.38776 4.56226C6.95595 4.03257 7.12106 3.65288 6.7464 3.21929C7.28404 3.40913 7.07872 3.93179 7.63541 4.42866C7.31791 3.84507 7.51476 3.47241 7.19937 2.98257C7.69892 3.26616 7.45761 3.80054 7.91905 4.33022C7.70103 3.73257 7.91905 3.36226 7.6968 2.83257C8.12437 3.18413 7.87037 3.75366 8.21539 4.29741C8.08839 3.54741 8.38049 3.42554 8.28948 2.76929C8.61333 3.20991 8.25137 3.65054 8.50115 4.29976C8.46939 3.56147 8.825 3.39038 8.76362 2.79976C9.08324 3.32944 8.5837 3.79116 8.79325 4.35835C8.84617 3.65991 9.26104 3.4771 9.26739 2.93335C9.52139 3.43257 8.97105 3.79351 9.05995 4.45679C9.23987 3.72554 9.68226 3.63647 9.7373 3.14429C9.88758 3.72085 9.28432 3.98804 9.32031 4.63022C9.50023 3.98101 10.0527 3.90366 10.167 3.42554C10.2368 4.03491 9.69285 4.14507 9.53833 4.82007C9.82408 4.26929 10.3257 4.22476 10.5501 3.78882C10.5332 4.39351 9.91933 4.47319 9.73095 5.03804C10.0844 4.55757 10.5289 4.6396 10.8824 4.21538C10.8443 4.76147 10.2199 4.73101 9.88758 5.29585C10.2707 4.90444 10.8486 5.02163 11.1428 4.68413C11.128 5.16694 10.3617 5.12944 9.99977 5.56304C10.4443 5.29116 11.0116 5.45054 11.3375 5.19976C11.2783 5.62163 10.4697 5.52319 10.0823 5.856C10.6157 5.69194 11.0285 5.94272 11.4582 5.76226C11.2486 6.17241 10.5141 5.91226 10.1247 6.17944C10.5903 6.09272 11.0814 6.40444 11.5026 6.30366C11.365 6.65991 10.5586 6.28022 10.1268 6.50288C10.6432 6.49819 10.9798 6.86616 11.4603 6.84038C11.1999 7.16382 10.493 6.72085 10.0802 6.79585C10.584 6.91304 10.9692 7.37241 11.3502 7.39585C11.0348 7.66069 10.4506 7.05601 9.97437 7.131C10.4654 7.27632 10.8761 7.89272 11.1555 7.90679C10.8528 8.13647 10.2559 7.37944 9.84737 7.40757C10.3448 7.656 10.5713 8.28647 10.8994 8.37554C10.4951 8.5185 10.0971 7.69116 9.66321 7.66069C10.167 8.01225 10.1945 8.55132 10.5819 8.79038C10.1733 8.90054 9.88335 7.96538 9.45366 7.88569C9.86642 8.22085 9.92992 8.94038 10.203 9.16538C9.7881 9.18882 9.63781 8.21147 9.21236 8.07085C9.57643 8.40835 9.48964 9.1396 9.77328 9.45366C9.34148 9.35288 9.39651 8.5021 8.94565 8.21382C9.26951 8.6685 9.1044 9.31304 9.31607 9.67632C8.89485 9.48882 9.07689 8.72475 8.67683 8.2935C8.89485 8.77632 8.6599 9.33882 8.83347 9.80522C8.44823 9.59663 8.70646 8.69429 8.41224 8.33569C8.54771 8.8935 8.29794 9.35522 8.39954 9.85444C8.00584 9.35054 8.45881 8.84194 8.11802 8.32866C8.20692 8.91694 7.83438 9.32944 7.89365 9.82163C7.5825 9.4185 8.06299 8.77397 7.81957 8.26538C7.87037 8.84429 7.38988 9.35288 7.42374 9.7185C7.16974 9.24975 7.70527 8.69663 7.56133 8.1646C7.5317 8.71772 7.04486 9.01772 6.95384 9.52163C6.79085 8.96616 7.36871 8.56538 7.31791 8.01929C7.15281 8.53725 6.6829 8.74585 6.5178 9.24975C6.38233 8.69429 7.06814 8.40132 7.08507 7.82007C6.8734 8.36382 6.31248 8.48569 6.12621 8.90288C6.05636 8.3521 6.84165 8.106 6.87129 7.58335C6.61728 8.08491 6.00344 8.106 5.79177 8.50444C5.76002 7.95601 6.58765 7.88804 6.71677 7.31382C6.46488 7.74038 5.79177 7.68647 5.51025 8.03335C5.5547 7.52476 6.45006 7.49429 6.594 7.03491C6.25956 7.39116 5.64148 7.24585 5.29223 7.5271C5.48697 7.02554 6.32729 7.13101 6.51568 6.77007C6.14526 6.98335 5.48697 6.77476 5.16099 6.99038C5.45733 6.51694 6.10927 6.80054 6.4797 6.47476C5.87855 6.57085 5.5166 6.30601 5.09961 6.42788H5.10173Z" fill="#FFFF00"/>
<path fill-rule="evenodd" clip-rule="evenodd" d="M10.4038 6.31084C10.4038 6.92778 10.1825 7.51945 9.78848 7.95569C9.3945 8.39194 8.86015 8.63701 8.30297 8.63701C7.7458 8.63701 7.21145 8.39194 6.81747 7.95569C6.42348 7.51945 6.20215 6.92778 6.20215 6.31084C6.20215 5.69421 6.42337 5.10284 6.81716 4.66682C7.21094 4.23079 7.74502 3.98584 8.30192 3.98584C8.85881 3.98584 9.39289 4.23079 9.78668 4.66682C10.1805 5.10284 10.4017 5.69421 10.4017 6.31084H10.4038Z" fill="#FFFF00"/>
<path fill-rule="evenodd" clip-rule="evenodd" d="M10.1329 6.31538C10.1329 6.85182 9.94045 7.36629 9.59788 7.74561C9.25531 8.12494 8.79067 8.33804 8.3062 8.33804C7.82173 8.33804 7.3571 8.12494 7.01452 7.74561C6.67195 7.36629 6.47949 6.85182 6.47949 6.31538C6.47949 5.77894 6.67195 5.26447 7.01452 4.88515C7.3571 4.50583 7.82173 4.29272 8.3062 4.29272C8.79067 4.29272 9.25531 4.50583 9.59788 4.88515C9.94045 5.26447 10.1329 5.77894 10.1329 6.31538Z" fill="#BE0027"/>
<path fill-rule="evenodd" clip-rule="evenodd" d="M9.87815 6.32022C9.87815 6.78082 9.7129 7.22256 9.41876 7.54826C9.12461 7.87396 8.72567 8.05694 8.30968 8.05694C7.8937 8.05694 7.49475 7.87396 7.20061 7.54826C6.90646 7.22256 6.74121 6.78082 6.74121 6.32022C6.74121 5.85961 6.90646 5.41787 7.20061 5.09217C7.49475 4.76647 7.8937 4.5835 8.30968 4.5835C8.72567 4.5835 9.12461 4.76647 9.41876 5.09217C9.7129 5.41787 9.87815 5.85961 9.87815 6.32022Z" fill="#FFFF00"/>
<path fill-rule="evenodd" clip-rule="evenodd" d="M6.97403 5.1835C7.40796 5.17178 7.94772 5.21631 8.30544 5.53037C8.6876 5.26628 9.13754 5.14852 9.58604 5.19521L9.81888 5.66631C9.45708 5.62976 9.09283 5.6959 8.76053 5.8585C8.99803 6.05245 9.18897 6.3079 9.31665 6.60249C9.44433 6.89709 9.50485 7.22185 9.49291 7.54834C9.43576 7.62803 9.34474 7.71475 9.28759 7.79443C9.37226 7.12646 9.05475 6.38115 8.59119 5.98975C8.96797 6.58975 9.19022 7.12881 9.12884 7.87412L8.91717 8.02412C9.01453 7.36787 8.87483 6.59443 8.43667 6.14912C8.69068 6.55928 8.94045 7.29756 8.78381 8.04756C8.71608 8.071 8.61024 8.13428 8.54251 8.15537C8.62549 7.84766 8.64802 7.52385 8.60859 7.2057C8.56916 6.88754 8.46868 6.58242 8.31391 6.31084C8.0218 6.7749 7.92655 7.48272 8.09165 8.13897C8.01122 8.11553 7.94983 8.0874 7.86728 8.06631C7.74663 7.36318 7.91385 6.56631 8.20384 6.15147C7.9075 6.34131 7.63021 7.15225 7.70853 7.97959L7.51168 7.87881C7.41642 7.2624 7.66831 6.4585 8.03027 5.99443C7.61963 6.28037 7.28519 6.98584 7.34234 7.74287C7.27884 7.68193 7.22169 7.65147 7.15819 7.58818C7.08622 6.92725 7.43336 6.26162 7.83765 5.86318C7.49686 5.69209 7.20264 5.65928 6.7793 5.66631C6.84491 5.51397 6.9063 5.33584 6.97403 5.18115V5.1835Z" fill="#BE0027"/>
</g>
<defs>
<clipPath id="clip0_698_38550">
<rect width="17" height="12" rx="2" fill="white"/>
</clipPath>
</defs>
</svg>
