<svg width="17" height="12" viewBox="0 0 17 12" fill="none" xmlns="http://www.w3.org/2000/svg">
<path d="M0 10.6283C0 11.3858 0.569998 12 1.27317 12H15.7268C16.43 12 17 11.3859 17 10.6283V8H0V10.6283Z" fill="#73AF00"/>
<path d="M15.7268 0H1.27317C0.569998 0 0 0.614112 0 1.37171V3.99997H17V1.37171C17 0.614112 16.43 0 15.7268 0Z" fill="#FF4B55"/>
<path d="M17 4H0V7.99976H17V4Z" fill="#F5F5F5"/>
<path d="M7.53938 7.12771C7.66123 7.06157 7.73252 6.95253 7.77067 6.87383C7.98898 7.02751 8.17604 6.97532 8.27353 6.92617C8.36865 6.87816 8.44698 6.79986 8.49924 6.72005C8.55154 6.79986 8.62986 6.87816 8.72495 6.92617C8.82241 6.97532 9.00947 7.0274 9.22781 6.87383C9.26593 6.95253 9.33722 7.06153 9.4591 7.12771C9.52936 7.16584 9.60679 7.18498 9.69083 7.18498C9.77715 7.18498 9.87039 7.16484 9.97 7.12463L9.92162 6.98562C9.76321 7.04962 9.6288 7.05309 9.52236 6.99585C9.37334 6.91583 9.3236 6.73936 9.3232 6.7379L9.29415 6.62833L9.2129 6.70123C9.06953 6.82987 8.92108 6.86142 8.78339 6.79174C8.64357 6.72119 8.5681 6.57842 8.5681 6.5356V5.89502C8.59792 5.82437 8.6637 5.7749 8.74029 5.7749C8.76662 5.7749 8.79265 5.78105 8.81762 5.79318L8.90289 5.83464L8.89001 5.73476C8.86298 5.52492 8.69494 5.3667 8.49921 5.3667C8.30344 5.3667 8.13544 5.52492 8.10841 5.73476L8.09553 5.83464L8.18079 5.79318C8.20573 5.78105 8.23179 5.7749 8.25812 5.7749C8.33472 5.7749 8.40053 5.82437 8.43031 5.89502V6.5356C8.43031 6.57842 8.35488 6.72119 8.21502 6.79174C8.0774 6.86138 7.92888 6.82994 7.78551 6.70123L7.70486 6.62926L7.67521 6.73761C7.67475 6.73936 7.62498 6.91583 7.47596 6.99585C7.36941 7.05313 7.23507 7.04969 7.0767 6.98562L7.02832 7.12463C7.1279 7.16484 7.2212 7.18498 7.30749 7.18498C7.39166 7.18495 7.46909 7.16584 7.53938 7.12771ZM8.25812 5.66354C8.24989 5.66354 8.24169 5.6639 8.23349 5.66468C8.2796 5.55393 8.38273 5.47799 8.49921 5.47799C8.61565 5.47799 8.71881 5.55393 8.76493 5.66468C8.65782 5.65452 8.55648 5.7109 8.49921 5.80023C8.44635 5.71766 8.358 5.66354 8.25812 5.66354Z" fill="#FFCD5A"/>
<path d="M7.30566 7.60052L7.34933 7.74172C7.64221 7.63608 8.06112 7.57547 8.49854 7.57547C8.93595 7.57547 9.35486 7.63608 9.64775 7.74172L9.69141 7.60052C9.38501 7.48992 8.95019 7.42651 8.49854 7.42651C8.04688 7.42655 7.61206 7.48992 7.30566 7.60052Z" fill="#FFCD5A"/>
<path d="M8.50017 7.27872C8.57198 7.27898 8.63522 7.23283 8.67808 7.17071C8.64959 7.15169 8.61155 7.14057 8.56846 7.13479C8.56849 7.13311 8.56902 7.13156 8.56902 7.12984C8.56902 7.066 8.54114 7.01088 8.50017 6.98096C8.45917 7.01088 8.43132 7.066 8.43132 7.12984C8.43132 7.13153 8.43182 7.13307 8.43188 7.13479C8.38883 7.14057 8.35078 7.15166 8.32227 7.17071C8.36506 7.23283 8.42833 7.2789 8.50017 7.27872Z" fill="#FFCD5A"/>
<path d="M7.86813 7.34861C7.9385 7.33333 7.99198 7.27444 8.02246 7.20433C7.99102 7.19184 7.95168 7.18919 7.90846 7.19285C7.90816 7.1912 7.90839 7.18954 7.90806 7.18786C7.89628 7.12535 7.85876 7.07734 7.81305 7.05688C7.77843 7.0951 7.7613 7.15513 7.77312 7.21764C7.77345 7.21933 7.77421 7.22073 7.77455 7.22238C7.73345 7.23734 7.69819 7.25643 7.67383 7.28126C7.72731 7.33286 7.79778 7.36437 7.86813 7.34861Z" fill="#FFCD5A"/>
<path d="M9.18698 7.05688C9.14126 7.07734 9.10374 7.12535 9.09195 7.18786C9.09162 7.18955 9.09185 7.19116 9.09155 7.19285C9.04833 7.18919 9.00898 7.19184 8.97754 7.20433C9.00802 7.27448 9.06151 7.33333 9.13189 7.34861C9.20225 7.36437 9.27274 7.33286 9.32626 7.28123C9.30185 7.25643 9.26663 7.23731 9.22552 7.22234C9.22589 7.22069 9.22665 7.21929 9.22695 7.21761C9.23874 7.15513 9.22157 7.0951 9.18698 7.05688Z" fill="#FFCD5A"/>
<path d="M8.4813 4.32367L8.43488 4.47381L8.2882 4.47503C8.26921 4.47517 8.26134 4.50132 8.27662 4.5135L8.3946 4.60751L8.35037 4.7584C8.34466 4.77792 8.36525 4.79408 8.38072 4.78218L8.50007 4.69015L8.61941 4.78218C8.63489 4.79408 8.65548 4.77796 8.64976 4.7584L8.6055 4.60751L8.72348 4.5135C8.73876 4.50132 8.73089 4.47521 8.71189 4.47503L8.56522 4.47381L8.5188 4.32367C8.51278 4.30422 8.48731 4.30422 8.4813 4.32367Z" fill="#FFCD5A"/>
<path d="M7.64044 4.57172L7.59403 4.72186L7.44738 4.72308C7.42839 4.72322 7.42052 4.74937 7.43579 4.76155L7.55376 4.85555L7.5095 5.00644C7.50379 5.02597 7.52437 5.04213 7.53984 5.03023L7.65917 4.9382L7.77849 5.03023C7.79396 5.04213 7.81455 5.026 7.80884 5.00644L7.76458 4.85555L7.88254 4.76155C7.89781 4.74937 7.88995 4.72325 7.87096 4.72308L7.72431 4.72186L7.67789 4.57172C7.67192 4.55227 7.64645 4.55227 7.64044 4.57172Z" fill="#FFCD5A"/>
<path d="M7.02425 5.23917L6.97783 5.38931L6.83117 5.39053C6.81218 5.39067 6.80431 5.41683 6.81958 5.42901L6.93756 5.52301L6.89333 5.6739C6.88762 5.69343 6.9082 5.70959 6.92368 5.69769L7.04301 5.60566L7.16234 5.69769C7.17782 5.70959 7.1984 5.69346 7.19269 5.6739L7.14847 5.52301L7.26644 5.42901C7.28171 5.41683 7.27384 5.39071 7.25485 5.39053L7.10819 5.38931L7.06177 5.23917C7.05573 5.21976 7.03026 5.21976 7.02425 5.23917Z" fill="#FFCD5A"/>
<path d="M6.79767 6.14227L6.75125 6.29241L6.60461 6.29363C6.58562 6.29378 6.57775 6.31993 6.59302 6.33211L6.71098 6.42611L6.66673 6.577C6.66101 6.59653 6.6816 6.61268 6.69707 6.60079L6.81639 6.50876L6.93572 6.60079C6.95119 6.61268 6.97177 6.59656 6.96606 6.577L6.92181 6.42611L7.03977 6.33211C7.05504 6.31993 7.04717 6.29381 7.02818 6.29363L6.88153 6.29241L6.83512 6.14227C6.82914 6.12282 6.80368 6.12282 6.79767 6.14227Z" fill="#FFCD5A"/>
<path d="M9.35862 4.57172L9.40505 4.72186L9.55173 4.72308C9.57073 4.72322 9.5786 4.74937 9.56332 4.76155L9.44533 4.85555L9.4896 5.00644C9.49531 5.02597 9.47472 5.04213 9.45924 5.03023L9.33989 4.9382L9.22054 5.03023C9.20506 5.04213 9.18447 5.026 9.19018 5.00644L9.23445 4.85555L9.11646 4.76155C9.10118 4.74937 9.10905 4.72325 9.12805 4.72308L9.27473 4.72186L9.32116 4.57172C9.32714 4.55227 9.35261 4.55227 9.35862 4.57172Z" fill="#FFCD5A"/>
<path d="M9.97679 5.23917L10.0232 5.38931L10.1699 5.39053C10.1889 5.39067 10.1968 5.41683 10.1815 5.42901L10.0635 5.52301L10.1078 5.6739C10.1135 5.69343 10.0929 5.70959 10.0774 5.69769L9.95806 5.60566L9.8387 5.69769C9.82323 5.70959 9.80264 5.69346 9.80835 5.6739L9.85262 5.52301L9.73462 5.42901C9.71935 5.41683 9.72722 5.39071 9.74621 5.39053L9.8929 5.38931L9.93933 5.23917C9.94531 5.21976 9.97078 5.21976 9.97679 5.23917Z" fill="#FFCD5A"/>
<path d="M10.2014 6.14227L10.2478 6.29241L10.3945 6.29363C10.4135 6.29378 10.4214 6.31993 10.4061 6.33211L10.2881 6.42611L10.3323 6.577C10.338 6.59653 10.3175 6.61268 10.302 6.60079L10.1827 6.50876L10.0633 6.60079C10.0479 6.61268 10.0273 6.59656 10.033 6.577L10.0772 6.42611L9.95923 6.33211C9.94396 6.31993 9.95183 6.29381 9.97082 6.29363L10.1175 6.29241L10.1639 6.14227C10.1699 6.12282 10.1954 6.12282 10.2014 6.14227Z" fill="#FFCD5A"/>
</svg>
