<svg width="17" height="12" viewBox="0 0 17 12" fill="none" xmlns="http://www.w3.org/2000/svg">
<path d="M15.7268 0H1.27317C0.569998 0 0 0.61412 0 1.37173V3.64473H17V1.37173C17 0.61412 16.43 0 15.7268 0Z" fill="#82AFFF"/>
<path d="M0 10.6282C0 11.3858 0.569998 12 1.27317 12H15.7268C16.43 12 17 11.3858 17 10.6282V8.35522H0V10.6282Z" fill="#73AF00"/>
<path d="M17 4.14355H0V7.85647H17V4.14355Z" fill="#F5F5F5"/>
<path d="M0 4.00038V4.14403H17V4.00038V3.64453H0V4.00038Z" fill="#FF4B55"/>
<path d="M0 7.99965V8.35499H17V7.99965V7.8562H0V7.99965Z" fill="#FF4B55"/>
<path d="M3.76898 2.99733C3.16893 2.99733 2.68253 2.47453 2.68253 1.83036C2.68253 1.18383 3.16889 0.658679 3.76898 0.658679C3.7713 0.658679 3.77356 0.658679 3.77582 0.658715C3.81114 0.659216 3.82353 0.608668 3.79238 0.590674C3.60761 0.483962 3.39673 0.423577 3.17255 0.42533C2.45456 0.430839 1.87134 1.07186 1.87898 1.84542C1.88648 2.61101 2.46741 3.23071 3.18194 3.23071C3.40304 3.23071 3.61096 3.17043 3.79345 3.06519C3.82449 3.04727 3.81194 2.99672 3.77675 2.99725C3.77409 2.99733 3.77153 2.99733 3.76898 2.99733Z" fill="#F5F5F5"/>
<path d="M4.61988 2.67441L4.57137 2.8314L4.41801 2.83265C4.39815 2.8328 4.38992 2.86017 4.40589 2.87288L4.52927 2.97119L4.48298 3.12896C4.47701 3.14938 4.49855 3.16629 4.51472 3.15382L4.6395 3.0576L4.76427 3.15382C4.78044 3.16629 4.80196 3.14938 4.79601 3.12896L4.74973 2.97119L4.87308 2.87288C4.88905 2.86017 4.88081 2.8328 4.86096 2.83265L4.7076 2.8314L4.65909 2.67441C4.65281 2.6541 4.62618 2.6541 4.61988 2.67441Z" fill="#F5F5F5"/>
<path d="M5.69894 2.67441L5.65044 2.8314L5.4971 2.83265C5.47725 2.8328 5.46902 2.86017 5.48499 2.87288L5.60831 2.97119L5.56204 3.12896C5.55606 3.14938 5.57761 3.16629 5.59377 3.15382L5.71853 3.0576L5.84328 3.15382C5.85945 3.16629 5.88096 3.14938 5.87502 3.12896L5.82874 2.97119L5.95207 2.87288C5.96804 2.86017 5.95981 2.8328 5.93995 2.83265L5.78662 2.8314L5.73811 2.67441C5.73184 2.6541 5.70518 2.6541 5.69894 2.67441Z" fill="#F5F5F5"/>
<path d="M6.78101 2.67441L6.7325 2.8314L6.57914 2.83265C6.55928 2.8328 6.55105 2.86017 6.56702 2.87288L6.6904 2.97119L6.64411 3.12896C6.63814 3.14938 6.65969 3.16629 6.67586 3.15382L6.80063 3.0576L6.9254 3.15382C6.94157 3.16629 6.96309 3.14938 6.95714 3.12896L6.91086 2.97119L7.0342 2.87288C7.05017 2.86017 7.04194 2.8328 7.02209 2.83265L6.86873 2.8314L6.82022 2.67441C6.81394 2.6541 6.78728 2.6541 6.78101 2.67441Z" fill="#F5F5F5"/>
<path d="M7.8611 2.67441L7.81259 2.8314L7.65922 2.83265C7.63936 2.8328 7.63113 2.86017 7.6471 2.87288L7.77045 2.97119L7.72417 3.12896C7.71819 3.14938 7.73974 3.16629 7.75591 3.15382L7.88069 3.0576L8.00548 3.15382C8.02165 3.16629 8.04316 3.14938 8.03722 3.12896L7.99093 2.97119L8.11429 2.87288C8.13026 2.86017 8.12203 2.8328 8.10217 2.83265L7.9488 2.8314L7.90028 2.67441C7.89404 2.6541 7.86738 2.6541 7.8611 2.67441Z" fill="#F5F5F5"/>
<path d="M8.94119 2.67441L8.89268 2.8314L8.7393 2.83265C8.71944 2.8328 8.7112 2.86017 8.72718 2.87288L8.85057 2.97119L8.80428 3.12896C8.79831 3.14938 8.81986 3.16629 8.83603 3.15382L8.96082 3.0576L9.08561 3.15382C9.10178 3.16629 9.1233 3.14938 9.11736 3.12896L9.07107 2.97119L9.19446 2.87288C9.21044 2.86017 9.2022 2.8328 9.18234 2.83265L9.02896 2.8314L8.98044 2.67441C8.9741 2.6541 8.94747 2.6541 8.94119 2.67441Z" fill="#F5F5F5"/>
<path d="M5.69894 1.58802L5.65044 1.74478L5.4971 1.74604C5.47725 1.74618 5.46902 1.77351 5.48499 1.78621L5.60831 1.88437L5.56204 2.04192C5.55606 2.06232 5.57761 2.0792 5.59377 2.06675L5.71853 1.97066L5.84328 2.06675C5.85945 2.0792 5.88096 2.06232 5.87502 2.04192L5.82874 1.88437L5.95207 1.78621C5.96804 1.77351 5.95981 1.74618 5.93995 1.74604L5.78662 1.74478L5.73811 1.58802C5.73184 1.56767 5.70518 1.56767 5.69894 1.58802Z" fill="#F5F5F5"/>
<path d="M6.78101 1.58802L6.7325 1.74478L6.57914 1.74604C6.55928 1.74618 6.55105 1.77351 6.56702 1.78621L6.6904 1.88437L6.64411 2.04192C6.63814 2.06232 6.65969 2.0792 6.67586 2.06675L6.80063 1.97066L6.9254 2.06675C6.94157 2.0792 6.96309 2.06232 6.95714 2.04192L6.91086 1.88437L7.0342 1.78621C7.05017 1.77351 7.04194 1.74618 7.02209 1.74604L6.86873 1.74478L6.82022 1.58802C6.81394 1.56767 6.78728 1.56767 6.78101 1.58802Z" fill="#F5F5F5"/>
<path d="M7.8611 1.58802L7.81259 1.74478L7.65922 1.74604C7.63936 1.74618 7.63113 1.77351 7.6471 1.78621L7.77045 1.88437L7.72417 2.04192C7.71819 2.06232 7.73974 2.0792 7.75591 2.06675L7.88069 1.97066L8.00548 2.06675C8.02165 2.0792 8.04316 2.06232 8.03722 2.04192L7.99093 1.88437L8.11429 1.78621C8.13026 1.77351 8.12203 1.74618 8.10217 1.74604L7.9488 1.74478L7.90028 1.58802C7.89404 1.56767 7.86738 1.56767 7.8611 1.58802Z" fill="#F5F5F5"/>
<path d="M8.94119 1.58802L8.89268 1.74478L8.7393 1.74604C8.71944 1.74618 8.7112 1.77351 8.72718 1.78621L8.85057 1.88437L8.80428 2.04192C8.79831 2.06232 8.81986 2.0792 8.83603 2.06675L8.96082 1.97066L9.08561 2.06675C9.10178 2.0792 9.1233 2.06232 9.11736 2.04192L9.07107 1.88437L9.19446 1.78621C9.21044 1.77351 9.2022 1.74618 9.18234 1.74604L9.02896 1.74478L8.98044 1.58802C8.9741 1.56767 8.94747 1.56767 8.94119 1.58802Z" fill="#F5F5F5"/>
<path d="M6.78101 2.67441L6.7325 2.8314L6.57914 2.83265C6.55928 2.8328 6.55105 2.86017 6.56702 2.87288L6.6904 2.97119L6.64411 3.12896C6.63814 3.14938 6.65969 3.16629 6.67586 3.15382L6.80063 3.0576L6.9254 3.15382C6.94157 3.16629 6.96309 3.14938 6.95714 3.12896L6.91086 2.97119L7.0342 2.87288C7.05017 2.86017 7.04194 2.8328 7.02209 2.83265L6.86873 2.8314L6.82022 2.67441C6.81394 2.6541 6.78728 2.6541 6.78101 2.67441Z" fill="#F5F5F5"/>
<path d="M6.78101 0.503027L6.7325 0.660012L6.57914 0.661266C6.55928 0.661409 6.55105 0.688779 6.56702 0.701497L6.6904 0.7998L6.64411 0.957572C6.63814 0.977993 6.65969 0.994902 6.67586 0.982435L6.80063 0.886209L6.9254 0.982435C6.94157 0.994902 6.96309 0.977993 6.95714 0.957572L6.91086 0.7998L7.0342 0.701497C7.05017 0.688779 7.04194 0.661409 7.02209 0.661266L6.86873 0.660012L6.82022 0.503027C6.81394 0.482715 6.78728 0.482715 6.78101 0.503027Z" fill="#F5F5F5"/>
<path d="M7.8611 2.67441L7.81259 2.8314L7.65922 2.83265C7.63936 2.8328 7.63113 2.86017 7.6471 2.87288L7.77045 2.97119L7.72417 3.12896C7.71819 3.14938 7.73974 3.16629 7.75591 3.15382L7.88069 3.0576L8.00548 3.15382C8.02165 3.16629 8.04316 3.14938 8.03722 3.12896L7.99093 2.97119L8.11429 2.87288C8.13026 2.86017 8.12203 2.8328 8.10217 2.83265L7.9488 2.8314L7.90028 2.67441C7.89404 2.6541 7.86738 2.6541 7.8611 2.67441Z" fill="#F5F5F5"/>
<path d="M8.94119 2.67441L8.89268 2.8314L8.7393 2.83265C8.71944 2.8328 8.7112 2.86017 8.72718 2.87288L8.85057 2.97119L8.80428 3.12896C8.79831 3.14938 8.81986 3.16629 8.83603 3.15382L8.96082 3.0576L9.08561 3.15382C9.10178 3.16629 9.1233 3.14938 9.11736 3.12896L9.07107 2.97119L9.19446 2.87288C9.21044 2.86017 9.2022 2.8328 9.18234 2.83265L9.02896 2.8314L8.98044 2.67441C8.9741 2.6541 8.94747 2.6541 8.94119 2.67441Z" fill="#F5F5F5"/>
<path d="M7.8611 0.503027L7.81259 0.660012L7.65922 0.661266C7.63936 0.661409 7.63113 0.688779 7.6471 0.701497L7.77045 0.7998L7.72417 0.957572C7.71819 0.977993 7.73974 0.994902 7.75591 0.982435L7.88069 0.886209L8.00548 0.982435C8.02165 0.994902 8.04316 0.977993 8.03722 0.957572L7.99093 0.7998L8.11429 0.701497C8.13026 0.688779 8.12203 0.661409 8.10217 0.661266L7.9488 0.660012L7.90028 0.503027C7.89404 0.482715 7.86738 0.482715 7.8611 0.503027Z" fill="#F5F5F5"/>
<path d="M8.94119 0.503027L8.89268 0.660012L8.7393 0.661266C8.71944 0.661409 8.7112 0.688779 8.72718 0.701497L8.85057 0.7998L8.80428 0.957572C8.79831 0.977993 8.81986 0.994902 8.83603 0.982435L8.96082 0.886209L9.08561 0.982435C9.10178 0.994902 9.1233 0.977993 9.11736 0.957572L9.07107 0.7998L9.19446 0.701497C9.21044 0.688779 9.2022 0.661409 9.18234 0.661266L9.02896 0.660012L8.98044 0.503027C8.9741 0.482715 8.94747 0.482715 8.94119 0.503027Z" fill="#F5F5F5"/>
</svg>
