<svg width="64" height="64" viewBox="0 0 64 64" fill="none" xmlns="http://www.w3.org/2000/svg">
<mask id="mask0_340_26120" style="mask-type:alpha" maskUnits="userSpaceOnUse" x="0" y="0" width="64" height="64">
<circle cx="32" cy="32" r="32" fill="#F2F3F7"/>
</mask>
<g mask="url(#mask0_340_26120)">
<rect width="64" height="64" fill="#F2F3F7"/>
<path d="M19.4288 42.1473C18.5787 36.7058 20.8841 32.5578 25.4011 31.2887C29.5869 30.1132 33.9788 32.3706 35.5777 36.5186C37.3624 41.1477 35.4047 45.2583 29.9494 48.1203C32.0009 48.388 33.8997 48.2701 35.7746 47.8208C42.9999 46.0856 48.2271 39.4705 48.3448 31.9326C48.3688 30.364 48.0928 28.8347 47.7634 27.3111C47.3494 25.398 48.3632 23.6441 50.1406 23.1874C52.0118 22.7063 53.7395 23.7377 54.2546 25.6432C57.8406 38.9352 48.7331 52.9964 35.3587 54.8159C22.564 56.5567 11.2246 47.9837 9.22461 35.0605C7.43254 23.4738 14.9283 11.9582 26.115 9.09243C27.4655 8.74614 28.6191 9.07559 29.5262 10.1182C30.437 11.1664 30.597 12.4112 30.1076 13.7028C29.7084 14.7585 28.8988 15.3668 27.8335 15.6963C21.5207 17.6467 17.5171 21.879 16.1169 28.4417C15.0902 33.2579 16.1556 37.7091 19.0277 41.6943C19.1307 41.8384 19.2613 41.9601 19.4288 42.1473Z" fill="#FE8B00"/>
<path d="M35.2594 16.2034C35.3035 13.025 37.8095 10.5579 40.9373 10.6122C44.0045 10.6665 46.4276 13.2197 46.3835 16.3494C46.3393 19.4866 43.8591 21.9668 40.7883 21.9425C37.6641 21.92 35.2152 19.378 35.2594 16.2034Z" fill="#FE8B00"/>
</g>
</svg>
