<svg width="64" height="64" viewBox="0 0 64 64" fill="none" xmlns="http://www.w3.org/2000/svg">
<g clip-path="url(#clip0_508_62585)">
<mask id="mask0_508_62585" style="mask-type:alpha" maskUnits="userSpaceOnUse" x="0" y="0" width="64" height="64">
<circle cx="32" cy="32" r="32" fill="#F2F3F7"/>
</mask>
<g mask="url(#mask0_508_62585)">
<rect width="64" height="64" fill="#F2F3F7"/>
<path fill-rule="evenodd" clip-rule="evenodd" d="M39.4046 20.1378L35.8755 20.1367L39.3844 20.139C39.3911 20.139 39.3978 20.1378 39.4046 20.1378Z" fill="#CD4045"/>
<path fill-rule="evenodd" clip-rule="evenodd" d="M22.356 41.073L26.5309 22.3751C26.8059 21.1522 28.3356 20.1608 29.5513 20.1356L21.4525 20.1333C20.2299 20.1333 18.6624 21.1363 18.3829 22.3751L14.2081 41.073C14.1827 41.187 14.1686 41.2989 14.1602 41.4082V41.7551C14.2419 42.6485 14.9158 43.2988 15.8842 43.3137H24.0322C22.8294 43.2953 22.0801 42.2982 22.356 41.073Z" fill="#D8232A"/>
<path fill-rule="evenodd" clip-rule="evenodd" d="M35.8704 20.1368L29.5969 20.1333C29.5811 20.1333 29.5647 20.1345 29.5483 20.1356L35.8704 20.1368Z" fill="#2D4C6C"/>
<path fill-rule="evenodd" clip-rule="evenodd" d="M32.2088 41.0706L36.3824 22.3728C36.6574 21.159 38.1674 20.1744 39.3798 20.1368L35.8709 20.1345L29.5488 20.1333C28.3331 20.1585 26.8034 21.1499 26.5284 22.3728L22.3536 41.0706C22.0776 42.2959 22.8269 43.293 24.0297 43.3114H33.8854C32.682 43.293 31.9338 42.2959 32.2088 41.0706Z" fill="#0067A5"/>
<path fill-rule="evenodd" clip-rule="evenodd" d="M48.2315 20.139L39.4061 20.1367C39.4051 20.1367 39.4039 20.1367 39.4039 20.1367C39.397 20.1367 39.3904 20.1379 39.3837 20.1379C38.1713 20.1756 36.6613 21.1601 36.3863 22.374L32.2127 41.0718C31.9376 42.297 32.6858 43.2941 33.8893 43.3125H43.1608C44.3461 43.2531 45.4979 42.2799 45.7682 41.0797L49.9419 22.3819C50.2213 21.1441 49.4551 20.139 48.2315 20.139Z" fill="#009294"/>
<path fill-rule="evenodd" clip-rule="evenodd" d="M29.7143 33.7586H29.8676C30.0084 33.7586 30.103 33.7109 30.1476 33.6162L30.5459 33.0126H31.6124L31.39 33.4096H32.6688L32.5066 34.0177H30.9849C30.8097 34.2847 30.5939 34.4101 30.3347 34.3953H29.5419L29.7143 33.7586ZM29.5409 34.6314H32.3426L32.164 35.292H31.0373L30.8654 35.9297H31.9618L31.7832 36.5903H30.6868L30.4321 37.5325C30.369 37.6901 30.4519 37.7609 30.6795 37.7448H31.5731L31.4075 38.3586H29.6919C29.3667 38.3586 29.2551 38.1704 29.3572 37.7928L29.6828 36.5903H28.9819L29.1599 35.9297H29.8608L30.0327 35.292H29.3628L29.5409 34.6314ZM34.0136 33.0102L33.9696 33.3968C33.9696 33.3968 34.498 32.9951 34.978 32.9951H36.7516L36.0734 35.481C36.0171 35.7653 35.7759 35.9067 35.3499 35.9067H33.3396L32.8687 37.6523C32.8415 37.7457 32.8799 37.7938 32.9813 37.7938H33.3769L33.2316 38.3356H32.2259C31.8399 38.3356 31.6793 38.2181 31.743 37.982L33.0736 33.0102H34.0136ZM35.5144 33.7126H33.9313L33.7419 34.3834C33.7419 34.3834 34.0056 34.1906 34.4461 34.1837C34.8855 34.1768 35.387 34.1837 35.387 34.1837L35.5144 33.7126ZM34.9456 35.2664C35.0626 35.2825 35.1281 35.2355 35.136 35.125L35.2329 34.7714H33.6474L33.5144 35.2664H34.9456ZM33.8717 36.0706H34.7856L34.7686 36.4709H35.0119C35.1349 36.4709 35.1957 36.4311 35.1957 36.3524L35.2678 36.0933H36.0274L35.9259 36.4709C35.8401 36.7859 35.6126 36.9501 35.2431 36.9662H34.7563L34.754 37.6507C34.7451 37.7603 34.843 37.8161 35.0447 37.8161H35.5022L35.3545 38.358H34.2571C33.9494 38.3729 33.7986 38.2245 33.8018 37.9096L33.8717 36.0706Z" fill="#FFFFFE"/>
<path fill-rule="evenodd" clip-rule="evenodd" d="M37.7579 33.7889L37.9699 33.0337H39.0414L38.9952 33.3109C38.9952 33.3109 39.5428 33.0337 39.9371 33.0337C40.3316 33.0337 41.2622 33.0337 41.2622 33.0337L41.0516 33.7889H40.8431L39.8436 37.3507H40.052L39.8537 38.0581H39.6453L39.5585 38.365H38.5206L38.6075 38.0581H36.5601L36.7596 37.3507H36.9647L37.9652 33.7889H37.7579ZM38.9153 33.7862L38.6426 34.7501C38.6426 34.7501 39.1091 34.5689 39.5114 34.5176C39.6004 34.1808 39.7164 33.7862 39.7164 33.7862H38.9153ZM38.5137 35.2037L38.2401 36.2134C38.2401 36.2134 38.7572 35.9555 39.1121 35.9337C39.2146 35.5437 39.3172 35.2037 39.3172 35.2037H38.5137ZM38.7167 37.3495L38.9218 36.6172H38.1219L37.9156 37.3495H38.7167ZM41.3026 32.9861H42.31L42.3527 33.3626C42.3461 33.4584 42.4023 33.5041 42.5218 33.5041H42.6998L42.5197 34.1418H41.7792C41.4965 34.1565 41.3511 34.0472 41.3376 33.811L41.3026 32.9861ZM41.0107 34.3549H44.2739L44.0825 35.0395H43.0435L42.8654 35.6759H43.9033L43.7106 36.3593H42.5546L42.293 36.7599H42.8587L42.9895 37.5618C43.0051 37.6418 43.075 37.6806 43.1945 37.6806H43.3702L43.1855 38.341H42.5635C42.2412 38.3571 42.0746 38.2475 42.0609 38.0114L41.911 37.2789L41.3961 38.0582C41.2744 38.2783 41.0873 38.381 40.835 38.3651H39.8851L40.0699 37.7044H40.3663C40.488 37.7044 40.5893 37.6496 40.6805 37.5391L41.4863 36.3593H40.4474L40.6401 35.6759H41.7668L41.946 35.0395H40.8181L41.0107 34.3549Z" fill="#FFFFFE"/>
<path fill-rule="evenodd" clip-rule="evenodd" d="M22.802 29.698C22.6781 30.3129 22.3906 30.7852 21.9451 31.1206C21.5033 31.4503 20.9337 31.6158 20.2362 31.6158C19.5798 31.6158 19.0986 31.447 18.7916 31.108C18.5786 30.8674 18.4727 30.5616 18.4727 30.192C18.4727 30.0391 18.4908 29.8748 18.5268 29.698L19.27 26.0701H20.3923L19.6593 29.6569C19.6367 29.7562 19.6278 29.8486 19.6288 29.9318C19.6278 30.1155 19.6728 30.2661 19.764 30.3835C19.897 30.5582 20.1127 30.6449 20.4131 30.6449C20.7584 30.6449 21.043 30.5593 21.2639 30.3871C21.4848 30.2159 21.629 29.9729 21.6937 29.6569L22.429 26.0701H23.5456L22.802 29.698Z" fill="#FFFFFE"/>
<path fill-rule="evenodd" clip-rule="evenodd" d="M23.8366 28.2686H24.6293L24.5387 28.7365L24.6524 28.603C24.9094 28.3247 25.2215 28.1865 25.5899 28.1865C25.9235 28.1865 26.1641 28.2846 26.3151 28.482C26.4638 28.6794 26.5044 28.952 26.4339 29.3023L25.9973 31.5087H25.1826L25.577 29.5088C25.6175 29.3023 25.6063 29.1483 25.5437 29.049C25.4818 28.9497 25.3634 28.9008 25.1927 28.9008C24.9832 28.9008 24.8069 28.9669 24.6632 29.0982C24.5188 29.2305 24.4236 29.4142 24.3769 29.648L24.0135 31.5087H23.1973L23.8366 28.2686Z" fill="#FFFFFE"/>
<path fill-rule="evenodd" clip-rule="evenodd" d="M32.9289 28.2686H33.7222L33.6322 28.7365L33.7447 28.603C34.0018 28.3247 34.315 28.1865 34.6824 28.1865C35.0159 28.1865 35.257 28.2846 35.4067 28.482C35.5546 28.6794 35.5973 28.952 35.5252 29.3023L35.0902 31.5087H34.2744L34.6689 29.5088C34.7095 29.3023 34.698 29.1483 34.6361 29.049C34.5718 28.9497 34.4559 28.9008 34.2858 28.9008C34.0761 28.9008 33.9004 28.9669 33.755 29.0982C33.6107 29.2305 33.515 29.4142 33.47 29.648L33.1049 31.5087H32.2896L32.9289 28.2686Z" fill="#FFFFFE"/>
<path fill-rule="evenodd" clip-rule="evenodd" d="M27.5159 28.2705H28.3947L27.7063 31.5083H26.8291L27.5159 28.2705ZM27.7918 27.0891H28.6785L28.513 27.875H27.6261L27.7918 27.0891Z" fill="#FFFFFE"/>
<path fill-rule="evenodd" clip-rule="evenodd" d="M29.1719 31.2622C28.9419 31.0398 28.8258 30.7398 28.8247 30.3587C28.8247 30.2936 28.8286 30.2195 28.8371 30.1386C28.8456 30.0564 28.8564 29.9765 28.8716 29.9023C28.9757 29.3764 29.1978 28.9589 29.5397 28.6509C29.8811 28.3417 30.293 28.1865 30.7753 28.1865C31.1702 28.1865 31.4834 28.2983 31.7127 28.5219C31.9421 28.7466 32.057 29.0501 32.057 29.4358C32.057 29.5019 32.052 29.5783 32.0435 29.6604C32.0333 29.7438 32.021 29.8236 32.0068 29.9023C31.9049 30.4204 31.6834 30.8333 31.3415 31.1357C30.9995 31.4402 30.5888 31.5919 30.1099 31.5919C29.7133 31.5919 29.4011 31.4824 29.1719 31.2622ZM30.8498 30.6193C31.0048 30.4493 31.1158 30.1914 31.1834 29.848C31.1935 29.7944 31.2025 29.7386 31.2081 29.6827C31.2137 29.6279 31.216 29.5765 31.216 29.5298C31.216 29.3301 31.1658 29.1749 31.065 29.0655C30.9648 28.9547 30.8222 28.9 30.6379 28.9C30.3946 28.9 30.1963 28.9866 30.0409 29.16C29.8841 29.3335 29.7731 29.596 29.7032 29.945C29.6937 29.9986 29.6858 30.0523 29.6785 30.1048C29.6729 30.1584 29.6712 30.2086 29.6723 30.2542C29.6723 30.4527 29.7223 30.6055 29.8233 30.7139C29.9235 30.8223 30.0656 30.876 30.252 30.876C30.4966 30.876 30.6949 30.7903 30.8498 30.6193Z" fill="#FFFFFE"/>
<path fill-rule="evenodd" clip-rule="evenodd" d="M36.8529 26.2625H39.1561C39.599 26.2625 39.9414 26.3641 40.1769 26.5636C40.4113 26.7656 40.5286 27.0554 40.5286 27.433V27.4444C40.5286 27.5162 40.5239 27.5973 40.5172 27.6851C40.5059 27.7718 40.4913 27.8598 40.4722 27.9509C40.3708 28.4507 40.1352 28.8523 39.7713 29.1568C39.4061 29.4603 38.9736 29.6132 38.4755 29.6132H37.2404L36.8585 31.5104H35.7891L36.8529 26.2625ZM37.426 28.6979H38.4503C38.7174 28.6979 38.9294 28.635 39.0837 28.5106C39.237 28.3852 39.3384 28.1937 39.3947 27.9335C39.4036 27.8856 39.4094 27.8422 39.416 27.8022C39.4195 27.7645 39.4239 27.7269 39.4239 27.6905C39.4239 27.5045 39.3587 27.3698 39.2279 27.2854C39.0972 27.1998 38.8921 27.1588 38.6081 27.1588H37.7382L37.426 28.6979Z" fill="#FFFFFE"/>
<path fill-rule="evenodd" clip-rule="evenodd" d="M45.3163 32.1358C44.9784 32.8636 44.6561 33.2879 44.4669 33.4853C44.2773 33.6806 43.9023 34.1346 42.9985 34.1002L43.0763 33.5447C43.8368 33.3074 44.2481 32.2383 44.4825 31.7649L44.2031 28.2785L44.7913 28.2705H45.2848L45.3378 30.4576L46.2628 28.2705H47.1993L45.3163 32.1358Z" fill="#FFFFFE"/>
<path fill-rule="evenodd" clip-rule="evenodd" d="M42.6919 28.5339L42.3198 28.7928C41.9311 28.4847 41.5762 28.2943 40.8912 28.616C39.9581 29.0541 39.1784 32.414 41.7475 31.3073L41.894 31.4829L42.9047 31.5091L43.5685 28.4562L42.6919 28.5339ZM42.1217 30.2035C41.9593 30.6884 41.5967 31.0091 41.3127 30.9177C41.0288 30.8287 40.9273 30.361 41.0918 29.875C41.254 29.3889 41.6191 29.0695 41.9008 29.1608C42.1848 29.2498 42.2872 29.7175 42.1217 30.2035Z" fill="#FFFFFE"/>
</g>
</g>
<defs>
<clipPath id="clip0_508_62585">
<rect width="64" height="64" fill="white"/>
</clipPath>
</defs>
</svg>
