<svg width="64" height="64" viewBox="0 0 64 64" fill="none" xmlns="http://www.w3.org/2000/svg">
<mask id="mask0_340_26108" style="mask-type:alpha" maskUnits="userSpaceOnUse" x="0" y="0" width="64" height="64">
<circle cx="32" cy="32" r="32" fill="#F2F3F7"/>
</mask>
<g mask="url(#mask0_340_26108)">
<rect width="64" height="64" fill="#F2F3F7"/>
<path d="M53.5735 35.4894C53.4903 35.49 53.4083 35.5097 53.3338 35.5471C53.2593 35.5845 53.1944 35.6386 53.144 35.7051C49.6654 40.239 40.9134 43.4517 30.6656 43.4517C20.5828 43.4517 11.9458 40.3392 8.35983 35.9247C8.34839 35.9109 8.341 35.8942 8.33849 35.8765C8.33598 35.8587 8.33845 35.8406 8.34562 35.8242C8.3528 35.8078 8.36439 35.7937 8.3791 35.7836C8.3938 35.7734 8.41104 35.7676 8.42887 35.7667C8.48741 35.7659 8.5455 35.7771 8.59958 35.7996C8.65367 35.8221 8.70259 35.8555 8.74336 35.8977C12.1529 39.5649 19.5587 42.1073 28.1497 42.1073C36.2958 42.1073 43.3718 39.823 46.9922 36.464C47.0727 36.3838 47.1273 36.2812 47.1492 36.1695C47.1711 36.0579 47.1592 35.9422 47.1151 35.8373C47.071 35.7325 46.9966 35.6433 46.9016 35.5813C46.8065 35.5193 46.6952 35.4873 46.5819 35.4894H45.5195C45.4337 35.4907 45.349 35.5095 45.2705 35.5446C45.1921 35.5797 45.1216 35.6304 45.0631 35.6935C41.8492 39.1065 34.9457 41.437 26.9531 41.437C15.8692 41.437 6.99065 36.9262 6.99065 31.3561C6.99065 25.7859 15.8692 21.279 26.9531 21.279C35.0071 21.279 41.9412 23.6596 45.1398 27.0918C45.198 27.1553 45.2685 27.2062 45.347 27.2413C45.4255 27.2764 45.5103 27.295 45.5962 27.2959H46.6202C46.7347 27.2998 46.8476 27.2692 46.9447 27.2082C47.0417 27.1471 47.1184 27.0584 47.165 26.9533C47.2115 26.8482 47.2258 26.7316 47.2059 26.6183C47.1861 26.5051 47.1331 26.4003 47.0536 26.3175C43.4408 22.9277 36.3149 20.6164 28.1305 20.6164C19.5204 20.6164 12.103 23.1588 8.70117 26.8375C8.66113 26.8796 8.61287 26.913 8.55943 26.9355C8.50598 26.9581 8.44848 26.9693 8.39052 26.9685C8.37236 26.9684 8.35463 26.963 8.33937 26.9532C8.32411 26.9433 8.31196 26.9293 8.30432 26.9127C8.29669 26.8962 8.29389 26.8778 8.29625 26.8597C8.29861 26.8416 8.30603 26.8246 8.31765 26.8106C11.9036 22.3845 20.5482 19.2643 30.6464 19.2643C40.9479 19.2643 49.7383 22.5116 53.1785 27.0841C53.2281 27.1518 53.2928 27.2069 53.3674 27.245C53.4419 27.2831 53.5244 27.3032 53.608 27.3037H56.5382C56.7376 27.3118 56.935 27.2611 57.106 27.1577C57.2769 27.0544 57.414 26.9029 57.5001 26.7221C57.5862 26.5413 57.6177 26.3391 57.5905 26.1405C57.5634 25.9419 57.4789 25.7557 57.3474 25.6049C53.0558 21.0594 43.8397 17.9199 33.1624 17.9199C18.3852 17.9199 6.40002 23.9369 6.40002 31.3599C6.40002 38.7829 18.3852 44.7999 33.1624 44.7999C43.7937 44.7999 52.9714 41.6874 57.2899 37.1766C57.4222 37.0279 57.5079 36.8433 57.5362 36.6458C57.5645 36.4484 57.5342 36.247 57.449 36.0668C57.3638 35.8867 57.2276 35.7358 57.0574 35.633C56.8871 35.5303 56.6905 35.4803 56.4921 35.4894H53.5735Z" fill="#104076"/>
<path d="M16.8549 32.3152C16.8466 32.5214 16.7645 32.7176 16.6235 32.8677C16.4825 33.0178 16.2923 33.1116 16.0879 33.1319H15.7388C15.5344 33.1116 15.3442 33.0178 15.2032 32.8677C15.0622 32.7176 14.9801 32.5214 14.9718 32.3152V30.4316C14.9793 30.2251 15.0612 30.0285 15.2023 29.8782C15.3434 29.728 15.5341 29.6344 15.7388 29.6149H16.0955C16.3 29.6352 16.4902 29.729 16.6312 29.8791C16.7721 30.0292 16.8543 30.2254 16.8626 30.4316L16.8549 32.3152ZM17.8751 30.4393C17.8751 30.004 17.7029 29.5867 17.3965 29.2789C17.0901 28.9712 16.6746 28.7983 16.2413 28.7983H15.5663C15.351 28.7957 15.1374 28.8364 14.938 28.9179C14.7386 28.9995 14.5575 29.1203 14.4052 29.2732C14.253 29.426 14.1328 29.608 14.0516 29.8082C13.9704 30.0085 13.9299 30.2231 13.9324 30.4393V30.7705C13.9305 30.8274 13.9065 30.8813 13.8658 30.9209C13.825 30.9604 13.7705 30.9825 13.7138 30.9824H12.9851C12.9303 30.9826 12.8774 30.9622 12.837 30.9251C12.7965 30.888 12.7713 30.8369 12.7665 30.7821V29.9423C12.7798 29.7796 12.7602 29.6158 12.7088 29.4609C12.6574 29.306 12.5752 29.1631 12.4674 29.041C12.292 28.9061 12.0742 28.8391 11.8537 28.8522H11.6888V33.8869H12.7665V32.0148C12.7684 31.9598 12.7907 31.9076 12.829 31.8684C12.8674 31.8291 12.919 31.8058 12.9736 31.8029H13.7215C13.7765 31.8039 13.829 31.826 13.8683 31.8647C13.9075 31.9034 13.9305 31.9557 13.9324 32.0109V32.3075C13.9431 32.7394 14.1187 33.1506 14.4228 33.456C14.7269 33.7615 15.1363 33.9378 15.5663 33.9485H16.2451C16.675 33.9378 17.0844 33.7615 17.3885 33.456C17.6927 33.1506 17.8682 32.7394 17.8789 32.3075L17.8751 30.4393Z" fill="#104076"/>
<path d="M22.6998 32.8584C22.6998 33.5402 23.0105 33.9293 23.6126 33.9293H23.7814V28.9215H22.6998V30.7359C22.6973 30.7883 22.6763 30.8381 22.6404 30.8763C22.6045 30.9144 22.5562 30.9384 22.5042 30.9439H20.5214C20.4698 30.9416 20.4207 30.9209 20.3827 30.8857C20.3448 30.8504 20.3206 30.8028 20.3143 30.7513V29.9308C20.3143 29.249 20.0036 28.8483 19.4015 28.8483H19.2366V33.8869H20.3143V32.0687C20.3168 32.0163 20.3378 31.9665 20.3737 31.9283C20.4096 31.8901 20.4579 31.8662 20.5099 31.8607H22.508C22.5615 31.8634 22.612 31.8857 22.6502 31.9233C22.6884 31.9609 22.7115 32.0113 22.7152 32.0649V32.6581L22.6998 32.8584Z" fill="#104076"/>
<path d="M35.9506 28.9023C35.7384 28.9142 35.538 29.0039 35.3874 29.1545C35.2368 29.305 35.1465 29.5059 35.1337 29.7189H36.6985C36.7528 29.7198 36.8048 29.7414 36.844 29.7793C36.8831 29.8172 36.9065 29.8686 36.9094 29.9231V33.8869H37.9871V29.9308C37.9889 29.8769 38.0108 29.8256 38.0485 29.7871C38.0861 29.7486 38.1367 29.7256 38.1904 29.7228H38.9804C39.1926 29.7109 39.393 29.6211 39.5436 29.4706C39.6942 29.32 39.7845 29.1192 39.7973 28.9061L35.9506 28.9023Z" fill="#104076"/>
<path d="M43.8052 30.8206C43.8107 30.9079 43.7971 30.9953 43.7655 31.0767C43.734 31.1582 43.685 31.2317 43.6222 31.2922C43.5594 31.3528 43.4842 31.3988 43.4019 31.4271C43.3196 31.4554 43.2321 31.4654 43.1455 31.4562H41.9949C41.9393 31.4552 41.8862 31.4326 41.8469 31.3931C41.8075 31.3536 41.785 31.3002 41.784 31.2444V29.9346C41.7835 29.9068 41.7884 29.8792 41.7986 29.8533C41.8087 29.8274 41.8238 29.8037 41.843 29.7837C41.8623 29.7637 41.8853 29.7476 41.9107 29.7365C41.9361 29.7254 41.9634 29.7194 41.9911 29.7189H43.1417C43.6096 29.7189 43.8013 29.9038 43.8013 30.3507L43.8052 30.8206ZM44.8253 30.4816V30.3892C44.8253 30.3699 44.8253 30.3507 44.8253 30.3314C44.8279 30.1357 44.7901 29.9416 44.7141 29.7614C44.6382 29.5812 44.5258 29.4188 44.3841 29.2844C44.2425 29.1501 44.0746 29.0468 43.891 28.981C43.7075 28.9152 43.5124 28.8884 43.3181 28.9023H40.6948V33.8869H41.7763V32.4809C41.7781 32.4266 41.7998 32.3748 41.8374 32.3357C41.8749 32.2966 41.9256 32.2728 41.9796 32.269H43.3181C43.7071 32.2703 44.0814 32.1202 44.3625 31.8501C44.6436 31.58 44.8095 31.211 44.8253 30.8206C44.8253 30.7821 44.8253 30.524 44.8253 30.4816Z" fill="#104076"/>
<path d="M30.8382 32.3075C30.8382 32.7257 31.0033 33.1269 31.2974 33.423C31.5915 33.719 31.9904 33.8859 32.4068 33.8869H34.5277C34.5157 33.6736 34.4257 33.4722 34.2749 33.3215C34.1241 33.1708 33.9232 33.0813 33.7108 33.0703H32.4413C32.2896 33.0565 32.1495 32.9833 32.0511 32.8665C31.9528 32.7497 31.9042 32.5987 31.9159 32.4462V30.3507C31.9111 30.2641 31.9249 30.1775 31.9566 30.0968C31.9882 30.0161 32.0368 29.9433 32.0991 29.8833C32.1614 29.8233 32.2359 29.7775 32.3175 29.7491C32.3991 29.7208 32.4858 29.7105 32.5717 29.7189H33.5919C33.802 29.7043 33.9997 29.6134 34.1479 29.4631C34.2961 29.3128 34.3848 29.1134 34.3973 28.9023H32.4068C31.9911 28.9033 31.5927 29.0696 31.2988 29.3649C31.0048 29.6601 30.8392 30.0603 30.8382 30.4778V32.3075Z" fill="#104076"/>
<path d="M56.4308 28.8946C56.3026 28.8868 56.174 28.8933 56.0473 28.9138C55.959 28.9408 55.9284 29.0063 55.798 29.3337C55.798 29.3337 54.9619 31.7066 54.8353 31.9377C54.8216 31.9689 54.7997 31.9957 54.772 32.0154C54.7444 32.035 54.7119 32.0468 54.6781 32.0494C54.6436 32.0475 54.6103 32.036 54.5819 32.0163C54.5535 31.9966 54.531 31.9694 54.517 31.9377C54.3904 31.7066 53.5544 29.3337 53.5544 29.3337C53.424 29.0063 53.3933 28.9485 53.3051 28.9138C53.1783 28.8931 53.0497 28.8866 52.9215 28.8946H51.886V33.9293H52.0394C52.6416 33.9293 52.9445 33.5826 52.9445 32.8969V30.9709C52.9445 30.8245 53.0366 30.7898 53.1018 30.7898C53.1456 30.7903 53.1882 30.8047 53.2233 30.831C53.2585 30.8573 53.2844 30.8941 53.2974 30.9362L54.1833 33.2089H55.1498L56.0358 30.9362C56.0487 30.8941 56.0747 30.8573 56.1098 30.831C56.145 30.8047 56.1875 30.7903 56.2313 30.7898C56.2965 30.7898 56.3886 30.8206 56.3886 30.9709V32.8969C56.3886 33.5826 56.6954 33.9293 57.2976 33.9293H57.4625V28.8946H56.4308Z" fill="#104076"/>
<path d="M47.0268 33.8792H45.9222V28.8445H46.0871C46.6893 28.8445 46.9846 29.1873 46.9884 29.8615V31.9108C46.9884 32.034 47.1763 32.088 47.2876 31.9493L49.3548 28.9023H50.4593V33.91H50.2906C49.6884 33.91 49.3931 33.5672 49.3931 32.8931V30.9015C49.3931 30.7783 49.2052 30.7243 49.094 30.863L47.0268 33.8792Z" fill="#104076"/>
<path d="M26.1745 33.8792H25.07V28.8445H25.2349C25.837 28.8445 26.1324 29.1873 26.1324 29.8615V31.9108C26.1324 32.034 26.3203 32.088 26.4315 31.9493L28.4987 28.8984H29.6033V33.9062H29.4383C28.8362 33.9062 28.5409 33.5633 28.5371 32.8892V30.9015C28.5371 30.7783 28.3491 30.7243 28.2379 30.863L26.1707 33.8792" fill="#104076"/>
</g>
</svg>
