<svg width="64" height="64" viewBox="0 0 64 64" fill="none" xmlns="http://www.w3.org/2000/svg">
<g clip-path="url(#clip0_340_21004)">
<mask id="mask0_340_21004" style="mask-type:alpha" maskUnits="userSpaceOnUse" x="0" y="0" width="64" height="64">
<circle cx="32" cy="32" r="32" fill="#F2F3F7"/>
</mask>
<g mask="url(#mask0_340_21004)">
<rect width="64" height="64" fill="#F2F3F7"/>
<path fill-rule="evenodd" clip-rule="evenodd" d="M47.3596 33.2158C47.3596 38.8606 46.0863 43.0676 43.541 45.809C40.995 48.5497 37.0618 49.9201 31.7594 49.9201C26.805 49.9201 23.0465 48.5497 20.4839 45.809C17.92 43.0683 16.6396 38.9345 16.6396 33.4084V14.8677C16.6402 14.659 16.7222 14.4589 16.8679 14.3113C17.0136 14.1637 17.211 14.0806 17.4171 14.0801H26.4006C26.6065 14.0809 26.8038 14.1642 26.9494 14.3117C27.095 14.4592 27.1772 14.6591 27.178 14.8677V33.8135C27.178 36.07 27.5901 37.8066 28.4289 39.0318C29.0568 39.8751 29.952 40.4739 30.9643 40.7273C31.9765 40.9808 33.044 40.8735 33.9874 40.4235C34.6127 40.1254 35.1627 39.6867 35.5953 39.1407C36.4156 37.9913 36.8238 36.2975 36.8213 34.0585V30.5108H47.3596V33.2158Z" fill="#061184"/>
<path fill-rule="evenodd" clip-rule="evenodd" d="M36.6744 28.6816V14.9955C36.6749 14.7529 36.7621 14.5204 36.9169 14.3488C37.0717 14.1773 37.2814 14.0806 37.5003 14.0801H38.9763C38.978 16.542 39.8617 18.9024 41.4331 20.6422C43.0049 22.3826 45.1355 23.3603 47.3571 23.3605H47.3596V28.6816H36.6744Z" fill="#061184"/>
<path fill-rule="evenodd" clip-rule="evenodd" d="M40.6816 14.0801H46.4822C46.7148 14.0808 46.9376 14.1729 47.102 14.3362C47.2665 14.4995 47.3592 14.7208 47.3599 14.9517V20.7171C45.5892 20.7168 43.8911 20.0182 42.6388 18.7749C41.3865 17.5316 40.6826 15.8454 40.6816 14.0869V14.0801Z" fill="#F4821F"/>
</g>
</g>
<defs>
<clipPath id="clip0_340_21004">
<rect width="64" height="64" fill="white"/>
</clipPath>
</defs>
</svg>
