<svg width="64" height="64" viewBox="0 0 64 64" fill="none" xmlns="http://www.w3.org/2000/svg">
<mask id="mask0_340_26113" style="mask-type:alpha" maskUnits="userSpaceOnUse" x="0" y="0" width="64" height="64">
<circle cx="32" cy="32" r="32" fill="#F2F3F7"/>
</mask>
<g mask="url(#mask0_340_26113)">
<rect width="64" height="64" fill="#F2F3F7"/>
<path d="M39.7897 22.9956L34.8864 41.0134H31.3282L27.6136 29.068L23.899 41.0134H20.3643L15.4141 22.9956H19.2694L22.2998 34.3975L25.8423 22.9956H29.4083L33.0135 34.4835L35.9773 22.9956H39.7897ZM51.1173 22.9956V34.0925V34.1199C51.1173 34.1355 51.1955 35.6448 50.2219 36.681C49.5884 37.3535 48.6382 37.6937 47.3948 37.6937C46.1514 37.6937 45.2013 37.3535 44.5678 36.681C43.5942 35.6448 43.6724 34.1355 43.6724 34.1199V22.9956H42.0732L39.7897 31.3867V33.9947C39.7897 36.2157 40.5091 38.0964 41.8698 39.4376C43.2306 40.7749 45.1387 41.4826 47.3948 41.4826C49.647 41.4826 51.5591 40.7749 52.9198 39.4376C54.2805 38.1004 55 36.2157 55 33.9947V22.9956H51.1173Z" fill="black"/>
<path d="M13.382 41.0134L8.43176 22.9956H9.69473L14.6488 41.0134H13.382ZM18.1406 41.0134L13.1904 22.9956H11.9274L16.8737 41.0134H18.1406Z" fill="black"/>
</g>
</svg>
