<svg width="44" height="44" viewBox="0 0 44 44" fill="none" xmlns="http://www.w3.org/2000/svg">
<path fill-rule="evenodd" clip-rule="evenodd" d="M0 22C0 9.84974 9.84974 0 22 0C34.1503 0 44 9.84974 44 22C44 34.1503 34.1503 44 22 44C9.84974 44 0 34.1503 0 22Z" fill="#E2E5EB"/>
<path d="M31.5181 16.8126C31.6641 16.3442 31.5181 16 30.8234 16H28.526C27.9418 16 27.6725 16.2973 27.5264 16.6252C27.5264 16.6252 26.3581 19.3652 24.7031 21.145C24.1676 21.6602 23.9242 21.8242 23.6321 21.8242C23.4861 21.8242 23.2747 21.6602 23.2747 21.1919V16.8126C23.2747 16.2505 23.1052 16 22.6183 16H19.0081C18.6431 16 18.4235 16.2609 18.4235 16.5081C18.4235 17.0409 19.251 17.1638 19.3363 18.6626V21.9179C19.3363 22.6316 19.2024 22.761 18.9103 22.761C18.1315 22.761 16.2369 20.0087 15.1133 16.8594C14.8931 16.2473 14.6723 16 14.0851 16H11.7877C11.1313 16 11 16.2973 11 16.6252C11 17.2107 11.7789 20.1146 14.6266 23.9553C16.525 26.5782 19.1998 28 21.6337 28C23.0941 28 23.2747 27.6842 23.2747 27.1403V25.1579C23.2747 24.5263 23.4131 24.4003 23.8755 24.4003C24.2163 24.4003 24.8004 24.5642 26.1634 25.8288C27.7212 27.3276 27.978 28 28.8542 28H31.1516C31.808 28 32.1362 27.6842 31.9468 27.061C31.7396 26.4399 30.9959 25.5388 30.0091 24.4705C29.4736 23.8616 28.6704 23.2059 28.427 22.878C28.0862 22.4565 28.1836 22.2691 28.427 21.8945C28.427 21.8945 31.226 18.1006 31.5181 16.8126Z" fill="black"/>
</svg>
