<svg width="44" height="44" viewBox="0 0 44 44" fill="none" xmlns="http://www.w3.org/2000/svg">
<path fill-rule="evenodd" clip-rule="evenodd" d="M0 22C0 9.84974 9.84974 0 22 0C34.1503 0 44 9.84974 44 22C44 34.1503 34.1503 44 22 44C9.84974 44 0 34.1503 0 22Z" fill="#E2E5EB"/>
<path fill-rule="evenodd" clip-rule="evenodd" d="M12.3533 21.7701L16.9617 23.4934L18.7454 29.2408C18.8595 29.6089 19.3088 29.745 19.607 29.5007L22.1758 27.4026C22.4451 27.1828 22.8286 27.1718 23.11 27.3765L27.7432 30.7467C28.0622 30.979 28.5141 30.8039 28.5941 30.4177L31.9882 14.0604C32.0756 13.6386 31.6618 13.2866 31.2609 13.442L12.3479 20.752C11.8811 20.9323 11.8852 21.5944 12.3533 21.7701ZM18.4579 22.5761L27.4645 17.0183C27.6263 16.9187 27.7929 17.138 27.6539 17.2672L20.2209 24.1897C19.9596 24.4334 19.7911 24.7595 19.7433 25.1134L19.4901 26.9934C19.4566 27.2444 19.1047 27.2693 19.0355 27.0264L18.0617 23.5982C17.9502 23.2072 18.1127 22.7895 18.4579 22.5761Z" fill="black"/>
</svg>
