<svg width="44" height="44" viewBox="0 0 44 44" fill="none" xmlns="http://www.w3.org/2000/svg">
<path fill-rule="evenodd" clip-rule="evenodd" d="M0 22C0 9.84974 9.84974 0 22 0C34.1503 0 44 9.84974 44 22C44 34.1503 34.1503 44 22 44C9.84974 44 0 34.1503 0 22Z" fill="#E2E5EB"/>
<path fill-rule="evenodd" clip-rule="evenodd" d="M21.3183 13C18.7422 13 16.6539 15.0884 16.6539 17.6644C16.6539 20.2406 18.7422 22.3291 21.3183 22.3291C23.8944 22.3291 25.9827 20.2406 25.9827 17.6644C25.9827 15.0884 23.8944 13 21.3183 13ZM21.3192 19.5927C20.2543 19.5927 19.391 18.7294 19.391 17.6645C19.391 16.5996 20.2543 15.7363 21.3192 15.7363C22.3841 15.7363 23.2474 16.5996 23.2474 17.6645C23.2474 18.7294 22.3841 19.5927 21.3192 19.5927ZM26.0114 24.7284C25.9522 24.7759 24.8332 25.6602 22.9658 26.0406L25.7845 28.8342C26.2802 29.3291 26.2808 30.1321 25.7859 30.6278C25.291 31.1234 24.4881 31.1242 23.9923 30.6292L21.2558 27.9643L18.7703 30.612C18.5215 30.8702 18.1895 31 17.8572 31C17.5403 31 17.2231 30.882 16.977 30.6447C16.4727 30.1585 16.4581 29.3556 16.9443 28.8514L19.6198 26.0553C17.7001 25.6839 16.5349 24.7765 16.4749 24.7284C15.9284 24.2902 15.8407 23.492 16.2789 22.9455C16.717 22.3991 17.5152 22.3113 18.0617 22.7494C18.0733 22.7588 19.292 23.6743 21.2557 23.6757C23.2195 23.6743 24.413 22.7588 24.4245 22.7494C24.9711 22.3113 25.7692 22.3991 26.2074 22.9455C26.6456 23.492 26.5578 24.2902 26.0114 24.7284Z" fill="black"/>
</svg>
