<svg width="44" height="44" viewBox="0 0 44 44" fill="none" xmlns="http://www.w3.org/2000/svg">
<path fill-rule="evenodd" clip-rule="evenodd" d="M0 22C0 9.84974 9.84974 0 22 0C34.1503 0 44 9.84974 44 22C44 34.1503 34.1503 44 22 44C9.84974 44 0 34.1503 0 22Z" fill="#E2E5EB"/>
<path d="M23.1544 31V22.8024H25.9598L26.3781 19.5929H23.1544V17.5494C23.1544 16.6219 23.4174 15.9888 24.7648 15.9888H26.4737V13.1267C25.6421 13.0399 24.8063 12.9977 23.9701 13.0001C21.4904 13.0001 19.7874 14.493 19.7874 17.2314V19.587H17V22.7965H19.7934V31H23.1544Z" fill="black"/>
</svg>
