<svg width="64" height="64" viewBox="0 0 64 64" fill="none" xmlns="http://www.w3.org/2000/svg">
<mask id="mask0_508_90534" style="mask-type:alpha" maskUnits="userSpaceOnUse" x="0" y="0" width="64" height="64">
<circle cx="31.8415" cy="31.8415" r="31.8415" fill="#F2F3F7"/>
</mask>
<g mask="url(#mask0_508_90534)">
</g>
<g clip-path="url(#clip0_508_90534)">
<path d="M31.84 63.6787C49.4205 63.6787 63.6723 49.4255 63.6723 31.8434C63.6723 14.2612 49.4205 0.00805664 31.84 0.00805664C14.2596 0.00805664 0.0078125 14.2612 0.0078125 31.8434C0.0078125 49.4255 14.2596 63.6787 31.84 63.6787Z" fill="#FFCC00"/>
<path d="M45.5451 55.5617C34.7364 61.8037 23.0104 62.9239 15.5195 59.1806C20.3874 62.0853 25.9417 63.6376 31.6093 63.6773C37.2768 63.717 42.8523 62.2427 47.7604 59.4065C52.6684 56.5702 56.7313 52.4748 59.5298 47.5428C62.3282 42.6108 63.7609 37.0209 63.6799 31.35C63.1761 39.7203 56.3445 49.3198 45.5451 55.5617Z" fill="black"/>
<path d="M35.878 2.33682C38.0546 6.13304 32.7685 13.293 24.0431 18.3338C15.3178 23.3747 6.46808 24.3798 4.27587 20.5836C4.17958 20.3964 4.09847 20.2018 4.03332 20.0017C3.46739 18.2343 4.14527 15.9565 5.78399 13.5388C6.04519 13.1654 6.31883 12.7951 6.59868 12.431C11.7398 5.75732 19.307 1.38569 27.6533 0.267573C28.1228 0.202229 28.5861 0.14933 29.0215 0.118213C31.9227 -0.096491 34.2393 0.457383 35.4862 1.82962C35.6312 1.98701 35.7623 2.15671 35.878 2.33682Z" fill="black"/>
<path d="M49.4075 6.45683C53.2354 13.0847 45.5144 24.7067 32.1652 32.4142C18.816 40.1218 4.89468 40.9962 1.07929 34.3559C0.43985 33.2382 0.0773188 31.9834 0.0220517 30.6966C-0.149294 35.2445 0.663205 39.7757 2.40395 43.9803C2.66826 44.6244 2.95433 45.2591 3.26529 45.8908L3.31193 45.9717C4.49404 47.9771 6.21883 49.6071 8.28717 50.6734C15.7718 54.6812 28.4369 53.3059 40.278 46.4665C52.119 39.627 59.6348 29.3524 59.9146 20.8638C60.0302 18.5462 59.4914 16.2428 58.3599 14.2173C57.9287 13.568 57.4768 12.9374 57.0041 12.3254C54.2577 8.7721 50.786 5.84539 46.8204 3.74036C47.8844 4.42158 48.7712 5.3463 49.4075 6.43816C49.4084 6.44435 49.4084 6.45064 49.4075 6.45683Z" fill="black"/>
<path d="M31.8416 63.6766C49.4221 63.6766 63.6738 49.4235 63.6738 31.8413C63.6738 14.2591 49.4221 0.00598145 31.8416 0.00598145C14.2612 0.00598145 0.00939941 14.2591 0.00939941 31.8413C0.00939941 49.4235 14.2612 63.6766 31.8416 63.6766Z" fill="url(#paint0_radial_508_90534)"/>
</g>
<defs>
<radialGradient id="paint0_radial_508_90534" cx="0" cy="0" r="1" gradientUnits="userSpaceOnUse" gradientTransform="translate(31.8416 31.8413) scale(31.8291 31.8509)">
<stop offset="0.5" stop-color="white" stop-opacity="0"/>
<stop offset="0.6" stop-color="white" stop-opacity="0.02"/>
<stop offset="0.71" stop-color="white" stop-opacity="0.07"/>
<stop offset="0.82" stop-color="white" stop-opacity="0.15"/>
<stop offset="0.93" stop-color="white" stop-opacity="0.26"/>
<stop offset="1" stop-color="white" stop-opacity="0.35"/>
</radialGradient>
<clipPath id="clip0_508_90534">
<rect width="63.6831" height="63.6831" fill="white"/>
</clipPath>
</defs>
</svg>
