<svg width="64" height="64" viewBox="0 0 64 64" fill="none" xmlns="http://www.w3.org/2000/svg">
<mask id="mask0_508_90775" style="mask-type:alpha" maskUnits="userSpaceOnUse" x="0" y="0" width="64" height="64">
<circle cx="32" cy="32" r="32" fill="#F2F3F7"/>
</mask>
<g mask="url(#mask0_508_90775)">
<rect width="64" height="64" fill="#F2F3F7"/>
<mask id="mask1_508_90775" style="mask-type:alpha" maskUnits="userSpaceOnUse" x="0" y="0" width="64" height="64">
<path d="M32 64C49.6731 64 64 49.6731 64 32C64 14.3269 49.6731 0 32 0C14.3269 0 0 14.3269 0 32C0 49.6731 14.3269 64 32 64Z" fill="white"/>
</mask>
<g mask="url(#mask1_508_90775)">
<path d="M32 64C49.6731 64 64 49.6731 64 32C64 14.3269 49.6731 0 32 0C14.3269 0 0 14.3269 0 32C0 49.6731 14.3269 64 32 64Z" fill="white"/>
</g>
</g>
<g clip-path="url(#clip0_508_90775)">
<path d="M45.4151 41.0214C45.2867 40.632 45.03 39.9829 44.6448 39.8531C44.2597 39.7233 44.1313 40.2425 44.2597 40.5021C44.5164 41.281 44.7732 41.93 45.03 42.0598C45.2867 42.1896 45.6718 41.8002 45.4151 41.0214Z" fill="#F49600"/>
<path d="M42.0769 41.93C41.8202 41.6704 41.5634 41.4108 41.3067 41.281C41.3067 41.281 41.3067 41.281 41.1783 41.281C40.9215 41.281 40.6648 41.281 40.408 41.4108C39.8945 41.8002 39.7661 42.579 40.2797 43.228C40.5364 43.4877 40.7932 43.7473 41.0499 43.8771C41.3067 43.8771 41.5634 43.8771 41.8202 43.7473C42.3337 43.228 42.4621 42.4492 42.0769 41.93Z" fill="#F49600"/>
<path d="M44.9027 46.733C45.6729 46.9926 46.7 47.3821 47.4702 47.9013C49.9094 49.3291 52.0918 51.1463 53.2472 53.7424C53.7607 54.9106 53.6323 55.0404 53.6323 55.0404C53.3756 55.1702 53.3756 54.9106 53.3756 54.9106C53.1188 54.2616 52.6053 53.6126 52.6053 53.6126C46.7 46.6032 38.3554 47.3821 35.9162 48.1609C29.369 50.2377 18.0718 47.9013 13.3218 40.3727C7.41641 31.2865 10.3691 18.6956 19.9974 12.4651C29.6257 6.23456 42.0784 8.57101 47.9837 17.6572C52.6053 24.7964 51.7067 34.1422 46.5716 40.7621C46.4432 39.7237 45.9297 38.6853 45.2878 37.6468C45.2878 37.517 45.1594 37.517 45.1594 37.3872C44.9027 36.9978 44.6459 36.7382 44.2608 36.4786C44.3892 36.0892 44.5175 35.8296 44.6459 35.4402C45.9297 31.0269 45.1594 25.5752 42.0784 21.0321C37.2 13.6333 27.9568 10.7777 21.9231 14.8015C15.6326 19.085 14.092 28.301 18.5853 35.9594C21.0244 40.1131 26.4163 43.6178 32.5784 43.8774C31.9365 41.9303 32.1933 40.6323 32.1933 40.6323C32.1933 40.8919 32.5784 41.4111 32.7068 41.5409C33.2203 42.3197 33.8622 42.9688 34.6325 43.488C36.0446 44.5264 37.4568 45.1754 39.1257 45.435C41.3081 45.9542 43.1054 46.084 44.9027 46.733Z" fill="#F49600"/>
<path d="M44.1308 36.608C44.1308 36.608 42.0768 34.5312 39.3809 34.7908C39.3809 34.7908 41.82 33.7524 44.3876 35.6994" fill="#F49600"/>
</g>
<defs>
<clipPath id="clip0_508_90775">
<rect width="43.52" height="46.08" fill="white" transform="translate(10.24 8.95996)"/>
</clipPath>
</defs>
</svg>
