<svg width="64" height="64" viewBox="0 0 64 64" fill="none" xmlns="http://www.w3.org/2000/svg">
<mask id="mask0_508_90641" style="mask-type:alpha" maskUnits="userSpaceOnUse" x="0" y="0" width="64" height="64">
<circle cx="32" cy="32" r="32" fill="#F2F3F7"/>
</mask>
<g mask="url(#mask0_508_90641)">
<rect width="64" height="64" fill="white"/>
<path d="M26.1693 11.8752L22.2536 10.24L20.5914 14.172L20.3729 14.6609H20.9212L21.1269 14.172L22.4121 10.8932L25.7451 12.2334L26.2292 12.4315C26.3689 12.3139 26.5196 12.2095 26.6791 12.1196L26.1693 11.8752ZM12.8414 42.4842L9.5084 41.144L10.875 37.8736L11.0764 37.4143C10.9867 37.3084 10.9077 37.194 10.8407 37.0729L10.6265 37.5786L8.96002 41.4222L12.94 43.0573L13.4412 43.268V42.7286L12.8414 42.4842ZM49.9674 21.6525L49.4662 21.4418C49.4531 21.6253 49.4809 21.8094 49.5476 21.9812L50.0317 22.1751L53.3647 23.5321L51.9981 26.8151L51.801 27.2914C51.9203 27.4325 52.025 27.585 52.1138 27.7465L52.3494 27.2071L54.0159 23.3636L49.9674 21.6525ZM42.0033 50.1333L41.8191 50.6095L40.4053 53.8798L37.0851 52.5228L36.601 52.3247L36.1726 52.6366L36.7081 52.8473L40.6409 54.4825L42.3074 50.5589L42.5217 50.07L42.0033 50.1333Z" fill="#BD8F17"/>
<path d="M42.4178 14.1718L40.7512 10.2482L36.8185 11.8833L36.2829 12.0941L36.7114 12.4059L37.1955 12.2121L40.5285 10.8677L41.9294 14.138L42.1179 14.5932H42.6834L42.4178 14.1718ZM52.3997 37.511L52.0698 37.0558C51.9832 37.2093 51.8766 37.3509 51.7528 37.4773L51.9499 37.9535L53.3165 41.2238L49.9835 42.5809L49.4865 42.7747C49.5004 42.9586 49.4711 43.1432 49.4008 43.3142L49.9192 43.1035L53.9034 41.4683L52.3997 37.511ZM25.7526 52.4552L22.411 53.7869L21.0316 50.5165L20.8945 50.1246L20.3461 50.0445L20.5646 50.5334L22.2311 54.457L26.1468 52.826L26.6609 52.6111C26.5013 52.5212 26.3507 52.4168 26.211 52.2992L25.7526 52.4552ZM12.956 21.6523L8.97614 23.2875L10.6427 27.1478L10.844 27.6578C10.9336 27.5104 11.0338 27.3696 11.1439 27.2363L10.9425 26.777L9.57589 23.5066L12.9218 22.1791L13.4059 21.9852V21.4247L12.956 21.6523Z" fill="#BD8F17"/>
<path d="M13.475 39.4925L13.6249 39.5725V39.7369C13.4766 40.3034 13.3919 40.8843 13.3722 41.469L12.9438 41.2878L11.1144 40.5376L11.847 38.8224L12.0441 38.363C12.479 38.7969 12.9669 39.1763 13.4964 39.4925H13.475Z" fill="#BD8F17"/>
<path d="M24.8527 13.0344L25.3196 13.2325C24.8791 13.6702 24.4936 14.1583 24.1715 14.6865L24.0858 14.834H23.9059C23.3269 14.6896 22.7336 14.6077 22.1366 14.5896L22.3208 14.1681L23.0877 12.3685L24.8527 13.0344Z" fill="#BD8F17"/>
<path d="M39.0848 49.8555C39.6285 50.0071 40.1872 50.1003 40.7513 50.1337L40.5671 50.555L39.8002 52.3544L38.0352 51.6338L37.5854 51.44C38.0229 51.0024 38.4029 50.5126 38.7164 49.982L38.8192 49.8345L39.0848 49.8555Z" fill="#BD8F17"/>
<path d="M51.8658 24.1227L51.1161 25.8548L50.9148 26.3141C50.4592 25.8839 49.9563 25.5051 49.4153 25.1847L49.2654 25.1046V24.9403C49.4136 24.368 49.4983 23.7816 49.5182 23.1914L49.968 23.3684L51.8658 24.1227Z" fill="#BD8F17"/>
<path d="M13.5906 24.9403V25.1046L13.4406 25.1847C12.9085 25.5102 12.4118 25.8887 11.9583 26.3141L11.757 25.8548L11.0244 24.1227L12.858 23.3684L13.2864 23.1914C13.3164 23.7827 13.4112 24.369 13.5691 24.9403H13.5906Z" fill="#BD8F17"/>
<path d="M24.1715 49.9948C24.4936 50.5229 24.8791 51.011 25.3196 51.4487L24.8527 51.6425L23.0877 52.3632L22.3208 50.5637L22.1366 50.1423C22.7338 50.1263 23.3273 50.0443 23.9059 49.8978H24.0858L24.1715 49.9948Z" fill="#BD8F17"/>
<path d="M40.585 14.1722L40.7692 14.6147C40.2027 14.622 39.6385 14.687 39.0856 14.8085H38.9186L38.82 14.661C38.5024 14.1333 38.1213 13.6451 37.6848 13.2072L38.1346 13.0133L39.8996 12.2927L40.585 14.1722Z" fill="#BD8F17"/>
<path d="M51.8654 40.5373L50.0318 41.2875L49.5648 41.4856C49.561 40.8955 49.4833 40.308 49.3335 39.7365V39.5722L49.4834 39.4921C50.0239 39.1643 50.5266 38.78 50.9829 38.3457L51.1842 38.8051L51.8654 40.5373Z" fill="#BD8F17"/>
<path d="M25.3219 51.4281C24.8813 50.9904 24.4958 50.5023 24.1737 49.9741L24.088 49.8266H23.9081C23.3291 49.971 22.7358 50.053 22.1388 50.0711C21.7279 50.0963 21.3158 50.0963 20.905 50.0711L21.1063 50.5431C21.5108 50.5852 21.9186 50.5852 22.323 50.5431C22.84 50.5356 23.3545 50.4705 23.8567 50.3492C24.1481 50.8007 24.4823 51.2241 24.8549 51.6135C25.13 51.919 25.4309 52.201 25.7546 52.4564L26.2387 52.2625C25.9096 52.0074 25.6029 51.7254 25.3219 51.4197V51.4281ZM13.6605 24.9407C13.5132 24.3685 13.4313 23.7819 13.4164 23.1918C13.3906 22.789 13.3906 22.385 13.4164 21.9822L12.9322 22.1761C12.8937 22.5728 12.8937 22.9721 12.9322 23.3688C12.9497 23.8755 13.0171 24.3794 13.1336 24.8733C12.6713 25.1553 12.2406 25.4845 11.8484 25.8553C11.5447 26.1308 11.2652 26.4311 11.013 26.7529L11.2143 27.2123C11.465 26.8905 11.7431 26.5902 12.0454 26.3146C12.4995 25.8881 12.9978 25.5096 13.532 25.1852L13.682 25.1051L13.6605 24.9407ZM40.7532 50.1343C40.1891 50.1009 39.6304 50.0077 39.0867 49.8561H38.9196L38.8211 50.0036C38.5046 50.5335 38.1234 51.0232 37.6858 51.4618C37.3957 51.7647 37.0836 52.0464 36.7518 52.3047L37.236 52.5028C37.5606 52.2485 37.8616 51.9664 38.1356 51.6599C38.5082 51.2693 38.8437 50.8461 39.1381 50.3956C39.6402 50.5099 40.1524 50.5762 40.6675 50.5936C41.0777 50.6358 41.4912 50.6358 41.9013 50.5936L42.0856 50.1216C41.6426 50.1609 41.1975 50.1708 40.7532 50.1511V50.1343ZM40.7532 50.1343C40.1891 50.1009 39.6304 50.0077 39.0867 49.8561H38.9196L38.8211 50.0036C38.5046 50.5335 38.1234 51.0232 37.6858 51.4618C37.3957 51.7647 37.0836 52.0464 36.7518 52.3047L37.236 52.5028C37.5606 52.2485 37.8616 51.9664 38.1356 51.6599C38.5082 51.2693 38.8437 50.8461 39.1381 50.3956C39.6402 50.5099 40.1524 50.5762 40.6675 50.5936C41.0777 50.6358 41.4912 50.6358 41.9013 50.5936L42.0856 50.1216C41.6426 50.1609 41.1975 50.1708 40.7532 50.1511V50.1343ZM25.7589 12.2049C25.4341 12.459 25.133 12.741 24.8592 13.0478C24.4877 13.4382 24.1536 13.8614 23.861 14.3121C23.357 14.2064 22.8425 14.1569 22.3273 14.1646C21.9282 14.1264 21.5262 14.1292 21.1277 14.173L20.9264 14.6492C21.3373 14.6239 21.7493 14.6239 22.1602 14.6492C22.7574 14.6652 23.3509 14.7472 23.9295 14.8937H24.1095L24.1951 14.7462C24.5151 14.2166 24.9008 13.7282 25.3433 13.2922C25.6243 12.9865 25.931 12.7045 26.2601 12.4493L25.7589 12.2049ZM13.6306 39.573L13.4806 39.493C12.9409 39.1783 12.443 38.7989 11.9983 38.3635C11.6904 38.0922 11.4105 37.7915 11.1629 37.4659L10.9616 37.921C11.2253 38.2411 11.5116 38.5425 11.8184 38.8229C12.2173 39.1847 12.6473 39.5119 13.1036 39.8006C12.9891 40.2891 12.9231 40.7873 12.9065 41.2883C12.8637 41.6861 12.8637 42.0873 12.9065 42.4852L13.3864 42.679C13.3607 42.2763 13.3607 41.8723 13.3864 41.4695C13.406 40.8848 13.4908 40.304 13.6391 39.7374L13.6306 39.573ZM41.82 14.173C41.4098 14.1309 40.9963 14.1309 40.5861 14.173C40.0696 14.1904 39.556 14.2568 39.0524 14.3711C38.7609 13.9197 38.4267 13.4964 38.0542 13.1068C37.7792 12.8012 37.4782 12.5193 37.1546 12.2639L36.6705 12.462C37.0011 12.7215 37.3131 13.0031 37.6044 13.3048C38.0428 13.7401 38.4229 14.2287 38.7354 14.7588L38.8339 14.9063H39.001C39.5711 14.7339 40.1587 14.6237 40.7532 14.5776C41.1641 14.5523 41.5762 14.5523 41.987 14.5776L41.82 14.173ZM25.3219 51.4829C24.8794 51.0469 24.4937 50.5585 24.1737 50.0289L24.088 49.8351H23.9081C23.3291 49.9795 22.7358 50.0614 22.1388 50.0795C21.7279 50.1048 21.3158 50.1048 20.905 50.0795L21.1063 50.5515C21.5108 50.5936 21.9186 50.5936 22.323 50.5515C22.84 50.544 23.3545 50.479 23.8567 50.3576C24.1481 50.8092 24.4823 51.2325 24.8549 51.6219C25.13 51.9275 25.4309 52.2094 25.7546 52.4648L26.2387 52.271C25.9096 52.0158 25.6029 51.7338 25.3219 51.4281V51.4829ZM13.6605 24.9871C13.51 24.4153 13.4252 23.8286 13.4078 23.2381C13.3821 22.8354 13.3821 22.4314 13.4078 22.0286L12.9237 22.2267C12.8851 22.6233 12.8851 23.0227 12.9237 23.4193C12.9414 23.9261 13.0088 24.4299 13.125 24.9239C12.6618 25.2045 12.2309 25.5338 11.8398 25.9058C11.5311 26.1848 11.2473 26.4894 10.9916 26.8161L11.1929 27.2755C11.4436 26.9524 11.7216 26.6507 12.024 26.3736C12.4782 25.9485 12.9764 25.5713 13.5106 25.2484L13.6605 25.1641V24.9871ZM52.4017 27.1786C52.2817 27.0479 52.1832 26.9173 52.0504 26.7866C51.7933 26.4741 51.5142 26.1797 51.215 25.9058C50.8159 25.5429 50.3859 25.2144 49.9298 24.9239C50.0542 24.4314 50.1218 23.9267 50.1311 23.4193C50.1739 23.0229 50.1739 22.6231 50.1311 22.2267V21.7041C49.8562 19.7934 48.9539 18.0235 47.5618 16.6639C46.1697 15.3043 44.364 14.4296 42.4197 14.173H41.8842C41.4741 14.1309 41.0606 14.1309 40.6504 14.173C40.1353 14.1904 39.6231 14.2568 39.121 14.3711C38.8279 13.9196 38.4923 13.4963 38.1185 13.1068C37.8445 12.8002 37.5434 12.5182 37.2188 12.2639C37.095 12.1455 36.9618 12.037 36.8204 11.9394C35.2745 10.8561 33.4189 10.2835 31.521 10.3042C29.627 10.2743 27.774 10.8479 26.2387 11.9394C26.0973 12.037 25.9641 12.1455 25.8403 12.2639C25.5156 12.5182 25.2146 12.8002 24.9406 13.1068C24.5655 13.4952 24.2298 13.9186 23.9381 14.3711C23.4096 14.2422 22.8674 14.1757 22.323 14.173C21.9256 14.1323 21.5251 14.1323 21.1277 14.173H20.5965C18.6748 14.4373 16.8926 15.309 15.5186 16.6569C14.1446 18.0047 13.2534 19.7554 12.9794 21.6451C12.9794 21.8179 12.9794 21.9949 12.9794 22.1677C12.9365 22.5641 12.9365 22.9639 12.9794 23.3603C12.9968 23.8671 13.0642 24.371 13.1807 24.8649C12.7193 25.1481 12.2887 25.4772 11.8955 25.8468C11.5943 26.125 11.3163 26.4266 11.0644 26.7487C10.9439 26.8716 10.8322 27.0025 10.7302 27.1406C9.60601 28.6419 8.99957 30.4576 8.99957 32.3222C8.99957 34.1868 9.60601 36.0025 10.7302 37.5038C10.8322 37.6419 10.9439 37.7729 11.0644 37.8957C11.3209 38.214 11.5986 38.5153 11.8955 38.7976C12.2955 39.1594 12.7254 39.4878 13.1807 39.7796C13.0645 40.2678 12.9971 40.7661 12.9794 41.2672C12.9365 41.6637 12.9365 42.0635 12.9794 42.4599C12.9622 42.6337 12.9622 42.8087 12.9794 42.9825C13.2534 44.8721 14.1446 46.6229 15.5186 47.9707C16.8926 49.3185 18.6748 50.1903 20.5965 50.4546H21.1277C21.5322 50.4967 21.94 50.4967 22.3444 50.4546C22.8613 50.4451 23.3756 50.3801 23.8781 50.2607C24.1706 50.7115 24.5047 51.1347 24.8763 51.525C25.1514 51.8305 25.4524 52.1125 25.776 52.3679C25.9023 52.4865 26.0369 52.5963 26.1787 52.6966C27.7155 53.7851 29.5675 54.3584 31.461 54.3318C33.3571 54.3493 35.2104 53.777 36.7561 52.6966C36.8979 52.5963 37.0325 52.4865 37.1588 52.3679C37.4825 52.1125 37.7835 51.8305 38.0585 51.525C38.4301 51.1347 38.7643 50.7115 39.0567 50.2607C39.5608 50.3716 40.0742 50.4365 40.5904 50.4546C41.0006 50.4967 41.4141 50.4967 41.8242 50.4546H42.3555C44.2739 50.1825 46.0518 49.3082 47.4243 47.9618C48.7968 46.6154 49.6906 44.869 49.9726 42.9825V42.4515C50.0154 42.055 50.0154 41.6552 49.9726 41.2588C49.9549 40.7576 49.8874 40.2594 49.7712 39.7711C50.2339 39.4832 50.6647 39.1485 51.0565 38.7723C51.3567 38.498 51.636 38.2022 51.8919 37.8873C52.0223 37.7688 52.14 37.6375 52.2432 37.4954C53.3419 35.9784 53.9225 34.1573 53.9011 32.2948C53.9229 30.4535 53.3696 28.65 52.316 27.128L52.4017 27.1786ZM52.1661 36.9896C52.081 37.1441 51.9743 37.2859 51.8491 37.4111C51.5995 37.7339 51.3214 38.0342 51.0179 38.3087C50.5617 38.743 50.0589 39.1273 49.5185 39.455L49.3685 39.5351V39.6995C49.5181 40.271 49.5958 40.8583 49.5999 41.4484C49.6427 41.8449 49.6427 42.2447 49.5999 42.6411C49.613 42.8246 49.5852 43.0087 49.5185 43.1806C49.216 44.875 48.3919 46.4373 47.1576 47.6561C45.9232 48.8749 44.3382 49.6914 42.6168 49.9952L42.0513 50.0753C41.6251 50.1288 41.1958 50.1556 40.7661 50.1553C40.202 50.122 39.6432 50.0287 39.0996 49.8772H38.9325L38.8339 50.0247C38.5175 50.5546 38.1362 51.0443 37.6986 51.4829C37.4086 51.7858 37.0965 52.0675 36.7647 52.3257L36.3149 52.6376C34.9061 53.5695 33.2487 54.071 31.551 54.0789C29.8507 54.0882 28.1882 53.5852 26.787 52.6376C26.6336 52.5485 26.4901 52.444 26.3586 52.3257C26.0285 52.0718 25.7217 51.7898 25.4418 51.4829C24.9836 51.0386 24.5848 50.5387 24.2551 49.9952L24.088 49.8182H23.9081C23.3291 49.9626 22.7358 50.0446 22.1388 50.0626C21.7279 50.0879 21.3158 50.0879 20.905 50.0626L20.3566 49.9783C18.6408 49.6806 17.0592 48.8719 15.8257 47.6615C14.5921 46.451 13.7661 44.8972 13.4592 43.2101V42.6706C13.4335 42.2678 13.4335 41.8639 13.4592 41.4611C13.4775 40.8765 13.5608 40.2957 13.7077 39.729V39.5646L13.5577 39.4845C13.0188 39.1688 12.521 38.7895 12.0754 38.3551C11.7677 38.0848 11.4892 37.784 11.2443 37.4574C11.0913 37.3355 10.9558 37.1937 10.8416 37.036C9.8685 35.6639 9.34674 34.0311 9.34674 32.358C9.34674 30.685 9.8685 29.0522 10.8416 27.6801C10.9359 27.521 11.0419 27.3689 11.1586 27.2249C11.4108 26.9017 11.6903 26.6 11.994 26.3231C12.4458 25.897 12.9428 25.5197 13.4763 25.1978L13.6263 25.1135V24.9534C13.4781 24.3796 13.3933 23.7918 13.3735 23.2002C13.3478 22.7974 13.3478 22.3935 13.3735 21.9907V21.4723C13.6872 19.775 14.5196 18.2122 15.7597 16.9924C16.9876 15.7725 18.5724 14.9607 20.2923 14.6703H20.8407C21.2517 14.6492 21.6635 14.6492 22.0745 14.6703C22.6705 14.6877 23.2626 14.7711 23.8396 14.919H24.0238L24.1052 14.7714C24.4275 14.2461 24.8146 13.762 25.2576 13.3301C25.5383 13.0255 25.8434 12.7437 26.1701 12.4873C26.3107 12.37 26.4628 12.267 26.6242 12.1796C28.0304 11.2249 29.7011 10.7188 31.4096 10.7299C33.1077 10.7353 34.7658 11.237 36.1735 12.1712L36.6019 12.4788C36.9325 12.7384 37.2446 13.02 37.5358 13.3217C37.9804 13.7565 38.3689 14.2434 38.6926 14.7714L38.7911 14.919H38.9582C39.5472 14.7289 40.1568 14.6073 40.7746 14.5565C41.1855 14.5312 41.5976 14.5312 42.0085 14.5565H42.5483C44.2632 14.8621 45.8426 15.675 47.0757 16.8865C48.3089 18.0981 49.1371 19.6508 49.4499 21.3374C49.436 21.5213 49.4653 21.7059 49.5356 21.8769C49.557 22.2798 49.557 22.6835 49.5356 23.0864C49.5161 23.6781 49.4313 24.2659 49.2829 24.8396V24.9997L49.4328 25.084C49.9727 25.4044 50.4755 25.7817 50.9322 26.2093C51.236 26.4862 51.5155 26.7879 51.7677 27.1111C51.8883 27.2537 51.9945 27.4076 52.0847 27.5705C53.0509 28.9721 53.5674 30.6266 53.5674 32.3201C53.5674 34.0136 53.0509 35.6681 52.0847 37.0697L52.1661 36.9896ZM13.6091 24.9407C13.4603 24.3687 13.3769 23.7821 13.3607 23.1918C13.3349 22.789 13.3349 22.385 13.3607 21.9822L12.8594 22.1803C12.8166 22.5768 12.8166 22.9766 12.8594 23.373C12.8768 23.8797 12.9443 24.3836 13.0608 24.8775C12.5986 25.1597 12.1679 25.4889 11.7755 25.8595C11.4721 26.134 11.194 26.4344 10.9444 26.7571L11.1415 27.2165C11.4006 26.8938 11.6872 26.5935 11.9983 26.3188C12.4518 25.8934 12.9485 25.5149 13.4806 25.1894L13.6306 25.1093L13.6091 24.9407ZM25.2747 51.4281C24.8345 50.9979 24.449 50.5168 24.1266 49.9952V49.8477H23.9467C23.3677 49.9921 22.7744 50.0741 22.1773 50.0921C21.7665 50.1174 21.3544 50.1174 20.9435 50.0921L21.1449 50.5641C21.5493 50.6063 21.9571 50.6063 22.3616 50.5641C22.8786 50.5566 23.3931 50.4916 23.8953 50.3703C24.1866 50.8218 24.5209 51.2451 24.8935 51.6346C25.1685 51.9401 25.4695 52.2221 25.7931 52.4775L26.2772 52.2836C25.9482 52.0284 25.6415 51.7465 25.3604 51.4407L25.2747 51.4281ZM40.7703 50.1343C40.2063 50.1009 39.6475 50.0077 39.1038 49.8561H38.9368L38.8382 50.0036C38.5218 50.5335 38.1405 51.0232 37.7029 51.4618C37.4129 51.7647 37.1007 52.0464 36.769 52.3047L37.2531 52.5028C37.5777 52.2485 37.8788 51.9664 38.1528 51.6599C38.5253 51.2693 38.8608 50.8461 39.1553 50.3956C39.6574 50.5099 40.1696 50.5762 40.6847 50.5936C41.0948 50.6358 41.5083 50.6358 41.9185 50.5936L42.1027 50.1216C41.6598 50.1609 41.2146 50.1708 40.7703 50.1511V50.1343Z" fill="#BD8F17"/>
<path d="M31.4558 51.9327C30.4246 51.9307 29.409 51.6845 28.4948 51.2151C27.5806 50.7456 26.7947 50.0666 26.2035 49.2355C25.7369 48.6045 25.4033 47.888 25.2224 47.1283C24.4309 47.6104 23.5424 47.9177 22.6183 48.0287C21.6943 48.1397 20.7567 48.0519 19.8705 47.7713C18.9843 47.4908 18.1707 47.0242 17.4859 46.4038C16.8011 45.7834 16.2615 45.024 15.9045 44.1783C15.43 43.0478 15.3034 41.8051 15.5404 40.6045C15.6727 39.8246 15.9642 39.0791 16.3972 38.413C15.6088 38.2385 14.8661 37.904 14.2166 37.4311C13.3721 36.8549 12.6818 36.0865 12.2043 35.1913C11.7269 34.296 11.4766 33.3005 11.4747 32.2896C11.4752 31.2783 11.7248 30.2823 12.2024 29.3868C12.6799 28.4914 13.3711 27.7232 14.2166 27.148C14.8571 26.6874 15.5857 26.3591 16.3586 26.183C15.9492 25.5046 15.6771 24.7547 15.5575 23.9746C15.3773 22.9759 15.4464 21.9491 15.7588 20.9824C16.2295 19.5207 17.2243 18.277 18.5578 17.4831C19.8913 16.6891 21.4728 16.3991 23.0076 16.6669C23.7986 16.7938 24.5568 17.0716 25.2396 17.4845C25.4228 16.7256 25.7562 16.0096 26.2206 15.3774C26.814 14.5503 27.6006 13.8756 28.5142 13.4099C29.4278 12.9441 30.4418 12.701 31.4708 12.701C32.4998 12.701 33.5138 12.9441 34.4274 13.4099C35.341 13.8756 36.1276 14.5503 36.721 15.3774C37.2015 16.0024 37.5417 16.7206 37.7191 17.4845C38.7762 16.8374 40.0016 16.5062 41.2464 16.5313C42.4912 16.5564 43.7018 16.9367 44.731 17.6259C45.7602 18.3152 46.5637 19.2837 47.0438 20.4138C47.524 21.5438 47.66 22.7868 47.4355 23.9915C47.2818 24.7602 46.9918 25.4963 46.5787 26.1661C47.785 26.4367 48.8848 27.0477 49.7433 27.9242C50.6018 28.8007 51.1816 29.9045 51.4118 31.1004C51.6419 32.2963 51.5123 33.5323 51.0389 34.6568C50.5654 35.7813 49.7687 36.7455 48.7464 37.4311C48.0949 37.8854 47.358 38.2077 46.5787 38.3793C47.3442 39.5842 47.6705 41.0094 47.5039 42.4209C47.3373 43.8323 46.6878 45.1461 45.6619 46.1464C44.9191 46.862 44.0136 47.3932 43.0205 47.6959C42.0273 47.9986 40.9752 48.0641 39.9512 47.8869C39.172 47.7368 38.4235 47.4605 37.7363 47.0693C37.556 47.8331 37.2144 48.551 36.7338 49.1765C36.1477 50.0236 35.361 50.7179 34.4416 51.1995C33.5221 51.6811 32.4975 51.9356 31.4558 51.9411V51.9327ZM25.5566 46.3234V46.6858C25.687 47.5084 26.0177 48.2877 26.5205 48.9573C27.0679 49.7276 27.7961 50.3567 28.6433 50.791C29.4906 51.2253 30.4319 51.4521 31.3873 51.4521C32.3426 51.4521 33.2839 51.2253 34.1312 50.791C34.9784 50.3567 35.7066 49.7276 36.254 48.9573C36.7584 48.2868 37.0945 47.5085 37.235 46.6858V46.3402L37.5521 46.5383C38.2608 46.9963 39.0541 47.3128 39.8869 47.4697C40.8334 47.6263 41.8043 47.5598 42.7196 47.2755C43.6349 46.9912 44.4686 46.4974 45.1521 45.8345C46.1377 44.8679 46.7448 43.5899 46.8663 42.226C46.9878 40.8621 46.6159 39.4998 45.8161 38.3793L45.7518 38.0843H46.1331C47.2927 37.8862 48.3658 37.3521 49.215 36.5504C50.0641 35.7487 50.6508 34.716 50.8997 33.5844C51.1486 32.4528 51.0485 31.2738 50.6123 30.1985C50.176 29.1232 49.4234 28.2004 48.4508 27.5484C47.7593 27.0705 46.9671 26.7521 46.1331 26.617H45.7518L45.966 26.322C46.4549 25.604 46.7794 24.7902 46.9171 23.9367C47.0798 23.013 47.0132 22.0643 46.7231 21.1713C46.4329 20.2783 45.9278 19.4675 45.2506 18.8078C44.5694 18.139 43.7346 17.6413 42.8167 17.3567C41.8988 17.0721 40.9248 17.009 39.9769 17.1727C39.1429 17.3161 38.348 17.6274 37.642 18.0872L37.4107 18.3021V17.9397C37.2732 17.1206 36.9351 16.3467 36.4254 15.685C35.5785 14.5189 34.3336 13.6912 32.9179 13.3531C31.5022 13.015 30.0101 13.189 28.714 13.8433C27.8671 14.2759 27.1428 14.9088 26.6062 15.685C26.0904 16.3495 25.7517 17.1304 25.6208 17.9565V18.3148L25.321 18.104C24.6172 17.6282 23.8157 17.3102 22.9733 17.1727C22.0225 16.9938 21.0418 17.0458 20.116 17.3241C19.1903 17.6024 18.3476 18.0987 17.661 18.7699C16.9719 19.438 16.4613 20.2631 16.1744 21.1721C15.8881 22.0791 15.8308 23.041 16.0073 23.9746C16.1476 24.8027 16.4724 25.5899 16.9584 26.2799L17.1726 26.5749H16.8084C15.9696 26.7032 15.1746 27.0284 14.4908 27.5231C13.7044 28.0544 13.0612 28.7659 12.6169 29.5963C12.1725 30.4268 11.9403 31.3511 11.9403 32.2896C11.9403 33.228 12.1725 34.1523 12.6169 34.9828C13.0612 35.8132 13.7044 36.5248 14.4908 37.056C15.1744 37.5535 15.9691 37.8829 16.8084 38.0169H17.1726L16.9755 38.3287C16.4794 39.0151 16.1484 39.8033 16.0073 40.634C15.8443 41.5603 15.9107 42.5116 16.2008 43.4074C16.4909 44.3031 16.9962 45.1169 17.6738 45.7797C18.6572 46.752 19.9566 47.3535 21.345 47.4791C22.7334 47.6047 24.1225 47.2463 25.2695 46.4667L25.5566 46.3234Z" fill="#BD8F17"/>
<path d="M18.4584 31.3793L18.9854 32.8838H20.5876L19.3024 33.8151L19.7693 35.3196L18.4841 34.4388L17.1989 35.3196L17.6659 33.8151L16.3807 32.8838H17.9786L18.4584 31.3793Z" fill="#BD8F17"/>
<path d="M20.2921 24.4301L20.8062 25.9345H22.4127L21.1275 26.8827L21.5945 28.3872L20.3092 27.4896L19.024 28.3872L19.4909 26.8827L18.2057 25.9345H19.8037L20.2921 24.4301Z" fill="#BD8F17"/>
<path d="M25.1535 19.3817L25.6719 20.8863H27.2699L25.9847 21.8177L26.4516 23.3222L25.1664 22.4372L23.8811 23.3222L24.3481 21.8177L23.0629 20.8863H24.6651L25.1535 19.3817Z" fill="#BD8F17"/>
<path d="M31.4561 17.2863L31.9702 18.7908H33.5853L32.3 19.739L32.7284 21.2435L31.4432 20.3459L30.158 21.2435L30.6249 19.739L29.3397 18.7908H30.9377L31.4561 17.2863Z" fill="#BD8F17"/>
<path d="M44.9847 32.8838H46.5826L45.2974 33.8151L45.7644 35.3196L44.4792 34.4388L43.1939 35.3196L43.6609 33.8151L42.3757 32.8838H43.9779L44.492 31.3793L44.9847 32.8838Z" fill="#BD8F17"/>
<path d="M43.1518 25.9345H44.7498L43.4646 26.8827L43.9315 28.3872L42.6463 27.4896L41.3611 28.3872L41.8281 26.8827L40.5428 25.9345H42.1194L42.6335 24.4301L43.1518 25.9345Z" fill="#BD8F17"/>
<path d="M38.2851 20.8863H39.8874L38.6022 21.8177L39.0691 23.3222L37.7839 22.4372L36.4986 23.3222L36.9656 21.8177L35.6804 20.8863H37.2784L37.7967 19.3817L38.2851 20.8863Z" fill="#BD8F17"/>
<path d="M44.7314 36.3867L43.5018 37.3012C42.9575 37.6852 42.3038 37.8902 41.634 37.887C40.7519 37.8881 39.9054 37.5448 39.2805 36.9324C38.6555 36.32 38.3032 35.4886 38.301 34.6209V33.0826L37.4699 34.4017C37.1356 34.9713 36.6188 35.416 36.0004 35.666L35.3835 35.8473C35.2124 35.8599 35.0405 35.8599 34.8694 35.8473C34.2376 35.8283 33.6271 35.6179 33.1215 35.2446C32.6081 34.8877 32.2203 34.3825 32.0119 33.7991C31.9101 33.5281 31.848 33.2443 31.8277 32.9562V32.6106H31.1122V32.9562C31.0919 33.2443 31.0298 33.5281 30.928 33.7991C30.7184 34.3824 30.3303 34.8875 29.8172 35.2452C29.304 35.6029 28.6909 35.7955 28.062 35.7967C27.8896 35.8135 27.7159 35.8135 27.5436 35.7967L26.9138 35.6155C26.3028 35.3607 25.7929 34.9168 25.4615 34.3511L24.6304 33.0447V34.5829C24.6281 35.4507 24.2758 36.2821 23.6509 36.8945C23.026 37.5069 22.1795 37.8502 21.2974 37.8491C20.6276 37.8523 19.9738 37.6473 19.4295 37.2633L18.1957 36.3488L18.9625 37.8659L19.8794 39.6655C20.8304 41.562 21.3145 42.4765 21.5458 42.9359L21.6958 43.1803L21.8286 43.3952L22.2142 43.2814H22.4284C28.3633 41.9047 34.5424 41.9047 40.4773 43.2814H40.76L41.1413 43.3952L41.2741 43.1803L41.4241 42.9359L43.0906 39.6655L44.0074 37.8659L44.7314 36.3867ZM40.7515 42.6156C37.704 41.9401 34.5916 41.5883 31.4678 41.5662C28.3455 41.5883 25.2345 41.9401 22.1885 42.6156C22.0899 42.4344 21.9229 42.1225 21.7386 41.7474L20.0721 38.3759C20.6158 38.5548 21.1926 38.6155 21.7625 38.5539C22.3324 38.4922 22.8819 38.3097 23.3731 38.0188C23.8643 37.7279 24.2855 37.3356 24.6076 36.869C24.9297 36.4024 25.145 35.8727 25.2387 35.3162C25.5922 35.716 26.0311 36.034 26.524 36.2476C27.2506 36.5764 28.0633 36.6747 28.8493 36.529C29.6353 36.3833 30.3558 36.0007 30.9109 35.4342C31.1327 35.1789 31.3186 34.8954 31.4635 34.5914C31.61 34.8975 31.8004 35.1814 32.029 35.4342C32.3812 35.8372 32.8171 36.161 33.3074 36.384C33.7978 36.6069 34.331 36.7237 34.8711 36.7265C35.4113 36.7293 35.9457 36.618 36.4384 36.4002C36.9311 36.1823 37.3705 35.863 37.7269 35.4637C37.8817 36.376 38.3599 37.2049 39.0766 37.8035C39.7934 38.4021 40.7024 38.7318 41.6426 38.7341C42.0627 38.7295 42.4793 38.6584 42.8764 38.5234H42.9578L41.2913 41.8949C41.0793 42.1103 40.8978 42.3527 40.7515 42.6156Z" fill="#BD8F17"/>
<path d="M32.0226 29.5927V35.4211C31.7953 35.1844 31.6047 34.916 31.4571 34.6246C31.3059 34.9108 31.1203 35.1782 30.9044 35.4211V29.5759H31.4571L31.9883 29.4579L32.0226 29.5927Z" fill="#BD8F17"/>
<path d="M31.4547 40.3256C30.895 40.3267 30.357 40.112 29.9563 39.7276C29.7611 39.5355 29.6055 39.3081 29.4981 39.0579C29.3927 38.8069 29.3388 38.5378 29.3397 38.2661C29.6158 38.2618 29.8897 38.3134 30.1446 38.4177C30.3999 38.513 30.634 38.656 30.8339 38.8389C31.0286 39.033 31.1841 39.2616 31.292 39.5128C31.3996 39.7633 31.455 40.0326 31.4547 40.3046V40.3256Z" fill="#BD8F17"/>
<path d="M33.5498 38.1941C33.5616 38.4725 33.5165 38.7504 33.4171 39.0113C33.3144 39.2716 33.1601 39.5093 32.9632 39.7105C32.7632 39.9089 32.5263 40.0676 32.2654 40.178C32.0031 40.2835 31.7225 40.3379 31.4391 40.3381C31.4211 39.9178 31.5347 39.5023 31.7643 39.1475C31.994 38.7927 32.3288 38.5158 32.7235 38.3542C32.9858 38.2487 33.2664 38.1943 33.5498 38.1941Z" fill="#BD8F17"/>
<path d="M31.4562 37.3175C31.6514 37.5097 31.8071 37.7372 31.9146 37.9876C32.0222 38.2383 32.0776 38.5077 32.0774 38.7799C32.0768 39.052 32.0215 39.3213 31.9146 39.5722C31.8071 39.8225 31.6514 40.0501 31.4562 40.2423C31.2578 40.0517 31.1004 39.8239 30.9935 39.5722C30.8866 39.3213 30.8313 39.052 30.8307 38.7799C30.8311 38.5075 30.8866 38.2379 30.994 37.9868C31.1013 37.7358 31.2585 37.5082 31.4562 37.3175Z" fill="#BD8F17"/>
<path d="M26.0874 40.7483C25.8162 40.8148 25.5342 40.8279 25.2578 40.7867C24.9814 40.7456 24.7161 40.6509 24.4771 40.5083C24.2381 40.3657 24.0302 40.1779 23.8654 39.9559C23.7006 39.7338 23.5821 39.4818 23.5169 39.2144C23.7881 39.1478 24.07 39.1348 24.3464 39.1759C24.6228 39.2171 24.8882 39.3118 25.1272 39.4544C25.3662 39.597 25.5741 39.7847 25.7389 40.0068C25.9037 40.2289 26.0221 40.4809 26.0874 40.7483Z" fill="#BD8F17"/>
<path d="M27.6555 38.2494C27.7842 38.7853 27.6913 39.3496 27.3973 39.8182C27.1033 40.2868 26.6322 40.6215 26.0876 40.7486C25.9589 40.2126 26.0518 39.6484 26.3458 39.1798C26.6398 38.7111 27.1109 38.3765 27.6555 38.2494Z" fill="#BD8F17"/>
<path d="M25.4119 37.887C25.8843 38.1812 26.221 38.6456 26.3501 39.1807C26.4755 39.7163 26.3833 40.2788 26.0931 40.7484C25.8565 40.6056 25.6512 40.4179 25.489 40.1964C25.3273 39.9747 25.2109 39.7242 25.1463 39.4589C25.0222 38.9209 25.1176 38.3565 25.4119 37.887Z" fill="#BD8F17"/>
<path d="M36.8366 40.7484C37.384 40.8759 37.9604 40.7865 38.4414 40.4995C38.9223 40.2125 39.2692 39.7509 39.407 39.2144C39.1358 39.1478 38.8539 39.1348 38.5775 39.1759C38.3011 39.2171 38.0358 39.3118 37.7968 39.4544C37.5578 39.597 37.3499 39.7848 37.1851 40.0069C37.0203 40.229 36.9018 40.481 36.8366 40.7484Z" fill="#BD8F17"/>
<path d="M35.2649 38.2494C35.2004 38.5144 35.1887 38.7892 35.2306 39.0586C35.2724 39.3288 35.3685 39.5881 35.5134 39.8214C35.6602 40.0542 35.8524 40.2562 36.0789 40.4156C36.3044 40.5762 36.561 40.6895 36.8328 40.7486C36.9615 40.2126 36.8686 39.6484 36.5746 39.1798C36.2806 38.7111 35.8095 38.3765 35.2649 38.2494Z" fill="#BD8F17"/>
<path d="M37.5172 37.887C37.2814 38.0326 37.0764 38.2215 36.9131 38.4432C36.7503 38.6643 36.6338 38.915 36.5704 39.1807C36.5087 39.4463 36.5 39.7211 36.5447 39.9899C36.5894 40.2593 36.6885 40.5172 36.836 40.7484C37.306 40.4527 37.6402 39.9882 37.7674 39.4538C37.8946 38.9194 37.8049 38.3572 37.5172 37.887Z" fill="#BD8F17"/>
<path d="M32.6674 12.2344L32.8044 11.2055C32.4355 11.2048 32.0673 11.1724 31.7041 11.1085V12.1374C32.0272 12.1463 32.3492 12.1787 32.6674 12.2344Z" fill="#BD8F17"/>
<path d="M38.5326 15.0153L37.8005 16.8598C37.6839 16.4578 37.5231 16.0695 37.321 15.7017L38.2629 14.5941C38.3647 14.7192 38.4591 14.8499 38.5455 14.9858L38.5326 15.0153Z" fill="#BD8F17"/>
<path d="M33.8672 12.5282L34.2183 11.53C33.8966 11.4208 33.5693 11.328 33.2379 11.2521L33.1223 12.2671L33.8672 12.5282Z" fill="#BD8F17"/>
<path d="M35.0543 13.1639L35.5852 12.2036C35.2997 12.0468 35.0052 11.9061 34.7032 11.7825L34.3179 12.7933C34.5718 12.908 34.8178 13.0388 35.0543 13.185V13.1639Z" fill="#BD8F17"/>
<path d="M36.1505 14.0659C36.3346 13.8511 36.7028 13.3794 36.8998 13.1014L36.553 12.8066C36.4155 12.7063 36.2726 12.6135 36.1248 12.5286H36.0221L35.4398 13.5268C35.6916 13.6885 35.9306 13.8687 36.1548 14.0659H36.1505Z" fill="#BD8F17"/>
<path d="M36.8718 14.9002C36.9326 14.989 36.987 15.0819 37.0345 15.1782L38.0021 14.1716C37.8146 13.978 37.6159 13.7952 37.407 13.6241L37.1886 13.4261L36.4222 14.4243C36.5737 14.5751 36.7167 14.734 36.8504 14.9002H36.8718Z" fill="#BD8F17"/>
<path d="M31.2028 12.1204V11.1085C30.8409 11.1221 30.4804 11.1601 30.1238 11.2224L30.2609 12.2511C30.5797 12.1964 30.9013 12.1584 31.2242 12.1373L31.2028 12.1204Z" fill="#BD8F17"/>
<path d="M25.1536 16.7286C25.2666 16.3499 25.4172 15.9831 25.6032 15.6335L24.6741 14.5552C24.5582 14.6848 24.4563 14.826 24.3701 14.9764L25.1065 16.8381L25.1536 16.7286Z" fill="#BD8F17"/>
<path d="M29.8008 12.3178L29.6681 11.3027C29.3353 11.3665 29.0076 11.4538 28.6876 11.5639L29.0858 12.5284C29.3196 12.4442 29.5584 12.3739 29.8008 12.3178Z" fill="#BD8F17"/>
<path d="M28.5853 12.7553L28.2043 11.7615C27.8995 11.8788 27.6046 12.0197 27.3223 12.1826L27.8532 13.1596C28.0887 13.0164 28.337 12.9069 28.5853 12.7553Z" fill="#BD8F17"/>
<path d="M27.4181 13.4425L26.8872 12.5286H26.7844C26.625 12.6184 26.4745 12.7228 26.3348 12.8402L26.0223 13.1351C26.2021 13.3962 26.5875 13.8679 26.7544 14.0996C26.9548 13.8611 27.1769 13.6411 27.4181 13.4425Z" fill="#BD8F17"/>
<path d="M26.0525 14.8835C26.1668 14.724 26.2897 14.5708 26.4207 14.4244L25.6544 13.4261L25.436 13.6241C25.2539 13.7935 25.0823 13.9735 24.9222 14.1632L25.8727 15.1278C25.8727 15.1278 25.9883 14.9804 26.0525 14.8835Z" fill="#BD8F17"/>
<path d="M30.2056 52.4097L30.0729 53.4383C30.4412 53.4959 30.8132 53.5282 31.1861 53.5352V52.5235C30.8567 52.511 30.5289 52.473 30.2056 52.4097Z" fill="#BD8F17"/>
<path d="M25.557 48.9579L24.6059 50.0368L24.3232 49.6154L25.0729 47.7357C25.1937 48.1576 25.3559 48.5669 25.557 48.9579Z" fill="#BD8F17"/>
<path d="M28.9889 52.0642L28.6379 53.0624C28.964 53.1805 29.299 53.2734 29.6398 53.3404L29.7725 52.3085C29.5068 52.2417 29.2452 52.1602 28.9889 52.0642Z" fill="#BD8F17"/>
<path d="M27.8053 51.444L27.2701 52.4211C27.55 52.5943 27.8452 52.7423 28.1521 52.8634L28.5374 51.8694C28.2844 51.7446 28.0398 51.6039 27.8053 51.4482V51.444Z" fill="#BD8F17"/>
<path d="M26.6959 50.5254L25.9466 51.4898C26.0793 51.6035 26.1949 51.7383 26.3277 51.8352C26.4663 51.9527 26.6169 52.0557 26.7772 52.1426L27.3766 51.1487C27.1365 50.9553 26.9091 50.7471 26.6959 50.5254Z" fill="#BD8F17"/>
<path d="M26.0358 49.7416C25.962 49.6326 25.8961 49.5186 25.8389 49.4004L24.8713 50.3776C25.0457 50.6079 25.2345 50.8274 25.4365 51.0347L25.6034 51.1653L26.3698 50.167L26.0358 49.7416Z" fill="#BD8F17"/>
<path d="M31.67 52.5235V53.5353C32.0448 53.5367 32.4188 53.5043 32.7875 53.4384L32.6676 52.4097C32.3379 52.4686 32.0047 52.5066 31.67 52.5235Z" fill="#BD8F17"/>
<path d="M37.4063 48.9908L38.3397 50.069C38.4382 49.9216 38.5366 49.791 38.6223 49.6478L37.8901 47.8031C37.7695 48.2152 37.6074 48.6145 37.4063 48.995V48.9908Z" fill="#BD8F17"/>
<path d="M33.0885 52.325L33.2212 53.3399C33.5605 53.2725 33.894 53.1795 34.2188 53.062L33.8677 52.0808C33.6138 52.1792 33.3535 52.2608 33.0885 52.325Z" fill="#BD8F17"/>
<path d="M34.3179 51.8825L34.7203 52.8809C35.0219 52.7564 35.3163 52.6157 35.6023 52.4596L35.0671 51.4823C34.8302 51.6438 34.5795 51.7847 34.3179 51.9036V51.8825Z" fill="#BD8F17"/>
<path d="M35.4538 51.195L36.0532 52.1932C36.2031 52.0991 36.3461 51.995 36.4813 51.8815L36.8495 51.5741L36.1217 50.6096C35.9094 50.8159 35.6865 51.0113 35.4538 51.195Z" fill="#BD8F17"/>
<path d="M36.8714 49.7581L36.5032 50.2004L37.2866 51.1944C37.3429 51.1356 37.4046 51.082 37.4708 51.0343C37.6671 50.8326 37.8501 50.6188 38.0187 50.3941L37.0683 49.4338C37.0084 49.5452 36.9426 49.6534 36.8714 49.7581Z" fill="#BD8F17"/>
<path d="M10.9907 31.0719L9.94169 30.9412C9.88516 31.2986 9.85225 31.6592 9.8432 32.0208H10.8751C10.8877 31.702 10.9264 31.3846 10.9907 31.0719Z" fill="#BD8F17"/>
<path d="M15.2576 26.2465L15.7588 26.0357L13.891 25.3318C13.741 25.4119 13.6254 25.5425 13.4626 25.6437L14.5465 26.5584C14.7716 26.4299 15.01 26.3254 15.2576 26.2465Z" fill="#BD8F17"/>
<path d="M11.3417 29.8913L10.3441 29.5498C10.2249 29.8655 10.1248 30.188 10.0444 30.5154L11.0934 30.6461C11.1613 30.39 11.2442 30.138 11.3417 29.8913Z" fill="#BD8F17"/>
<path d="M11.9746 28.7324L10.9899 28.2269C10.8128 28.4957 10.6568 28.7773 10.5232 29.0693L11.5422 29.4484C11.6674 29.1987 11.8105 28.958 11.9703 28.7282L11.9746 28.7324Z" fill="#BD8F17"/>
<path d="M12.8918 27.6582L11.9242 26.9213C11.8086 27.0518 11.6759 27.1655 11.5731 27.2961C11.4573 27.4287 11.3514 27.5695 11.2563 27.7172L12.2753 28.3067C12.4556 28.0686 12.6624 27.8511 12.8918 27.6582Z" fill="#BD8F17"/>
<path d="M13.6896 27.0132L14.092 26.8194L13.1415 25.9053C12.9 26.0676 12.6671 26.2419 12.4437 26.4276L12.2938 26.5919L13.3085 27.3418L13.6896 27.0132Z" fill="#BD8F17"/>
<path d="M10.8447 32.5098H9.81287C9.82216 32.8712 9.85504 33.2317 9.91133 33.589L10.9603 33.4752C10.8962 33.1568 10.8576 32.834 10.8447 32.5098Z" fill="#BD8F17"/>
<path d="M14.422 38.051L13.3082 38.9824L13.7366 39.2606L15.6516 38.5273C15.2253 38.4131 14.813 38.2534 14.422 38.051Z" fill="#BD8F17"/>
<path d="M11.0578 33.8831L10.026 34.0305C10.0868 34.3588 10.1756 34.6815 10.2914 34.9951L11.3061 34.6497C11.206 34.3999 11.1231 34.1438 11.0578 33.8831Z" fill="#BD8F17"/>
<path d="M11.5082 35.093L10.4935 35.4219C10.627 35.7235 10.777 36.0176 10.943 36.3031L11.9063 35.7803C11.7563 35.5614 11.6232 35.3316 11.5082 35.093Z" fill="#BD8F17"/>
<path d="M12.1905 36.2046L11.1929 36.7774C11.1972 36.8208 11.1972 36.8645 11.1929 36.9079C11.278 37.0622 11.3846 37.2039 11.5097 37.3291C11.5097 37.447 11.6938 37.5271 11.7751 37.6239L12.7599 36.9079C12.5534 36.6811 12.3631 36.4405 12.1905 36.1877V36.2046Z" fill="#BD8F17"/>
<path d="M13.6888 37.6251C13.5158 37.51 13.35 37.3848 13.1921 37.2502L12.1732 38.0042C12.2588 38.0042 12.3102 38.1643 12.3915 38.2317C12.4729 38.2991 12.7726 38.5729 12.9738 38.7372L13.9713 37.7726C13.8729 37.7262 13.7744 37.6925 13.6888 37.6251Z" fill="#BD8F17"/>
<path d="M52.05 32.5432C52.0327 32.8663 51.9984 33.1883 51.9473 33.508L53.0005 33.6217C53.0262 33.2627 53.0262 32.9023 53.0005 32.5432H52.05Z" fill="#BD8F17"/>
<path d="M47.2169 38.5442L49.149 39.2775L49.5474 38.9994L48.4507 38.068C48.0563 38.2661 47.643 38.4256 47.2169 38.5442Z" fill="#BD8F17"/>
<path d="M51.6007 34.6838L52.6154 35.0295C52.7305 34.7083 52.8249 34.3802 52.898 34.0472L51.8662 33.9165C51.7951 34.1778 51.7064 34.4341 51.6007 34.6838Z" fill="#BD8F17"/>
<path d="M50.9826 35.8593L51.9716 36.3857C52.1345 36.1065 52.2775 35.8167 52.3998 35.5181L51.3851 35.1265C51.2689 35.3848 51.1254 35.6305 50.9569 35.8593H50.9826Z" fill="#BD8F17"/>
<path d="M50.066 36.954L51.0336 37.6743C51.1321 37.5606 51.2477 37.4637 51.3504 37.3331C51.4626 37.2025 51.5616 37.0615 51.6458 36.9119V36.8108L50.7467 36.2422C50.5379 36.4969 50.3103 36.7362 50.066 36.9582V36.954Z" fill="#BD8F17"/>
<path d="M49.2176 37.6423L48.9178 37.8066L49.8983 38.7542L50.5321 38.2151L50.699 38.0172L49.6971 37.2675L49.2176 37.6423Z" fill="#BD8F17"/>
<path d="M52.0494 32.0496H53.0813C53.098 31.6871 53.0649 31.324 52.9828 30.9702L51.9338 31.0883C51.9979 31.4052 52.0366 31.7267 52.0494 32.0496Z" fill="#BD8F17"/>
<path d="M47.4194 26.1664C47.7548 26.2759 48.0825 26.4068 48.4004 26.5584L49.4672 25.6437C49.3311 25.531 49.1881 25.4268 49.0388 25.3318L47.1538 26.0526L47.4194 26.1664Z" fill="#BD8F17"/>
<path d="M51.8477 30.6797L52.8795 30.5321C52.7991 30.2048 52.699 29.8824 52.5798 29.5668L51.5823 29.9082C51.6807 30.1527 51.7664 30.4141 51.8477 30.6797Z" fill="#BD8F17"/>
<path d="M51.3813 29.4653L52.4003 29.0904C52.2659 28.7951 52.1158 28.5068 51.9508 28.2269L50.9832 28.7492C51.1159 28.9767 51.2486 29.221 51.3813 29.4653Z" fill="#BD8F17"/>
<path d="M50.747 28.3695L51.7488 27.8009C51.658 27.6424 51.558 27.4891 51.4492 27.3419L51.1152 26.9839L50.1519 27.6999C50.3748 27.9057 50.5796 28.1297 50.7641 28.3695H50.747Z" fill="#BD8F17"/>
<path d="M49.2161 27.0005L49.6443 27.3418L50.6846 26.5919L50.5519 26.4276C50.3336 26.2296 50.0853 26.0822 49.8541 25.9053L48.8651 26.8152L49.2161 27.0005Z" fill="#BD8F17"/>
<path d="M17.874 17.2528L17.2061 16.4104C16.9063 16.6252 16.6409 16.8695 16.3497 17.1138L17.099 17.8341C17.3402 17.6201 17.5963 17.4231 17.8654 17.2444L17.874 17.2528Z" fill="#BD8F17"/>
<path d="M24.5533 16.8424L24.8188 16.9435L24.0866 15.1453L23.5729 15.0485L23.6713 16.4508C23.971 16.5687 24.2665 16.6993 24.5533 16.8424Z" fill="#BD8F17"/>
<path d="M18.9539 16.6667L18.4873 15.7023C18.1777 15.8469 17.8774 16.01 17.5882 16.1908L18.239 17.0331C18.465 16.8914 18.7044 16.7715 18.9539 16.6751V16.6667Z" fill="#BD8F17"/>
<path d="M20.2211 16.2786L19.9043 15.196C19.58 15.2764 19.2622 15.3806 18.9538 15.5078L19.4119 16.485C19.6803 16.4 19.9533 16.3297 20.2296 16.2744L20.2211 16.2786Z" fill="#BD8F17"/>
<path d="M21.6583 16.1447C21.6583 15.8664 21.5384 15.2762 21.4913 14.9474H20.391L20.6907 16.0604C21.015 16.0631 21.3385 16.0913 21.6583 16.1447Z" fill="#BD8F17"/>
<path d="M22.7371 16.2246L23.071 16.3215V14.9819H21.9835L22.1505 16.2078L22.7371 16.2246Z" fill="#BD8F17"/>
<path d="M16.7384 18.1839L16.0063 17.4342C15.754 17.6945 15.5154 17.9672 15.2913 18.2513L16.1219 18.9041C16.3131 18.657 16.5186 18.4169 16.7384 18.1839Z" fill="#BD8F17"/>
<path d="M15.2551 24.5477L13.8422 24.4467L13.945 24.9394L15.7775 25.7396C15.5593 25.3624 15.3841 24.9627 15.2551 24.5477Z" fill="#BD8F17"/>
<path d="M15.8915 19.2802L15.0566 18.661C14.8698 18.9454 14.6983 19.2392 14.5428 19.5413L15.5062 20.0004C15.6175 19.7519 15.7463 19.5112 15.8915 19.2802Z" fill="#BD8F17"/>
<path d="M15.3379 20.4431L14.3403 20.0009C14.2117 20.3031 14.1059 20.6143 14.0235 20.9318L15.1067 21.2435C15.1576 20.97 15.235 20.702 15.3379 20.4431Z" fill="#BD8F17"/>
<path d="M15.0207 21.7028L13.8904 21.408V22.4862L15.1063 22.6504C15.0545 22.337 15.0258 22.0203 15.0207 21.7028Z" fill="#BD8F17"/>
<path d="M15.0376 23.7602V23.1234L13.7916 22.959V24.0385H15.1275C15.0813 23.9516 15.0509 23.8574 15.0376 23.7602Z" fill="#BD8F17"/>
<path d="M45.0667 47.3892L45.7346 48.2063C46.0343 47.9915 46.2998 47.7472 46.5909 47.5029L45.8587 46.8628C45.6099 47.0554 45.3482 47.2313 45.0752 47.3892H45.0667Z" fill="#BD8F17"/>
<path d="M38.0826 47.6681L38.9174 49.496C39.0903 49.481 39.264 49.5146 39.4183 49.5929L39.2984 48.1735C38.8786 48.041 38.4717 47.8719 38.0826 47.6681Z" fill="#BD8F17"/>
<path d="M43.9657 47.9756L44.4324 48.94C44.7474 48.789 45.0533 48.6203 45.3486 48.4347L44.6893 47.6177C44.4567 47.7532 44.215 47.8728 43.9657 47.9756Z" fill="#BD8F17"/>
<path d="M42.6838 48.368L43.0178 49.4463C43.3343 49.3603 43.6458 49.2577 43.9511 49.1388L43.523 48.1573C43.2557 48.2462 42.9825 48.3166 42.7052 48.368H42.6838Z" fill="#BD8F17"/>
<path d="M41.2623 48.4984C41.2877 48.9046 41.342 49.3085 41.425 49.7072H41.7932L42.3412 49.6272H42.5253L42.2256 48.4984C41.9047 48.5153 41.5831 48.5153 41.2623 48.4984Z" fill="#BD8F17"/>
<path d="M40.1869 48.4977C40.0563 48.4744 39.9276 48.442 39.8016 48.4009V49.7402C40.0454 49.757 40.29 49.757 40.5337 49.7402H40.8848L40.7521 48.4767L40.1869 48.4977Z" fill="#BD8F17"/>
<path d="M46.2016 46.4244L46.9337 47.1404C47.1917 46.8764 47.4306 46.5949 47.6486 46.2981L46.8309 45.6705C46.6393 45.936 46.429 46.1879 46.2016 46.4244Z" fill="#BD8F17"/>
<path d="M47.6147 40.0148L49.0661 40.1116C49.0807 39.9424 49.045 39.7727 48.9633 39.623L47.0838 38.8059C47.3034 39.1894 47.4813 39.5946 47.6147 40.0148Z" fill="#BD8F17"/>
<path d="M47.0338 45.3114L47.8901 45.9306C48.0777 45.649 48.2451 45.3549 48.391 45.0503L47.4277 44.5912C47.3164 44.8397 47.1876 45.0804 47.0424 45.3114H47.0338Z" fill="#BD8F17"/>
<path d="M47.5982 44.1365L48.6001 44.5576C48.7181 44.2533 48.8182 43.9426 48.8998 43.6269L47.8166 43.3153C47.7616 43.5933 47.6887 43.8676 47.5982 44.1365Z" fill="#BD8F17"/>
<path d="M47.915 42.8753L49.0326 43.1533V42.4668C49.0411 42.342 49.0411 42.2167 49.0326 42.0919L47.9493 41.9572C47.9615 42.2636 47.95 42.5705 47.915 42.8753Z" fill="#BD8F17"/>
<path d="M47.9329 41.434L49.183 41.5983C49.1915 41.4946 49.1915 41.3903 49.183 41.2866C49.2001 41.0369 49.2001 40.7864 49.183 40.5367H47.8344C47.8815 40.8358 47.9157 41.1349 47.9329 41.434Z" fill="#BD8F17"/>
<path d="M16.0754 45.6369L15.2191 46.2771C15.4375 46.5737 15.6764 46.8552 15.9341 47.1195L16.6662 46.3866C16.4388 46.1545 16.2338 45.9021 16.054 45.6327L16.0754 45.6369Z" fill="#BD8F17"/>
<path d="M15.7587 39.0371V38.8097L13.9092 39.6099C13.9246 39.7841 13.8905 39.9591 13.8107 40.1153L15.2578 40.0016C15.3902 39.6638 15.5581 39.3406 15.7587 39.0371Z" fill="#BD8F17"/>
<path d="M15.4711 44.5577L14.4907 45.0168C14.6398 45.3284 14.813 45.6283 15.0087 45.9139L15.8393 45.2779C15.7579 45.0505 15.5909 44.8062 15.4711 44.5577Z" fill="#BD8F17"/>
<path d="M15.0894 43.3021L13.9891 43.6264C14.0748 43.9381 14.1732 44.2413 14.2888 44.5404L15.3078 44.1192C15.2101 43.8596 15.137 43.5918 15.0894 43.319V43.3021Z" fill="#BD8F17"/>
<path d="M14.956 41.9572L13.7401 42.1214V43.0522C13.7489 43.101 13.7489 43.1509 13.7401 43.1996L14.8875 42.9048C14.8875 42.5889 14.9175 42.273 14.956 41.9572Z" fill="#BD8F17"/>
<path d="M15.0381 40.8963C15.0265 40.8216 15.0313 40.7454 15.0519 40.6727C15.0726 40.6 15.1088 40.5325 15.158 40.4746H13.7751V41.5667L15.0381 41.3896V40.8963Z" fill="#BD8F17"/>
<path d="M17.0402 46.7491L16.291 47.4651C16.5736 47.7263 16.839 47.9537 17.1473 48.1853L17.8151 47.343C17.5432 47.1629 17.2843 46.9645 17.0402 46.7491Z" fill="#BD8F17"/>
<path d="M23.5557 48.2067L23.4573 49.6091L23.9368 49.5122L24.7545 47.6971C24.3735 47.9064 23.9718 48.0772 23.5557 48.2067Z" fill="#BD8F17"/>
<path d="M18.1572 47.6003L17.5235 48.4174C17.8135 48.6021 18.1136 48.7708 18.4226 48.9228L18.8893 47.9583C18.6378 47.8543 18.3933 47.7347 18.1572 47.6003Z" fill="#BD8F17"/>
<path d="M19.3567 48.1404L18.9285 49.1216C19.2358 49.2481 19.552 49.3523 19.8747 49.4333L20.1916 48.3678C19.9086 48.3096 19.6297 48.2337 19.3567 48.1404Z" fill="#BD8F17"/>
<path d="M20.6557 48.4984L20.356 49.6103C20.4343 49.6187 20.5132 49.6187 20.5915 49.6103L21.1224 49.6945H21.4392C21.4392 49.446 21.5719 48.8522 21.6233 48.4984C21.3013 48.5237 20.9778 48.5237 20.6557 48.4984Z" fill="#BD8F17"/>
<path d="M22.7376 48.4984L22.1082 48.5827L21.9413 49.8085C22.0682 49.8169 22.1954 49.8169 22.3223 49.8085H23.0373V48.3384L22.7376 48.4984Z" fill="#BD8F17"/>
<path d="M46.8006 18.9377L47.6141 18.3018C47.396 17.997 47.1571 17.7071 46.8991 17.4342L46.1669 18.1544C46.3934 18.4032 46.605 18.6648 46.8006 18.9377Z" fill="#BD8F17"/>
<path d="M47.1182 25.757L48.9806 24.9568C48.9646 24.7861 49.0004 24.6147 49.0833 24.464L47.6319 24.5651C47.5073 24.9803 47.3349 25.3802 47.1182 25.757Z" fill="#BD8F17"/>
<path d="M47.4191 20L48.3653 19.5409C48.2149 19.245 48.0491 18.9569 47.8687 18.6776L47.0338 19.2967C47.1781 19.5224 47.3068 19.7573 47.4191 20Z" fill="#BD8F17"/>
<path d="M47.8166 21.2597L48.8998 20.9312C48.8141 20.6237 48.6986 20.3288 48.583 20.0171L47.5854 20.4594C47.6883 20.7183 47.7657 20.9863 47.8166 21.2597Z" fill="#BD8F17"/>
<path d="M47.9679 22.6635L49.1838 22.5035C49.1924 22.3998 49.1924 22.2955 49.1838 22.1918C49.1974 22.0081 49.1681 21.8237 49.0982 21.6527C49.1067 21.5771 49.1067 21.5009 49.0982 21.4253L47.9679 21.7159C47.9936 22.0313 47.9936 22.3482 47.9679 22.6635Z" fill="#BD8F17"/>
<path d="M47.8685 23.7943C47.8471 23.889 47.8185 23.982 47.7829 24.0725H49.0673V23.3853C49.0673 23.2532 49.0673 23.1225 49.0673 22.9932L47.8172 23.1576C47.8492 23.3684 47.8664 23.5811 47.8685 23.7943Z" fill="#BD8F17"/>
<path d="M45.7515 17.842L46.4837 17.1219C46.2523 16.8803 46.0079 16.6512 45.7515 16.4354L45.1179 17.2524C45.3469 17.4357 45.5642 17.6326 45.7687 17.842H45.7515Z" fill="#BD8F17"/>
<path d="M38.2636 16.893C38.6093 16.73 38.9654 16.5893 39.3297 16.4718L39.4325 15.0525L38.9144 15.1494L38.0966 16.9604L38.2636 16.893Z" fill="#BD8F17"/>
<path d="M44.6891 17.0246L45.3227 16.2076C45.0371 16.023 44.7412 15.8543 44.4364 15.7023L43.9569 16.6667C44.2119 16.7629 44.4571 16.8828 44.6891 17.0246Z" fill="#BD8F17"/>
<path d="M43.5016 16.4856L43.9297 15.5041L42.9964 15.1924L42.6838 16.2792C42.96 16.335 43.233 16.4053 43.5016 16.4898V16.4856Z" fill="#BD8F17"/>
<path d="M42.2162 16.2066L42.5159 15.0779H41.4156C41.4156 15.3895 41.2828 15.996 41.2529 16.274C41.5714 16.2241 41.8937 16.2016 42.2162 16.2066Z" fill="#BD8F17"/>
<path d="M40.1872 16.2232H40.7695L40.9365 14.9977H39.8532V16.3369C39.9671 16.3066 40.0786 16.2686 40.1872 16.2232Z" fill="#BD8F17"/>
<path d="M33.9784 27.1316C33.7002 26.7268 33.3218 26.3983 32.8788 26.1771C32.4358 25.9559 31.9429 25.8493 31.4465 25.8673C31.0477 25.8519 30.6499 25.9164 30.2772 26.057C29.9046 26.1975 29.5649 26.4112 29.2788 26.6849C28.6478 27.3826 28.2922 28.2797 28.2763 29.2133V29.5715H28.6276C29.3879 29.5326 30.15 29.5936 30.8939 29.7527H31.0095C31.1195 29.7697 31.2263 29.8023 31.3266 29.8497H31.5622C31.7015 29.8001 31.8448 29.762 31.9906 29.7359C32.7319 29.5599 33.4958 29.4946 34.2569 29.542H34.6039V29.1796C34.5936 28.4529 34.3769 27.7436 33.9784 27.1316ZM32.1063 29.0574C31.5965 29.1965 31.5922 29.5041 31.5922 29.5041H31.2537C31.2304 29.4037 31.1772 29.3124 31.1009 29.2418C31.0246 29.1713 30.9287 29.1247 30.8253 29.108C30.2448 28.99 29.6564 28.9139 29.0646 28.8804C29.1268 28.3708 29.3103 27.8829 29.6001 27.4561C29.8156 27.1641 30.1025 26.9303 30.4342 26.7764C30.7659 26.6224 31.1318 26.5533 31.4979 26.5753C32.1191 26.5878 32.7118 26.8335 33.1547 27.2621C33.5976 27.6907 33.857 28.2697 33.8799 28.8804C33.2866 28.8735 32.6945 28.9328 32.1148 29.0574H32.1063Z" fill="#BD8F17"/>
</g>
</svg>
