<svg width="64" height="64" viewBox="0 0 64 64" fill="none" xmlns="http://www.w3.org/2000/svg">
<mask id="mask0_508_90551" style="mask-type:alpha" maskUnits="userSpaceOnUse" x="0" y="0" width="64" height="64">
<circle cx="32" cy="32" r="32" fill="#F2F3F7"/>
</mask>
<g mask="url(#mask0_508_90551)">
<rect width="64" height="64" fill="white"/>
<g clip-path="url(#clip0_508_90551)">
<path d="M31.5648 53.4697C44.2397 53.4697 54.5147 43.9006 54.5147 32.0965C54.5147 20.2925 44.2397 10.7234 31.5648 10.7234C18.8899 10.7234 8.61487 20.2925 8.61487 32.0965C8.61487 43.9006 18.8899 53.4697 31.5648 53.4697Z" fill="url(#paint0_radial_508_90551)"/>
<path d="M35.5105 13.0445C35.5105 13.0445 35.199 12.9478 34.7836 12.9478H34.4721C33.7452 12.8511 32.7067 12.7544 31.6682 12.7544C30.7336 12.7544 29.5913 12.8511 28.8644 12.9478H28.5529C28.1375 13.0445 27.826 13.0445 27.826 13.0445C27.3067 13.1412 27.5144 13.238 27.5144 13.238C27.7221 13.3347 28.0336 13.1412 28.3452 13.1412C28.6567 13.0445 28.8644 13.0445 29.1759 12.9478C29.4875 12.9478 29.4875 12.9478 29.4875 12.9478C28.9683 13.0445 28.449 13.1412 28.5529 13.238C28.5529 13.3347 28.9683 13.238 29.3836 13.0445C30.6298 12.7544 30.2144 12.9478 30.2144 12.9478C30.0067 13.0445 29.9029 13.1412 29.9029 13.1412C29.9029 13.3347 30.2144 13.238 30.9413 12.8511C31.3567 12.6577 31.3567 12.9478 31.3567 12.9478C31.3567 13.0445 31.3567 13.1412 31.5644 13.238H31.6682H31.7721C31.9798 13.238 31.9798 13.0445 31.9798 12.9478C31.9798 12.9478 31.8759 12.7544 32.3952 12.8511C33.1221 13.1412 33.4336 13.238 33.4336 13.1412C33.4336 13.0445 33.3298 13.0445 33.1221 12.9478C33.1221 12.9478 32.7067 12.7544 33.9529 13.0445C34.3682 13.1412 34.7836 13.238 34.7836 13.238C34.7836 13.1412 34.3682 13.0445 33.849 12.9478C33.849 12.9478 33.849 12.9478 34.1605 12.9478C34.4721 13.0445 34.6798 13.0445 34.9913 13.1412C35.3028 13.238 35.6144 13.3347 35.8221 13.238C35.8221 13.238 36.0298 13.1412 35.5105 13.0445Z" fill="#8F34C5"/>
<path d="M22.5302 17.6868C20.7648 17.7835 18.584 20.3947 19.7264 21.2651C20.8687 22.0388 23.4648 19.9111 23.2571 18.3637C23.2571 17.8802 22.9456 17.6868 22.5302 17.6868Z" fill="#C799E2"/>
<path d="M26.7877 17.6868C24.9185 17.7835 23.4646 20.0078 24.6069 21.0717C25.7492 22.0388 28.2415 20.7815 28.1377 18.944C28.0338 18.267 27.6185 17.6868 26.7877 17.6868Z" fill="#C799E2"/>
<path d="M31.5647 17.6868C29.5916 17.7835 28.9686 19.9111 30.2147 20.9749C31.4609 21.9421 33.7455 21.2651 33.5378 19.5243C33.5378 18.4605 32.6032 17.6868 31.5647 17.6868Z" fill="#C799E2"/>
<path d="M36.4454 17.6868C34.7839 17.7835 34.68 19.8144 36.03 20.7815C37.38 21.8453 39.2492 21.3618 39.1454 20.0078C39.0415 18.8473 37.6915 17.6868 36.4454 17.6868Z" fill="#C799E2"/>
<path d="M40.8067 17.6868C39.5606 17.7835 40.0798 19.621 41.4298 20.6848C42.6759 21.7486 44.0259 21.6519 43.9221 20.4914C43.8183 19.2341 41.949 17.6868 40.8067 17.6868Z" fill="#C799E2"/>
<path d="M19.6224 23.0056C17.4416 23.1023 16.1955 26.2938 17.5455 27.3576C18.8955 28.4214 21.2839 26.4872 20.9724 24.3596C20.8685 23.5859 20.3493 23.0056 19.6224 23.0056Z" fill="#C799E2"/>
<path d="M43.9222 23.0056C42.053 23.1023 42.1568 25.8102 43.8184 27.1642C45.1684 28.228 46.6222 27.6477 46.6222 26.0037C46.5184 24.553 45.1684 23.0056 43.9222 23.0056Z" fill="#C799E2"/>
<path d="M18.0645 29.6787C15.8838 29.7754 15.4684 33.1603 17.0261 34.4176C18.4799 35.6748 20.3492 34.1274 20.1415 31.9998C20.0376 30.6458 19.2068 29.6787 18.0645 29.6787Z" fill="#C799E2"/>
<path d="M24.3992 29.6787C21.8031 29.7754 21.18 32.8702 22.8415 34.3208C24.5031 35.6748 26.8915 34.5143 26.8915 32.2899C26.8915 30.8392 25.8531 29.6787 24.3992 29.6787Z" fill="#C799E2"/>
<path d="M38.9376 29.6787C36.3415 29.7754 35.6145 32.8702 37.2761 34.3208C39.0414 35.7715 41.7414 34.3208 41.4299 31.9998C41.3261 30.7425 40.1838 29.6787 38.9376 29.6787Z" fill="#C799E2"/>
<path d="M45.4799 29.6787C43.2991 29.7754 42.7799 33.1603 44.3376 34.4176C45.7914 35.6748 47.6606 34.2241 47.4529 31.9998C47.3491 30.6458 46.5183 29.6787 45.4799 29.6787Z" fill="#C799E2"/>
<path d="M24.6068 36.8354C22.3222 36.9322 22.0107 39.4466 23.5683 40.8006C25.2299 42.1546 27.4106 41.1874 27.2029 39.1565C27.0991 37.8993 25.9568 36.8354 24.6068 36.8354Z" fill="#C799E2"/>
<path d="M38.7298 36.8354C36.2375 36.9322 35.1991 39.7368 36.6529 40.994C38.1068 42.348 40.9106 40.8973 40.8067 38.7697C40.8067 37.7058 39.8721 36.8354 38.7298 36.8354Z" fill="#C799E2"/>
<path d="M25.6455 43.1218C23.8802 43.2185 23.8802 44.8626 25.1263 46.0231C26.4763 47.1837 28.1378 46.8935 28.1378 45.4429C28.1378 44.2824 26.8917 43.1218 25.6455 43.1218Z" fill="#C799E2"/>
<path d="M31.5644 43.1218C29.4875 43.2185 28.9683 45.1528 30.2144 46.3133C31.5644 47.4738 33.5375 46.41 33.5375 44.8626C33.5375 43.8955 32.7067 43.1218 31.5644 43.1218Z" fill="#C799E2"/>
<path d="M37.5875 43.1218C35.3029 43.2185 34.3683 45.6363 35.5106 46.5067C36.6529 47.3771 39.1452 45.9264 39.0414 44.3791C39.0414 43.6054 38.5221 43.1218 37.5875 43.1218Z" fill="#C799E2"/>
<path d="M25.2302 23.0056C22.7379 23.1023 21.8032 26.1004 23.2571 27.2609C24.9186 28.5181 27.4109 26.8741 27.2032 24.8431C27.0994 23.7793 26.2686 23.0056 25.2302 23.0056Z" fill="white"/>
<path d="M31.5647 23.0056C29.0724 23.1023 28.3454 25.8102 29.9031 27.1642C31.5647 28.4214 34.057 27.3576 34.057 25.3267C34.057 24.0694 32.9147 23.0056 31.5647 23.0056Z" fill="white"/>
<path d="M38.1067 23.0056C35.8221 23.1023 35.4068 25.6168 36.9644 26.9708C38.5221 28.3247 40.9106 27.6478 40.9106 25.7135C40.9106 24.3596 39.5606 23.0056 38.1067 23.0056Z" fill="white"/>
<path d="M31.5645 29.6787C28.8645 29.7754 28.1376 32.8702 29.903 34.3208C31.6684 35.7715 34.4722 34.3208 34.2645 31.9998C34.1607 30.7425 32.9145 29.6787 31.5645 29.6787Z" fill="white"/>
<path d="M31.5647 36.8354C29.0724 36.9322 28.3454 39.4467 29.9031 40.8006C31.4608 42.2513 34.1608 41.0907 34.057 38.9631C33.9531 37.8026 32.9147 36.8354 31.5647 36.8354Z" fill="white"/>
<path d="M23.984 14.1083C23.2571 14.205 19.7263 16.0425 19.3109 16.4293C19.3109 16.4293 19.4148 16.4293 19.6225 16.3326C20.4532 15.9458 21.284 15.4622 22.0109 14.9787C22.7378 14.6885 23.3609 14.3984 23.984 14.1083Z" fill="#A255CF"/>
<path d="M24.8145 14.1083C23.6722 14.205 20.2453 16.1392 20.5568 16.4293C20.6606 16.5261 21.1799 16.4293 22.2183 15.8491C22.9453 15.4622 24.9183 14.3017 24.8145 14.1083C24.9183 14.1083 24.9183 14.1083 24.8145 14.1083Z" fill="#A255CF"/>
<path d="M26.5799 14.1083C25.126 14.205 22.6337 15.9458 23.2568 16.4293C23.9837 16.9129 26.7875 14.882 26.7875 14.205C26.7875 14.1083 26.7876 14.1083 26.5799 14.1083Z" fill="#A255CF"/>
<path d="M28.9685 14.1083C27.7224 14.205 26.0609 15.6557 26.7878 16.3326C27.6185 17.0096 29.5916 15.6557 29.4878 14.4951C29.4878 14.3017 29.3839 14.1083 28.9685 14.1083Z" fill="#A255CF"/>
<path d="M31.5645 14.1083C30.4222 14.205 29.903 15.4622 30.6299 16.1392C31.4607 16.8162 33.0184 16.3326 32.8107 15.2688C32.8107 14.6885 32.1876 14.1083 31.5645 14.1083Z" fill="#A255CF"/>
<path d="M34.2647 14.1083C33.3301 14.1083 33.7455 15.2688 34.4724 15.8491C35.5109 16.7195 36.757 16.6228 36.757 15.8491C36.5493 15.0754 34.9916 14.1083 34.2647 14.1083Z" fill="#A255CF"/>
<path d="M36.653 14.1083C35.9261 14.205 37.4838 15.3655 37.4838 15.4622C38.7299 16.5261 40.0799 16.8162 40.0799 16.2359C40.0799 15.4622 37.4838 14.1083 36.653 14.1083Z" fill="#A255CF"/>
<path d="M38.3145 14.1083C38.3145 14.1083 38.2106 14.1083 38.3145 14.1083C38.2106 14.1083 38.2106 14.1083 38.3145 14.1083C38.4183 14.3984 40.4952 15.6557 41.2221 15.9458C42.4683 16.6228 42.5721 16.4294 42.5721 16.4294C42.5721 15.8491 39.0414 14.0116 38.3145 14.1083Z" fill="#A255CF"/>
<path d="M39.0415 14.1083C39.0415 14.1083 39.0415 14.1083 39.353 14.3017C39.6646 14.4951 40.1838 14.6885 40.9107 15.0754C41.7415 15.4622 42.5723 15.9458 43.2992 16.4293C43.5069 16.5261 43.5069 16.5261 43.5069 16.5261C43.6107 16.1392 39.8723 14.205 39.0415 14.1083Z" fill="#A255CF"/>
<path d="M17.7532 17.6868C17.234 17.7835 14.3263 20.8782 14.3263 21.3618C14.7417 21.2651 17.7532 17.8802 17.7532 17.6868Z" fill="#A255CF"/>
<path d="M19.3109 17.6868C18.0647 17.7835 15.4686 20.5881 15.9878 21.2651C16.1955 21.4585 16.8186 21.4585 17.9609 20.298C18.6878 19.621 19.5186 18.4605 19.5186 17.8802C19.6224 17.7835 19.5186 17.6868 19.3109 17.6868Z" fill="#A255CF"/>
<path d="M43.8184 17.6868C42.9877 17.7835 44.7531 20.0078 45.8954 20.9749C46.6223 21.5552 47.1415 21.5552 47.1415 21.0717C47.1415 19.9111 44.7531 17.6868 43.8184 17.6868Z" fill="#A255CF"/>
<path d="M45.2722 17.6868C45.2722 17.8802 48.3876 21.2651 48.6991 21.3618C48.6991 20.8782 45.7914 17.7835 45.2722 17.6868Z" fill="#A255CF"/>
<path d="M13.2878 23.0056C12.6647 23.199 11.2109 27.4543 11.4186 27.6477C11.7301 27.551 12.3532 26.1004 12.5609 25.5201C13.1839 24.0694 13.4955 23.0056 13.2878 23.0056Z" fill="#A255CF"/>
<path d="M15.3645 23.0056C13.703 23.199 12.4568 26.8741 13.3915 27.551C14.3261 28.228 16.1953 25.6168 16.0915 23.7793C15.8838 23.2957 15.6761 23.0056 15.3645 23.0056Z" fill="#A255CF"/>
<path d="M47.8684 23.0056C46.6223 23.1023 47.7646 26.5839 49.0108 27.4543C49.7377 27.9379 50.2569 27.3576 50.0492 26.1971C49.8415 24.7464 48.6992 23.0056 47.8684 23.0056Z" fill="#A255CF"/>
<path d="M49.7376 23.0056C49.426 23.199 51.1914 27.551 51.6068 27.6477C52.0222 27.551 50.2568 23.199 49.7376 23.0056Z" fill="#A255CF"/>
<path d="M11.0031 29.6787C10.5877 29.8721 10.5877 34.7077 11.0031 34.9011C11.5223 34.7077 11.5223 29.8721 11.0031 29.6787Z" fill="#A255CF"/>
<path d="M13.2878 29.6787C11.7301 29.8721 11.6263 33.7406 12.7686 34.7077C13.7032 35.4814 14.7417 34.0307 14.6378 31.9998C14.6378 30.6458 14.0147 29.6787 13.2878 29.6787Z" fill="#A255CF"/>
<path d="M49.9454 29.6787C48.3877 29.8721 48.4915 34.0307 49.53 34.8044C50.4646 35.4814 51.3992 33.3537 50.9838 31.3228C50.88 30.259 50.4646 29.6787 49.9454 29.6787Z" fill="#A255CF"/>
<path d="M52.0221 29.6787C51.6067 29.8721 51.6067 34.7077 52.0221 34.9011C52.4375 34.7077 52.4375 29.8721 52.0221 29.6787Z" fill="#A255CF"/>
<path d="M11.5222 36.8354C11.1068 37.0289 13.0798 41.2842 13.3914 41.4776C13.5991 41.5743 13.3914 41.0907 13.2875 40.7039C12.8722 39.3499 11.8337 37.0289 11.5222 36.8354Z" fill="#A255CF"/>
<path d="M13.7032 36.8354C12.3532 36.9322 13.2878 40.2203 14.7416 41.1875C15.5724 41.7677 16.1955 41.2842 15.9878 40.1236C15.8839 38.5763 14.6378 36.8354 13.7032 36.8354Z" fill="#A255CF"/>
<path d="M18.376 36.8354C16.5068 36.9322 16.6107 39.4466 18.1684 40.8006C19.6222 42.0578 21.076 41.3809 20.9722 39.6401C20.8683 38.2861 19.6222 36.8354 18.376 36.8354Z" fill="#A255CF"/>
<path d="M45.1683 36.8354C42.9875 36.9322 41.7414 40.2203 43.0914 41.1875C44.4414 42.2513 46.8298 40.1236 46.5183 38.0927C46.3106 37.319 45.8952 36.8354 45.1683 36.8354Z" fill="#A255CF"/>
<path d="M49.53 36.8354C47.9723 37.0289 46.7261 40.7039 47.453 41.3809C48.18 42.0578 50.0492 39.4466 50.0492 37.7058C50.0492 37.2223 49.8415 36.8354 49.53 36.8354Z" fill="#A255CF"/>
<path d="M51.607 36.8354C51.1916 37.0289 49.3224 41.2842 49.634 41.4776C50.1532 41.3809 51.9186 37.0289 51.607 36.8354Z" fill="#A255CF"/>
<path d="M14.5337 43.1218C14.5337 43.6054 17.4414 46.6034 18.0645 46.7968C18.0645 46.6034 14.8452 43.2185 14.5337 43.1218Z" fill="#A255CF"/>
<path d="M16.4032 43.1218C15.4686 43.2185 16.6109 44.9593 18.0648 46.0232C18.8955 46.7001 19.8301 47.087 19.7263 46.5067C19.7263 45.5396 17.4417 43.1218 16.4032 43.1218Z" fill="#A255CF"/>
<path d="M20.453 43.1218C19.103 43.2185 19.5184 44.7659 20.8684 45.9264C22.0107 46.8936 23.4646 47.1837 23.4646 46.0232C23.3607 44.7659 21.6992 43.1218 20.453 43.1218Z" fill="#A255CF"/>
<path d="M43.0916 43.1218C41.0147 43.2185 39.457 46.0232 40.2878 46.6034C41.2224 47.3771 44.1301 44.9593 43.9224 43.7021C43.7147 43.2185 43.2993 43.1218 43.0916 43.1218Z" fill="#A255CF"/>
<path d="M46.8299 43.1218C45.48 43.2185 43.0915 46.41 43.6107 46.7001C44.13 47.087 47.2453 44.4758 47.1415 43.3152C47.0376 43.2185 46.8299 43.1218 46.8299 43.1218Z" fill="#A255CF"/>
<path d="M48.5951 43.1218C48.1797 43.2185 45.0643 46.6034 45.0643 46.7968C45.4797 46.7968 48.4913 43.6054 48.5951 43.1218Z" fill="#A255CF"/>
<path d="M19.6222 47.9572C19.726 48.2473 23.4645 50.0848 24.2953 50.2782C24.2953 50.2782 24.2953 50.2782 23.9837 50.0848C23.6722 49.8914 23.153 49.698 22.3222 49.3111C21.4914 48.9243 20.6607 48.4407 19.8299 48.0539C19.726 48.0539 19.726 47.9572 19.6222 47.9572Z" fill="#A255CF"/>
<path d="M20.9724 47.9572C20.6608 47.9572 21.0762 48.344 21.2839 48.5374C22.5301 49.4078 24.9185 50.3749 25.1262 50.2782C25.1262 49.9881 21.5954 47.9572 20.9724 47.9572Z" fill="#A255CF"/>
<path d="M23.7761 47.9572C23.0491 47.9572 23.5684 48.6341 23.9837 49.021C24.9184 49.7947 26.9953 50.5683 26.9953 50.1815C26.9953 49.6979 24.9184 47.9572 23.7761 47.9572Z" fill="#A255CF"/>
<path d="M27.4107 47.9572C26.3723 48.0539 26.4761 48.8275 27.3069 49.5045C28.0338 50.1815 29.5915 50.7618 29.4876 49.7947C29.4876 48.9243 28.4492 47.9572 27.4107 47.9572Z" fill="#A255CF"/>
<path d="M31.5645 47.9572C30.1107 48.0539 30.0068 49.3111 30.8376 49.9881C31.7722 50.7618 32.9145 49.7947 32.8107 48.8276C32.8107 48.344 32.1876 47.9572 31.5645 47.9572Z" fill="#A255CF"/>
<path d="M35.8222 47.9572C34.1606 48.0539 33.3299 49.698 33.7453 50.1815C34.3683 50.6651 36.5491 49.3111 36.5491 48.4407C36.5491 48.1506 36.2376 47.9572 35.8222 47.9572Z" fill="#A255CF"/>
<path d="M39.5607 47.9572C38.2107 48.0539 35.9261 49.9881 36.2376 50.1815C36.5491 50.4716 39.8722 49.021 39.8722 48.1506C39.976 48.0539 39.7684 47.9572 39.5607 47.9572Z" fill="#A255CF"/>
<path d="M42.1567 47.9572C41.326 48.0539 38.0029 50.0848 37.899 50.2782C38.1067 50.3749 39.4567 49.8914 40.599 49.2144C41.7413 48.7308 42.3644 48.1506 42.1567 47.9572C42.2606 47.9572 42.2606 47.9572 42.1567 47.9572Z" fill="#A255CF"/>
<path d="M43.4031 47.9572C43.4031 47.9572 43.2992 47.9572 43.1954 48.0539C42.2607 48.5374 41.43 49.021 40.4954 49.4078C39.8723 49.698 39.3531 49.8914 38.73 50.1815C39.2492 50.2782 42.9877 48.4407 43.4031 47.9572Z" fill="#A255CF"/>
<path d="M27.826 51.052C27.826 51.052 28.1375 51.1487 28.5529 51.1487H28.8644C29.5913 51.2454 30.6298 51.3421 31.6682 51.3421C32.6029 51.3421 33.7452 51.2454 34.4721 51.1487H34.7836C35.199 51.052 35.5105 51.052 35.5105 51.052C36.0298 50.9553 35.8221 50.8585 35.8221 50.8585C35.6144 50.7618 35.3028 50.9553 34.9913 50.9553C34.6798 51.052 34.4721 51.052 34.1605 51.1487C33.849 51.1487 33.849 51.1487 33.849 51.1487C34.3682 51.052 34.7836 50.9553 34.7836 50.8585C34.7836 50.7618 34.3682 50.8585 33.9529 51.052C32.7067 51.3421 33.1221 51.1487 33.1221 51.1487C33.3298 51.052 33.4336 51.052 33.4336 50.9553C33.4336 50.7618 33.1221 50.8585 32.3952 51.2454C31.9798 51.4388 31.9798 51.1487 31.9798 51.1487C31.9798 51.052 31.9798 50.9553 31.7721 50.8585H31.6682H31.5644C31.3567 50.8585 31.3567 51.052 31.3567 51.1487C31.3567 51.1487 31.4606 51.3421 30.9413 51.2454C30.2144 50.9553 29.9029 50.8585 29.9029 50.9553C29.9029 51.052 30.0067 51.052 30.2144 51.1487C30.2144 51.1487 30.6298 51.3421 29.3836 51.052C28.9683 50.9553 28.5529 50.8585 28.5529 50.8585C28.5529 50.9553 28.9683 51.052 29.4875 51.1487C29.4875 51.1487 29.4875 51.1487 29.1759 51.1487C28.8644 51.052 28.6567 51.052 28.3452 50.9553C28.0336 50.8585 27.7221 50.7618 27.5144 50.8585C27.5144 50.9553 27.3067 50.9553 27.826 51.052Z" fill="#8F34C5"/>
</g>
</g>
<defs>
<radialGradient id="paint0_radial_508_90551" cx="0" cy="0" r="1" gradientUnits="userSpaceOnUse" gradientTransform="translate(38.2408 25.1067) scale(16.3683 15.2437)">
<stop stop-color="white"/>
<stop offset="0.0608389" stop-color="#E9D7F4"/>
<stop offset="0.1377" stop-color="#D1ACE7"/>
<stop offset="0.2207" stop-color="#BC85DD"/>
<stop offset="0.3086" stop-color="#AA65D3"/>
<stop offset="0.403" stop-color="#9C4BCC"/>
<stop offset="0.5063" stop-color="#9136C6"/>
<stop offset="0.623" stop-color="#8928C2"/>
<stop offset="0.7646" stop-color="#8420C0"/>
<stop offset="1" stop-color="#831DBF"/>
</radialGradient>
<clipPath id="clip0_508_90551">
<rect width="47.36" height="43.52" fill="white" transform="translate(7.68005 10.24)"/>
</clipPath>
</defs>
</svg>
