<svg width="64" height="64" viewBox="0 0 64 64" fill="none" xmlns="http://www.w3.org/2000/svg">
<g clip-path="url(#clip0_508_90799)">
<mask id="mask0_508_90799" style="mask-type:alpha" maskUnits="userSpaceOnUse" x="0" y="0" width="64" height="64">
<circle cx="32" cy="32" r="32" fill="#F2F3F7"/>
</mask>
<g mask="url(#mask0_508_90799)">
<rect width="64" height="64" fill="white"/>
<path fill-rule="evenodd" clip-rule="evenodd" d="M47.3599 33.2157C47.3599 38.8605 46.0866 43.0675 43.5413 45.8089C40.9953 48.5496 37.0621 49.92 31.7596 49.92C26.8052 49.92 23.0467 48.5496 20.4841 45.8089C17.9202 43.0682 16.6399 38.9344 16.6399 33.4082V14.8676C16.6404 14.6588 16.7225 14.4588 16.8682 14.3112C17.0138 14.1636 17.2113 14.0805 17.4173 14.08H26.4009C26.6068 14.0808 26.804 14.1641 26.9496 14.3116C27.0953 14.4591 27.1774 14.6589 27.1783 14.8676V33.8134C27.1783 36.0699 27.5903 37.8065 28.4292 39.0316C29.057 39.875 29.9523 40.4737 30.9645 40.7272C31.9767 40.9806 33.0442 40.8734 33.9876 40.4234C34.613 40.1253 35.1629 39.6866 35.5956 39.1405C36.4158 37.9912 36.8241 36.2974 36.8215 34.0584V30.5106H47.3599V33.2157Z" fill="#061184"/>
<path fill-rule="evenodd" clip-rule="evenodd" d="M36.6747 28.6814V14.9954C36.6752 14.7528 36.7624 14.5203 36.9171 14.3487C37.0719 14.1772 37.2817 14.0805 37.5006 14.08H38.9765C38.9782 16.5419 39.862 18.9023 41.4334 20.6421C43.0051 22.3824 45.1357 23.3601 47.3573 23.3604H47.3599V28.6814H36.6747Z" fill="#061184"/>
<path fill-rule="evenodd" clip-rule="evenodd" d="M40.6819 14.08H46.4824C46.715 14.0807 46.9378 14.1727 47.1023 14.3361C47.2667 14.4994 47.3594 14.7207 47.3601 14.9516V20.717C45.5894 20.7166 43.8913 20.018 42.639 18.7748C41.3868 17.5315 40.6828 15.8453 40.6819 14.0868V14.08Z" fill="#F4821F"/>
</g>
</g>
<defs>
<clipPath id="clip0_508_90799">
<rect width="64" height="64" fill="white"/>
</clipPath>
</defs>
</svg>
