<svg width="124" height="124" viewBox="0 0 124 124" fill="none" xmlns="http://www.w3.org/2000/svg">
<circle cx="62" cy="62" r="62" fill="#2E2E2E"/>
<mask id="path-2-inside-1_296_16426" fill="white">
<path d="M83.9582 56.8334C83.9582 73.0469 66.3061 85.107 62.6556 87.4277C62.2471 87.6874 61.7526 87.6874 61.3441 87.4277C57.6936 85.107 40.0415 73.0469 40.0415 56.8334C40.0415 45.4195 50.586 36.1667 61.9998 36.1667C73.4137 36.1667 83.9582 45.4195 83.9582 56.8334Z"/>
</mask>
<path d="M62.6556 87.4277L64.0862 89.6781L62.6556 87.4277ZM81.2915 56.8334C81.2915 63.969 77.3882 70.416 72.7067 75.5421C68.0617 80.6283 62.9549 84.0775 61.225 85.1773L64.0862 89.6781C66.0068 88.4571 71.5513 84.716 76.6449 79.1386C81.7021 73.6011 86.6248 65.9113 86.6248 56.8334H81.2915ZM62.7747 85.1773C61.0448 84.0775 55.938 80.6283 51.2929 75.5421C46.6115 70.416 42.7082 63.969 42.7082 56.8334H37.3748C37.3748 65.9113 42.2976 73.6011 47.3548 79.1386C52.4484 84.716 57.9928 88.4571 59.9134 89.6781L62.7747 85.1773ZM42.7082 56.8334C42.7082 47.0959 51.8465 38.8334 61.9998 38.8334V33.5001C49.3254 33.5001 37.3748 43.7432 37.3748 56.8334H42.7082ZM61.9998 38.8334C72.1532 38.8334 81.2915 47.0959 81.2915 56.8334H86.6248C86.6248 43.7432 74.6743 33.5001 61.9998 33.5001V38.8334ZM61.225 85.1773C61.6894 84.882 62.3102 84.882 62.7747 85.1773L59.9134 89.6781C61.195 90.4928 62.8047 90.4928 64.0862 89.6781L61.225 85.1773Z" fill="white" mask="url(#path-2-inside-1_296_16426)"/>
<circle cx="62" cy="56.8334" r="7.75" stroke="white" stroke-width="2.66667"/>
</svg>
