<svg width="1292" height="290" viewBox="0 0 1292 290" fill="none" xmlns="http://www.w3.org/2000/svg">
<mask id="mask0_296_16418" style="mask-type:alpha" maskUnits="userSpaceOnUse" x="0" y="0" width="1292" height="290">
<rect width="1292" height="290" rx="24" fill="black"/>
</mask>
<g mask="url(#mask0_296_16418)">
<path opacity="0.15" d="M14.2273 306.293L-58.3419 284.143L-59.7015 286.045L12.8677 308.195L12.7383 308.364L15.6514 309.251L15.7809 309.04L49.8967 319.439L11.5082 374.094L-4.09314 369.445L-5.45264 371.347L10.1488 375.997L9.50146 376.926L12.4146 377.814L13.062 376.884L43.4231 385.888L-12.1205 464.595L-3.3811 467.216L8.401 450.562L10.4077 452.041C10.9904 451.703 69.3176 417.76 96.7009 404.064C96.9598 403.937 97.2836 403.768 97.6073 403.641L125.508 430.779C85.1779 443.883 53.004 460.411 52.4862 460.664L52.2273 460.791L35.849 481.123L38.6974 482.095L54.752 462.144C59.8661 459.565 136.643 420.972 200.084 417.253C211.866 416.576 223.454 415.054 234.524 412.73C269.417 405.459 291.686 392.017 299.713 386.522C307.093 391.763 312.466 396.117 313.502 398.315C314.085 399.499 314.02 401.317 313.955 403.261C313.826 407.573 313.696 413.448 321.141 417.464C331.369 423.086 352.797 423.424 390.603 418.605C394.746 418.098 398.63 417.675 402.385 417.337C399.407 442.361 368.851 476.304 368.463 476.727L376.749 479.94C378.303 478.207 409.57 443.545 412.03 416.703C459.352 414.547 468.48 430.356 475.277 442.277C477.414 445.954 479.226 449.167 481.945 451.576C488.678 457.579 514.313 467.005 537.165 474.614L530.756 482.391L539.237 485.35L545.775 477.403C560.47 482.18 572.641 485.815 575.748 486.703L579.697 480.996C572.705 478.925 561.959 475.628 550.307 471.824L578.531 437.5L627.213 453.521L613.877 474.275L616.855 475.079L630.126 454.493L671.687 468.146L665.213 477.953L668.126 478.798L674.535 469.118L678.808 470.513L680.232 468.653L675.83 467.216L728.007 388.34L779.213 404.825L762.965 427.905L746.327 423.424L723.346 442.446L707.615 474.402L710.658 475.036L726.194 443.418L747.298 425.918L761.605 429.765L728.201 476.981L736.941 479.601L882.144 273.491L908.556 278.521L809.769 433.273L806.791 433.442L755.326 482.095L763.223 485.646L812.164 439.402L867.966 436.105L1010.39 481.123L1014.59 475.459L1005.21 472.5L1087.1 396.836L1207.25 430.864L1154.81 488.943L1157.53 490L1210.16 431.709L1296.58 456.141L1297.88 454.239L1211.91 429.891L1226.93 413.237L1296.58 433.907L1297.88 432.005L1228.55 411.419L1265.83 370.121L1310.7 383.521L1314.71 377.814L1156.62 330.64L1191.52 280.803L1311.99 316.691L1313.35 314.789L1221.75 287.524C1224.34 283.889 1234.18 269.982 1248.87 248.382L1333.35 271.969L1334.58 270.024L1250.1 246.438C1254.51 239.97 1259.3 232.826 1264.47 225.133C1267.39 220.779 1269.33 216.637 1270.43 212.621L1326.69 233.46L1328.24 231.643L1270.95 210.423C1273.6 198.249 1268.88 187.893 1262.08 179.735L1293.67 134.632L1290.76 133.744L1260.33 177.537C1251.46 167.899 1240.07 161.77 1236.64 160.037L1264.09 118.992L1348.89 143.551L1350.19 141.649L1265.32 117.09L1280.66 94.137L1315.36 103.648L1316.59 101.703L1281.89 92.1926L1289.85 80.3991L1286.94 79.5537L1279.04 91.3472L1211.2 72.7482L1229.97 44.4692L1303.83 63.6177L1307.39 57.7844L1233.79 38.7205L1287.13 -41.7203L1338.27 -28.1092L1339.5 -30.0536L1288.43 -43.6224L1303.25 -65.9412L1294.45 -68.4352L1279.56 -45.9896L1258.58 -51.5693L1298.27 -73.719L1296.2 -75.3253L1255.22 -52.4993L1164.98 -76.5089L1182.78 -108L1322.35 -78.1152L1323.32 -80.1019L1183.88 -109.987L1195.08 -129.812L1408.84 -83.4835L1409.87 -85.4702L1196.24 -131.714L1207.7 -151.919L1349.02 -120.597L1350.06 -122.584L1208.8 -153.864L1219.03 -171.956L1327.07 -145.748L1328.18 -147.692L1220.13 -173.9L1231.91 -194.655L1312.12 -176.267L1313.16 -178.254L1232.95 -196.642L1245.12 -218.157L1317.36 -200.065L1318.53 -202.01L1246.28 -220.102L1258.84 -242.251L1357.44 -214.776L1358.73 -216.762L1260.01 -244.28L1272.63 -266.515L1332.58 -253.284L1335.68 -259.244L1276 -272.432L1289.92 -297.076L1286.94 -297.795L1272.96 -273.109L1209.06 -287.227L1303.7 -329.709L1298.27 -334.866L1198.19 -289.932L1167.18 -301.176L1286.42 -381.068L1284.15 -382.547L1164.33 -302.233L1095.71 -327.13L1116.68 -368.217L1113.64 -368.894L1092.79 -327.976L1016.6 -347.336L1043.66 -385.337L1034.92 -388L1007.73 -349.787L966.754 -362.215L969.537 -368.217L966.495 -368.809L963.841 -363.103L936.651 -371.345L932.573 -365.639L960.992 -357.016L940.859 -313.646L930.825 -315.844L929.789 -313.858L939.888 -312.547L929.336 -290.736H901.435L931.796 -369.105L928.689 -369.147L914.317 -331.358L875.799 -328.441L893.796 -371.895L890.689 -372.402L872.498 -328.399L837.799 -334.739L856.12 -379.926L853.012 -380.476L828.024 -318.888L795.656 -324.594L810.287 -364.793L807.179 -365.258L792.549 -325.102L759.469 -330.935L772.74 -360.101L769.697 -360.693L756.426 -331.484L722.44 -337.487L734.222 -368.175L731.114 -368.682L707.292 -306.545L675.312 -312.42L695.768 -360.101L692.661 -360.651L685.734 -344.588L651.101 -350.126L661.653 -373.797L652.395 -375.572L641.455 -351.14L587.465 -339.178L575.165 -359.129L572.187 -358.368L584.422 -338.501L503.567 -320.579L490.62 -342.897L512.371 -358.03L510.041 -359.467L489.39 -345.095L480.262 -360.778L477.284 -360.017L486.93 -343.362L434.429 -306.841L409.182 -319.564L456.504 -360.228L448.865 -364.033L401.543 -323.411L359.141 -344.8L378.109 -361.539L375.519 -362.807L356.616 -346.11L333.505 -357.777L331.563 -356.128L354.739 -344.461L305.281 -300.881L261.066 -324.256L305.798 -364.498L303.209 -365.723L280.033 -344.884L239.25 -363.103L237.437 -361.37L278.156 -343.193L258.606 -325.609L160.919 -377.263L154.899 -372.402L217.434 -339.347L201.12 -323.368L154.316 -344.123L149.072 -360.736L145.965 -360.313L167.975 -290.778L147.907 -271.08L105.893 -268.248L68.9939 -362.511L65.8865 -362.004L102.657 -268.036L61.7434 -265.289L30.5406 -362.469L27.4333 -362.046L58.5714 -265.077L20.2476 -262.499L-3.31628 -291.877L-11.8615 -288.96L9.95459 -261.823L-32.9006 -258.948L-32.577 -256.877L11.5082 -259.836L83.8832 -169.715L17.0107 -135.688L18.9529 -134.039L85.7605 -168.024L119.1 -145.537L6.32935 -94.1779L8.14197 -92.4448L121.301 -144.776L156.129 -122.076H98.4487L-10.761 -63.6587L-4.74048 -58.3749L36.6259 -79.975L41.0927 -41.1708L-18.9824 -39.1418L-18.7882 -37.0283L41.4164 -39.015L48.7963 25.4052L-42.9995 29.4632L-42.8053 31.5345L48.9905 27.5188L52.8098 60.7011L15.7809 77.1866L2.12146 76.8907L1.79773 83.1467L55.4641 84.3726L57.7944 121.909L30.0228 150.949L17.7877 152.005L18.2408 154.077L27.8218 153.231L11.8967 169.886L7.94775 168.787L6.71777 170.731L10.2135 171.703L0.63269 181.679L3.35156 182.778L13.1914 172.507L61.2256 185.737L23.7434 242.422L22.4487 242.041L21.1539 243.944L22.4487 244.324L0.567871 277.38L3.48096 278.225L25.3618 245.212L53.1335 253.201L14.2273 306.293ZM55.9172 254.089L70.1592 258.189L33.907 312.295L17.1404 307.18L55.9172 254.089ZM64.7213 184.511L62.5851 150.188L95.9889 147.271L95.8594 193.092L64.7213 184.511ZM57.9241 78.1165L56.5646 66.5344L125.25 35.9306L128.163 48.1467L98.6431 79.0464L57.9241 78.1165ZM199.437 -272.475L181.894 -256.708L177.362 -270.995L199.437 -272.475ZM176.779 -273.024L171.277 -290.355L201.962 -320.452L236.013 -305.361L202.026 -274.757L176.779 -273.024ZM203.774 -272.728L279.062 -277.801L223.907 -229.148L184.224 -249.818L182.929 -253.918L203.774 -272.728ZM601.578 -310.814L614.266 -290.271L609.087 -278.731L537.554 -262.245L520.787 -291.158L601.578 -310.814ZM757.397 -295.259L755.585 -282.704L722.958 -259.117L702.177 -262.414L709.687 -304.093L757.397 -295.259ZM817.343 -284.184L794.944 -273.785L758.821 -282.916L760.505 -294.667L817.343 -284.184ZM883.115 -284.057L840.324 -194.613L796.627 -202.602L817.408 -248.169L836.699 -258.187L839.094 -266.557L839.742 -266.811L828.413 -282.282L830.808 -284.015H883.115V-284.057ZM1091.44 371.854L1090.79 372.784L1104.71 376.926L1085.93 394.257L1044.57 382.548L1088.33 317.198L1121.34 327.047L1091.44 371.854ZM1124.32 327.893L1149.63 335.459L1106.58 375.193L1095 371.727L1124.32 327.893ZM862.399 415.942L862.334 415.984L908.427 346.196L938.14 354.65L897.745 415.477L881.885 421.691L869.585 424.819L860.587 416.745V415.942H862.399ZM799.152 350.042L814.559 354.354L808.733 362.681L794.038 357.567L789.636 359.004L797.598 347.379L799.152 350.042ZM801.677 348.478L795.721 338.545L809.898 317.663L835.339 324.892L815.919 352.452L801.677 348.478ZM811.193 315.761L845.633 265.037L872.174 272.603L836.699 322.989L811.193 315.761ZM811.905 293.95L799.087 299.741L793.067 310.604L781.479 307.307L815.207 256.329L828.348 260.091L818.184 275.773L821.162 276.576L831.261 260.894L842.719 264.149L808.28 314.873L796.045 311.407L801.741 301.051L813.718 295.64L811.905 293.95ZM635.111 395.061L619.768 387.283L638.024 365.091L677.383 375.447L660.293 401.993L635.111 395.061ZM372.477 333.303L395.782 324.553L394.163 322.736L371.311 331.317C366.391 322.947 362.378 316.311 360.306 312.844L375.39 306.8L416.044 315.803L418.18 348.056L375.39 338.291C374.419 336.643 373.448 334.952 372.477 333.303ZM138.326 386.818L160.272 354.692L178.657 383.986C167.069 384.282 152.762 385 138.326 386.818ZM92.6226 398.231L89.9037 397.428L126.156 342.772L158.2 352.579L134.442 387.325C119.229 389.439 104.21 392.82 92.6226 398.231ZM89.7094 399.626C89.062 399.964 88.4794 400.26 87.7673 400.598L88.6089 399.288L89.7094 399.626ZM126.221 24.0526L135.737 23.6299L126.609 27.6879L126.221 24.0526ZM150.691 24.5598L130.752 45.3991L128.163 34.5779L150.691 24.5598ZM157.294 21.6432L166.228 17.6697L167.911 80.6527L138.974 79.9764L131.529 48.5694L157.294 21.6432ZM297.383 -188.948H298.548L296.541 -122.161H254.657V-152.892L297.383 -188.948ZM310.524 -235.023L324.313 -214.268L296.865 -191.104L273.495 -203.278L310.524 -235.023ZM325.737 -212.07L341.015 -189.075L300.814 -155.597L301.785 -188.061V-188.568L299.325 -189.836L325.737 -212.07ZM431.904 -225.935L417.403 -214.649L419.863 -213.296L434.429 -224.625L463.56 -209.196L377.267 -139.83L344.77 -188.779L405.88 -239.673L431.904 -225.935ZM694.797 -219.468L741.084 -210.675L719.656 -167.221L679.52 -175.506L680.297 -177.07L694.15 -219.129L694.797 -219.468ZM724.964 -257.426L728.59 -260.047L743.414 -249.818L699.847 -229.528L703.084 -236.714L719.786 -241.152L724.964 -257.426ZM757.591 -280.971L791.837 -272.306L763.612 -259.16L745.292 -272.052L757.591 -280.971ZM816.372 -250.114L810.999 -254.933L835.469 -265.035L833.851 -259.286L816.372 -250.114ZM826.017 -157.288L864.989 -150.229L859.486 -138.308L820.774 -146.297L826.017 -157.288ZM858.515 -136.322L831.132 -77.312L791.448 -85.6816L819.738 -144.353L858.515 -136.322ZM926.099 -174.788L976.917 -157.245L966.948 -142.578L916.065 -151.201L919.885 -159.866L926.099 -174.788ZM1053.63 -264.782L1082.76 -247.704L1034.66 -215.494L1022.82 -219.51L1053.63 -264.782ZM1067.29 -204.419L1037.64 -214.48L1085.16 -246.309L1109.37 -232.107L1067.29 -204.419ZM1052.98 -8.11526L1063.15 -25.2348L1123.35 -9.12976L1113.83 7.65164L1052.98 -8.11526ZM883.374 206.788L933.156 158.05L943.902 161.178L912.44 215.157L883.374 206.788ZM681.591 374.306L702.954 341.081L718.685 345.308L699.394 378.744L681.591 374.306ZM504.797 333.261L570.504 251.975L572.705 252.482L574.777 250.918L632.068 267.192L570.957 347.887L504.797 333.261ZM414.49 291.202L415.979 313.605L379.015 305.405L414.49 291.202ZM417.598 289.976L423.1 287.778L423.553 287.609L423.942 287.355L470.293 302.108L455.145 322.313L419.151 314.366L417.598 289.976ZM352.797 296.528L307.74 300.417L299.325 264.318L360.889 259.245L352.797 296.528ZM159.495 350.634L127.386 340.827L164.221 285.284L167.522 286.256L171.859 284.65L186.037 314.493L183.9 314.873L159.495 350.634ZM139.621 195.333L137.744 143.636L169.4 140.888L170.888 196.093L139.621 195.333ZM168.04 86.9088L169.4 138.775L137.679 141.522L135.672 86.1479L168.04 86.9088ZM257.052 -22.8254L294.146 -39.3531L293.499 -16.8652L257.117 -16.4425L257.052 -22.8254ZM253.945 -16.4003L242.292 -16.2734L253.815 -21.4305L253.945 -16.4003ZM375.195 -138.435L374.548 -122.161H337.001L359.853 -161.938L375.195 -138.435ZM550.371 -245.929L497.029 -199.601L472.17 -212.747L527.714 -257.384L550.371 -245.929ZM770.733 -205.053L749.758 -161.008L722.699 -166.587L744.191 -210.084L770.733 -205.053ZM748.787 -159.021L733.186 -126.261L705.673 -132.052L721.728 -164.601L748.787 -159.021ZM960.927 -128.502L991.224 -120.428L958.985 -81.5813L923.381 -73.2963L960.927 -128.502ZM1029.87 13.7809L1018.22 33.7748L936.716 12.8086L926.876 -6.80487L980.542 -20.0355L1040.55 -4.48001L1030.97 11.921L963.387 -8.073L962.093 -6.17084L1029.87 13.7809ZM1054.86 43.2011L1027.15 36.0574L1038.61 16.3593L1079.01 28.3219L1054.86 43.2011ZM982.031 113.539L1027.74 88.8532L1027.15 101.661L1008.38 129.052L977.5 121.19L982.031 113.539ZM967.077 118.654L962.87 117.724V67.9293L963.841 67.8448L937.817 15.3871L1016.99 35.7615L969.019 117.682L967.077 118.654ZM803.942 183.877L816.501 164.306L871.721 180.369L851.006 197.446L803.942 183.877ZM729.237 294.795L701.206 338.376L666.702 329.076L700.365 286.637L729.237 294.795ZM636.47 266.178L675.118 216.426L721.987 229.783L693.05 282.198L636.47 266.178ZM516.45 314.366L474.63 301.051L520.398 239.97L567.462 251.172L516.45 314.366ZM209.795 269.602C209.406 268.799 209.083 267.995 208.694 267.192L236.207 200.87L237.049 199.982L290.521 211.691L285.471 216.848L285.148 217.186L295.7 262.5L209.795 269.602ZM553.543 -161.599L529.332 -151.074L493.727 -169.166L494.116 -193.091L553.543 -161.599ZM730.596 -96.2914L719.203 -72.5778L691.043 -78.242L701.077 -102.505L730.596 -96.2914ZM840.648 -5.66354L836.181 3.50912C835.081 4.31226 832.621 6.08762 829.319 8.41248L754.484 -8.83383L761.152 -22.6985L840.648 -5.66354ZM871.397 -49.6671L911.858 -39.8181L909.527 -26.6297H893.149L864.535 -34.7457L871.397 -49.6671ZM863.629 -32.2939L892.501 -23.6708H910.174L922.409 -12.6805L883.956 -3.08505L852.624 -9.84833L863.629 -32.2939ZM773.517 131.8L737.005 133.195L737.07 134.252L735.646 133.787L716.355 158.684L701.336 154.372L797.987 81.7095L773.517 131.8ZM575.359 176.86L557.622 172.845L578.402 130.955L609.152 137.464L600.089 159.318L575.359 176.86ZM353.25 151.709L382.057 122.374L422.064 118.908L397.983 168.237L395.264 173.31L353.25 151.709ZM292.333 209.874L238.797 198.165L268.316 166.42L313.502 188.316L292.333 209.874ZM269.935 164.644L299.972 132.35L345.482 155.767L315.185 186.625L269.935 164.644ZM308.712 128.799L377.914 122.754L350.725 150.399L308.712 128.799ZM366.068 57.2772L334.088 52.8388L334.93 -15.259L360.63 -15.5548C364.061 -15.5971 367.362 -15.7239 370.535 -15.9776L367.751 55.5018L366.068 57.2772ZM364.32 59.1371L344.381 80.5682L334.671 55.0368L364.32 59.1371ZM367.621 59.6021L382.575 61.6733L349.56 94.137L345.482 83.4003L367.621 59.6021ZM385.942 62.1805L431.257 68.4789L380.18 120.472L321.464 125.586L385.942 62.1805ZM516.773 -74.9026L496.381 -33.1816L458.446 -41.0862L462.071 -86.6115L516.773 -74.9026ZM464.402 -114.933L526.807 -97.7286L518.78 -80.905L464.402 -92.4871V-114.933ZM553.867 -133.49L599.377 -123.894L573.417 -69.3652L563.124 -71.5632L579.632 -118.188L548.623 -121.95L553.867 -133.49ZM753.513 -6.80487L826.924 10.1033C820.385 14.6263 811.452 20.7132 802.259 26.4197L743.285 14.4572L753.513 -6.80487ZM874.052 69.4088L820.644 55.8822L831.973 32.6758L887.711 48.1467L874.052 69.4088ZM799.799 77.9474L799.217 77.6093L698.293 153.443L693.891 152.174L653.69 130.701L697.516 99.7167L735.97 124.276L738.235 122.796L699.717 98.1527C707.809 92.4885 763.094 53.7264 783.292 44.9342C797.145 38.8895 816.178 26.5465 829.254 17.6275L799.799 77.9474ZM628.378 139.324L613.036 136.069L635.693 81.2868L693.632 93.2071C692.596 93.9257 691.884 94.4329 691.69 94.602L628.378 139.324ZM625.983 141.015L604.75 156.021L612.129 138.098L625.983 141.015ZM529.785 132.138L504.927 127.235L496.705 135.816L480.78 132.096L489.908 112.947L492.238 112.736L534.64 121.697L529.785 132.138ZM492.95 110.749L492.627 110.665L491.008 110.792L516.709 56.8545L561.247 66.0272L535.676 119.753L492.95 110.749ZM434.558 68.9438L445.628 70.5501L423.1 116.709L384.323 120.091L434.558 68.9438ZM455.08 71.945L502.79 78.9196L487.513 111.087L433.652 115.78L455.08 71.945ZM525.901 -72.9582L570.569 -63.405L540.855 -1.01379L495.475 -10.6938L525.901 -72.9582ZM664.113 -81.4968L675.894 -79.1296L672.787 -73.0004L661.199 -75.3676L664.113 -81.4968ZM660.293 -73.3386L671.816 -71.0137L661.523 -50.5971L650.712 -52.9219L660.293 -73.3386ZM678.096 -47.0041L686.77 -67.928L714.283 -62.3483L704.249 -41.4244L678.096 -47.0041ZM691.366 -18.8097L670.716 -14.4981L668.45 -21.2191L670.521 -22.2336L684.634 -28.701L692.467 -23.8821L691.366 -18.8097ZM647.734 -7.52347L668.644 -11.8773L676.412 -2.32419L672.528 8.0321H660.423L660.94 7.65164L647.734 -7.52347ZM618.668 75.6226L628.767 60.9969L629.09 58.0803L673.758 68.352L665.602 85.3025L618.668 75.6226ZM610.123 -29.6309L625.271 -25.8688L631.227 -20.1201L624.494 -3.29642L600.607 -9.63699L610.123 -29.6309ZM646.051 -9.55246L642.167 -13.3145L653.625 -14.0754L665.602 -19.8664L667.608 -13.9063L646.181 -9.42563L646.051 -9.55246ZM652.395 -16.1044L640.096 -15.259L628.831 -26.1225L632.845 -33.1816L649.353 -39.2686H656.862L667.608 -24.0512L652.395 -16.1044ZM599.635 -7.6503L623.653 -1.26743L617.049 15.2181L591.349 9.76517L599.635 -7.6503ZM616.143 17.247L601.06 48.1045C599.441 48.5272 597.888 48.8653 596.399 49.2035C585.782 51.4016 577.755 43.7506 576.072 41.933L590.443 11.7519L616.143 17.247ZM562.218 63.9982L517.68 54.8255L542.991 1.60693L587.4 11.0755L562.218 63.9982ZM574.841 44.5115C578.402 47.6818 586.494 53.4728 597.37 51.1902C598.341 50.9789 599.376 50.7675 600.412 50.5139C599.959 53.9801 599.247 61.4619 601.383 63.8291C602.872 65.4354 603.261 69.8315 603.39 72.5368L565.261 64.7168L574.841 44.5115ZM606.627 73.1286C606.627 70.9305 606.368 65.0972 604.167 62.6878C602.678 61.0392 603.131 53.98 603.779 49.6262C606.109 48.9921 608.569 48.3158 610.964 47.5972C611.676 48.9076 613.165 51.0634 615.302 52.5006C617.891 54.276 623.199 53.6842 626.307 53.1347L625.595 60.4052L615.56 74.904L606.627 73.1286ZM627.731 44.4692L627.148 44.7651L626.501 50.9789C623.329 51.6129 618.992 52.0356 617.567 51.1057C615.755 49.8798 614.46 47.8931 613.877 46.7518C623.653 43.7929 632.392 40.6649 632.975 40.4535L633.428 40.2844L637.053 35.4656L643.98 36.1842C640.16 38.2132 632.78 41.933 627.731 44.4692ZM674.665 66.3231L629.22 55.8822L630.256 45.8218C636.147 42.8629 645.015 38.3823 647.993 36.776L682.951 49.119L674.665 66.3231ZM646.634 34.3243L635.24 33.1407L630.968 38.7627C628.443 39.6504 615.949 44.0042 604.879 47.0477L619.121 17.8388L648.835 24.1794C648.123 28.3219 647.152 32.6335 646.634 34.3243ZM620.092 15.8521L633.557 -17.8375L643.268 -8.4534L657.38 8.41248L649.612 22.1927L620.092 15.8521ZM675.053 -47.6804L664.566 -49.9208L674.859 -70.3796L683.663 -68.6043L675.053 -47.6804ZM685.54 -38.8036L683.274 -30.6454L670.198 -25.3193L658.804 -41.3821H648.511L630.256 -34.7034L626.371 -28.1515L610.964 -31.7867L620.934 -52.7106L685.54 -38.8036ZM588.307 9.08887L543.898 -0.37973L573.612 -62.7709L617.956 -53.2601L588.307 9.08887ZM494.504 -8.70706L539.949 0.9729L514.637 54.2337L468.415 44.7228L494.504 -8.70706ZM467.444 46.7096L513.666 56.2204L503.826 76.9329L456.116 69.9583L467.444 46.7096ZM564.29 66.6612L602.937 74.6081L576.266 128.376L538.719 120.429L564.29 66.6612ZM606.044 75.1999L632.651 80.6527L609.993 135.435L579.373 128.968L606.044 75.1999ZM742.314 16.4439L799.54 28.0683C791.902 32.718 784.327 36.9451 777.983 39.6926C774.358 41.2567 769.762 43.666 764.583 46.6673L731.114 39.5236L742.314 16.4439ZM761.864 48.2736C747.881 56.474 730.402 68.0139 716.419 77.5247L715.06 73.0863L730.273 41.5526L761.864 48.2736ZM711.694 72.9595L713.636 79.3423C706.191 84.4148 699.912 88.7687 696.027 91.5162L668.644 85.8943L693.697 33.7748L727.166 40.9185L711.694 72.9595ZM683.922 47.09L649.676 35.0006C650.13 33.7325 650.842 30.9849 652.007 24.898L690.59 33.1407L683.922 47.09ZM652.007 22.8268L657.898 10.991V8.8775H675.118L679.779 -3.21188L671.687 -13.1031L692.467 -17.1188L710.269 -7.9039L691.237 31.0695L652.007 22.8268ZM711.305 -9.89059L694.474 -18.4715L695.768 -24.6852L686.382 -30.434L688.518 -38.1696L721.404 -31.1526L711.305 -9.89059ZM707.227 -40.7903L717.326 -61.7142L734.61 -58.2057L724.447 -37.1128L707.227 -40.7903ZM735.516 -60.2347L718.232 -63.7432L721.275 -69.9993L738.559 -66.533L735.516 -60.2347ZM715.189 -64.335L687.547 -69.9569L690.136 -76.213L718.167 -70.591L715.189 -64.335ZM684.504 -70.591L675.83 -72.3664L678.937 -78.4956L687.094 -76.847L684.504 -70.591ZM679.908 -80.4823L685.734 -92.1067L692.855 -90.8386L687.935 -78.876L679.908 -80.4823ZM676.866 -81.1163L665.019 -83.4835L676.348 -107.704L688.906 -105.041L676.866 -81.1163ZM647.67 -53.5137L623.847 -58.5862L649.871 -113.242L673.305 -108.296L647.67 -53.5137ZM620.804 -59.2625L576.46 -68.7734L602.419 -123.302L646.828 -113.961L620.804 -59.2625ZM547.652 -120.005L559.111 -118.61L546.293 -94.7697L537.23 -97.306L547.652 -120.005ZM548.17 -91.9376L562.283 -118.23L575.748 -116.581L560.082 -72.2396L528.749 -78.9183L536.259 -95.2347L548.17 -91.9376ZM458.252 -38.9304L495.41 -31.1949L486.088 -12.1732L456.439 -16.2312L458.252 -38.9304ZM485.117 -10.1442L446.664 68.5634L436.436 67.0839L450.807 52.4161L451.066 52.1624L456.31 -14.0754L485.117 -10.1442ZM447.894 51.4861L433.07 66.5767L387.819 60.2784L389.891 58.2494L390.02 58.1226L424.913 -18.3447L453.138 -14.4981L447.894 51.4861ZM407.046 170.224L419.863 143.974L466.797 154.584L445.564 199.221L403.161 177.41L407.046 170.224ZM420.834 141.987L432.552 117.978L486.477 113.286L467.768 152.555L420.834 141.987ZM479.938 134.125L498.129 138.352L506.416 129.686L528.879 134.125L515.025 163.249L470.811 153.273L479.938 134.125ZM537.812 122.416L575.359 130.363L554.644 172.211L518.133 163.968L537.812 122.416ZM651.554 132.223L692.014 153.865L693.05 153.062L692.402 154.034L696.092 155.091L634.14 201.673L588.566 176.776L651.554 132.223ZM699.135 155.979L714.93 160.544L676.542 210.043L670.651 208.352C668.385 207.549 651.489 201.842 635.629 203.744L699.135 155.979ZM808.668 80.3991L858.774 93.1648L836.052 128.545L791.254 116.118L808.668 80.3991ZM809.639 78.4124L811.258 75.1153L862.205 87.7964L860.004 91.2203L809.639 78.4124ZM812.229 73.1286L819.673 57.869L872.822 71.311L863.5 85.8943L812.229 73.1286ZM889.782 48.9921L958.921 68.4789V110.073L865.118 86.6129L889.782 48.9921ZM891.919 47.09L915.936 9.6806L934.191 14.3727L960.086 66.0272L891.919 47.09ZM917.166 7.73618L924.869 -4.22635L932.897 11.7941L917.166 7.73618ZM914.188 6.97534L893.019 1.52243L922.345 -5.70581L914.188 6.97534ZM882.597 3.34003L884.215 3.67822L888.552 2.62146L912.958 8.91977L888.941 46.2869L832.944 30.7313L849.711 -3.63461L882.597 3.34003ZM728.137 38.8895L694.668 31.7458L724.576 -30.4764L758.109 -23.2903L728.137 38.8895ZM727.424 -36.4788L739.53 -61.6719L773.128 -54.5705L760.958 -29.2928L727.424 -36.4788ZM739.53 -68.5198L722.246 -71.986L733.639 -95.6574L750.859 -92.0222L739.53 -68.5198ZM693.697 -92.8676L686.77 -94.0934L691.949 -104.45L697.905 -103.182L693.697 -92.8676ZM650.842 -115.271L662.17 -139.027L701.659 -130.7L690.007 -107.028L650.842 -115.271ZM647.799 -115.947L603.39 -125.289L614.719 -149.087L659.128 -139.703L647.799 -115.947ZM600.283 -125.923L554.773 -135.518L565.778 -159.401L611.676 -149.721L600.283 -125.923ZM493.662 -166.503L526.548 -149.848L493.209 -135.349L493.662 -166.503ZM553.22 -153.906L528.296 -99.7576L467.574 -116.624L553.22 -153.906ZM458.252 -87.3301L452.944 -16.6539L422.518 -20.8387L387.042 57.1926L384.453 59.7711L369.369 57.6576L370.729 56.2204L370.923 55.9668L373.707 -16.4003C387.56 -17.7952 398.112 -21.2191 405.168 -26.672C416.691 -35.5065 414.749 -46.4123 414.555 -47.4268L411.966 -92.2758L454.627 -111.551V-88.0065L458.252 -87.3301ZM412.678 -101.744L413.131 -116.243H445.175L412.678 -101.744ZM409.441 -99.3349L376.361 -85.0898L377.526 -116.243H409.894L409.441 -99.3349ZM409.506 -90.7963L411.383 -47.2155V-47.0886C411.383 -46.9618 413.584 -36.2673 402.708 -27.8978C396.235 -22.9521 386.524 -19.7396 373.771 -18.387L375.972 -75.8325L409.506 -90.7963ZM370.599 -18.1333C367.427 -17.8797 364.061 -17.7106 360.565 -17.6684L334.994 -17.3725L335.512 -57.7831L372.8 -74.3953L370.599 -18.1333ZM331.758 -17.3302L296.671 -16.9075L297.383 -40.8326L332.211 -56.3881L331.758 -17.3302ZM331.758 -15.259L330.916 52.9233L294.34 62.6878L296.606 -14.8363L331.758 -15.259ZM331.369 55.0791L341.986 83.1044L310.136 117.344L294.47 64.9281L331.369 55.0791ZM343.151 85.9788L347.165 96.5464L317.257 125.924L305.151 126.981L305.022 126.897L343.151 85.9788ZM295.376 129.94L297.448 130.997L260.03 171.238L259.447 133.068L295.376 129.94ZM259.383 130.955L259.059 111.257L291.88 128.165L259.383 130.955ZM256.858 174.662L234.783 197.7L215.751 197.277V136.83L255.499 133.406L256.858 174.662ZM288.514 217.651L293.952 212.156L320.882 210.719L330.592 259.626L298.872 262.247L288.514 217.651ZM296.088 209.916L316.091 189.584L316.739 189.88L320.494 208.648L296.088 209.916ZM319.717 188.738L317.839 187.808L348.071 157.035L359.011 162.657L365.938 206.238L323.666 208.479L319.717 188.738ZM369.11 206.069L362.507 164.433L391.897 179.523L377.914 205.562L369.11 206.069ZM399.86 183.666L436.565 202.519L388.402 205.055L399.86 183.666ZM469.84 155.26L514.054 165.236L487.642 220.822L448.282 200.574L469.84 155.26ZM517.097 165.912L572.964 178.509L511.206 222.174L501.949 228.134L490.361 222.174L517.097 165.912ZM518.003 226.613L586.365 178.298L632.003 203.237L629.997 204.759C626.566 205.647 623.199 206.957 620.221 208.901C606.368 217.947 577.949 239.04 569.857 245.085L511.076 231.093L518.003 226.613ZM627.019 213.34C640.29 204.674 665.925 213.762 666.184 213.847L666.378 213.932L672.205 215.58L633.622 265.332L577.107 249.27C584.94 243.352 613.489 222.174 627.019 213.34ZM679.455 210.846L717.844 161.347L753.966 171.746L753.643 172.422L725.223 223.865L679.455 210.846ZM719.332 159.487L738.171 135.224L772.545 133.914L755.067 169.759L719.332 159.487ZM790.283 118.147L834.822 130.49L801.029 183.032L763.806 172.295L790.283 118.147ZM873.793 178.678L817.731 162.404L837.735 131.335L907.65 150.737L873.793 178.678ZM909.786 149.004L839.029 129.391L861.752 93.9257L949.404 116.244L909.786 149.004ZM862.14 92.0235L863.953 88.5573L958.985 112.313V116.879L862.14 92.0235ZM983.779 -26.038L993.619 -43.8338L1054.28 -27.6019L1044.05 -10.4401L983.779 -26.038ZM980.801 -26.7988L980.672 -26.8411L925.582 -13.23L912.699 -24.6008L915.03 -38.3386L935.421 -33.0548L949.469 -55.6696L990.641 -44.637L980.801 -26.7988ZM950.634 -57.5717L961.834 -75.6212L965.588 -76.5089L965.912 -76.9316L1002.94 -66.9135L991.677 -46.5814L950.634 -57.5717ZM957.82 -74.6913L933.609 -35.7601L915.353 -40.4944L919.626 -65.7722L957.82 -74.6913ZM912.246 -41.2976L872.304 -51.6539L872.886 -53.0488L889.394 -58.713L916.26 -64.9691L912.246 -41.2976ZM855.149 -35.3797L843.561 -11.6237L807.632 -19.3169L833.333 -74.6913L869.132 -67.1671L855.149 -35.3797ZM804.59 -19.951L764.065 -28.6165L790.607 -83.6526L830.29 -75.2831L804.59 -19.951ZM774.099 -56.5572L740.501 -63.6587L753.837 -91.4304L787.435 -84.3712L774.099 -56.5572ZM754.808 -93.4171L766.201 -117.089L799.864 -109.987L788.471 -86.3156L754.808 -93.4171ZM751.765 -94.0511L723.929 -99.8845L735.258 -123.598L763.159 -117.723L751.765 -94.0511ZM720.886 -100.561L692.985 -106.436L704.637 -130.108L732.215 -124.274L720.886 -100.561ZM702.566 -132.729L663.077 -141.056L678.484 -173.52L718.62 -165.235L702.566 -132.729ZM660.034 -141.69L615.625 -151.074L630.968 -183.326L675.441 -174.154L660.034 -141.69ZM612.583 -151.708L568.951 -160.923L630.579 -189.582L612.583 -151.708ZM499.489 -198.29L531.792 -226.358L576.136 -205.011L559.046 -166.799L499.489 -198.29ZM577.107 -207.125L533.734 -228.006L553.22 -244.957L591.608 -239.673L577.107 -207.125ZM491.138 -194.613H490.879L489.908 -134.715L459.223 -122.161H454.368L456.504 -201.038L466.02 -208.266L491.138 -194.613ZM451.196 -122.161H413.325L414.684 -167.348L453.332 -198.797L451.196 -122.161ZM410.088 -122.161H377.785L378.432 -138.266L411.318 -165.108L410.088 -122.161ZM374.289 -116.243L373.059 -83.1453L335.577 -66.9135L336.16 -116.243H374.289ZM332.34 -64.9691L297.642 -49.963L299.584 -116.201H332.988L332.34 -64.9691ZM294.405 -48.0609L256.923 -31.829L255.628 -116.201H296.347L294.405 -48.0609ZM293.434 -14.794L291.103 63.5755L258.476 72.2832L257.117 -14.329L293.434 -14.794ZM291.492 65.7313L307.74 120.007L302.497 125.629L258.994 103.267L258.541 74.5658L291.492 65.7313ZM255.757 101.577L222.095 84.2457L255.369 75.3689L255.757 101.577ZM254.657 109.608V131.25L215.815 134.632V89.6986L254.657 109.608ZM211.931 134.928L178.009 137.971L177.168 87.1624L212.514 88.0078L211.931 88.0923V134.928ZM178.074 140.085L211.931 137.042V197.15L179.045 196.347L178.074 140.085ZM233.553 199.729L233.359 199.94L233.229 200.067L206.947 263.388C197.689 243.098 188.367 222.343 180.793 205.097L180.599 198.461L233.553 199.729ZM174.967 214.523C180.081 226.063 190.05 248.424 200.667 271.588L167.328 283.931L132.953 274.04L174.967 214.523ZM174.708 283.593L201.638 273.617C202.221 274.843 202.739 276.027 203.321 277.253C209.018 289.638 213.873 299.952 218.016 308.533L189.144 313.901L174.708 283.593ZM210.766 271.631L256.47 267.869L266.115 304.01L227.468 307.307C222.289 296.486 216.592 284.27 210.766 271.631ZM259.642 267.573L296.153 264.572L304.568 300.671L269.287 303.714L259.642 267.573ZM333.764 259.372L323.989 210.55L376.62 207.76L368.851 222.217L361.277 257.047L333.764 259.372ZM378.303 223.738L387.172 207.211L440.19 204.421L444.01 206.407L447.247 249.988L371.247 256.287L378.303 223.738ZM447.376 208.141L495.022 232.657L459.093 255.864L450.548 250.453L447.376 208.141ZM503.502 235.997L517.421 239.294L471.782 300.163L426.466 285.749L503.502 235.997ZM473.206 302.953L514.896 316.226L501.69 332.585L458.187 322.947L473.206 302.953ZM635.046 268.038L691.561 284.101L632.198 358.919L630.45 361.075L574.065 348.605L635.046 268.038ZM640.678 361.878L665.213 330.936L699.912 340.278L678.549 373.545L639.513 363.273L640.678 361.878ZM719.786 343.321L704.184 339.137L732.15 295.598L745.162 299.318L719.786 343.321ZM733.38 293.696L745.162 275.393L757.268 278.436L746.327 297.331L733.38 293.696ZM730.467 292.851L701.854 284.735L730.791 232.319L763.353 241.619L730.467 292.851ZM734.092 226.401L762.77 174.535L762.9 174.324L799.864 184.976L767.172 235.828L734.092 226.401ZM802.712 185.822L849.452 199.306L816.048 249.777L770.021 236.673L802.712 185.822ZM952.512 117.048L964.747 120.176L950.829 127.7L951.217 127.996L931.214 156.232L880.396 205.942L854.048 198.376L952.512 117.048ZM934.774 156.19L954.454 128.418L967.013 121.613L945.132 159.191L934.774 156.19ZM976.464 123.135L1007.15 130.955L980.672 169.59L953.936 161.812L976.464 123.135ZM1010.13 131.715L1041.33 139.662L1014.98 179.566L983.585 170.435L1010.13 131.715ZM1111.24 207.591L1086.06 200.278L1113.77 158.135L1139.66 164.729L1111.24 207.591ZM1083.15 199.433L1051.69 190.26L1079.65 149.427L1110.79 157.374L1083.15 199.433ZM990.382 222.132L1016.67 182.355L1047.48 191.317L1022.43 227.923L990.382 222.132ZM1050.39 192.162L1081.92 201.335L1040.88 263.642L1025.86 228.557L1025.53 228.515L1050.39 192.162ZM1048.77 189.415L1017.9 180.411L1044.31 140.423L1076.68 148.666L1048.77 189.415ZM1013.69 180.792L987.21 220.23H948.498L982.226 171.323L1013.69 180.792ZM986.563 227.923L1018.09 233.63L1018.28 234.052L976.917 296.317L946.815 288.201L986.563 227.923ZM1019.64 237.265L1034.86 272.518L1034.34 273.068L1012.2 305.574L979.83 296.993L1019.64 237.265ZM1010.9 307.772L973.421 362.385L942.413 353.593L978.665 299.064L1010.9 307.772ZM1013.82 308.575L1042.56 316.311L1005.72 371.516L976.27 363.189L1013.82 308.575ZM1043.85 314.408L1015.18 306.673L1036.28 275.985L1047.93 303.165L1046.83 304.771L1049.75 305.616L1043.85 314.408ZM1053.95 294.034L1042.3 266.854L1084.83 202.223L1110.01 209.535L1053.95 294.034ZM1092.67 251.383L1122.9 260.387L1089.3 310.562L1059.39 301.643L1092.67 251.383ZM1093.96 249.481L1118.82 212.072L1149.57 220.653L1124.19 258.485L1093.96 249.481ZM1120.05 210.127L1148.4 167.434L1177.86 178.34L1150.8 218.708L1120.05 210.127ZM1140.96 162.784L1115.06 156.19L1134.29 127.023L1159.02 135.647L1140.96 162.784ZM1112.09 155.429L1080.95 147.525L1102.38 116.329L1099.46 115.484L1078.04 146.764L1046.25 138.648L1082.37 108.847L1131.51 126.009L1112.09 155.429ZM1083.93 107.072L1105.22 73.0018L1138.82 82.724L1115.58 118.104L1083.93 107.072ZM1080.56 107.03L1043.14 137.887L1011.49 129.813L1030.32 102.337L1030.45 102.168L1031.1 87.1201L1073.96 63.9559L1102.31 72.1564L1080.56 107.03ZM984.362 109.566L1026.05 38.0018L1052.27 44.7651L1032.53 56.8968L1034.73 58.4185L1081.79 29.5477L1102.83 45.6105L984.362 109.566ZM1081.6 26.8001L1039.78 14.4149L1049.49 -2.23965L1105.29 12.2168L1081.6 26.8001ZM1064.31 -27.1793L1076.16 -47.1732L1135.78 -31.0681L1124.45 -11.0742L1064.31 -27.1793ZM1055.38 -29.5464L994.655 -45.7783L1005.92 -66.1104L1067.22 -49.5403L1055.38 -29.5464ZM1007.02 -68.097L1018.87 -89.5282L1081.01 -72.7468L1068.39 -51.527L1007.02 -68.097ZM1004.11 -68.9001L967.531 -78.7914L984.232 -98.9122L1015.95 -90.3313L1004.11 -68.9001ZM985.786 -100.73L1000.16 -118.018L1027.28 -110.79L1017.05 -92.2335L985.786 -100.73ZM1001.71 -119.921L1020.68 -142.704L1042.43 -138.055L1028.45 -112.819L1001.71 -119.921ZM1022.3 -144.564L1039.65 -163.417L1054.6 -160.162L1043.47 -139.999L1022.3 -144.564ZM1041.33 -165.235L1059.26 -184.764L1067.22 -182.988L1055.64 -162.107L1041.33 -165.235ZM1060.94 -186.623L1071.82 -198.459L1078.04 -202.559L1068.32 -184.975L1060.94 -186.623ZM1021.52 -217.565L1032.33 -213.888L1007.86 -197.487L1021.52 -217.565ZM1004.11 -191.992L1035.31 -212.916L1064.96 -202.898L1064.25 -202.433L1013.36 -147.058L981.125 -158.218L1004.11 -191.992ZM1011.75 -145.198L992.713 -122.33L962.222 -130.446L979.766 -156.273L1011.75 -145.198ZM915.224 -149.172L965.653 -140.591L952.576 -121.4L906.743 -129.981L915.224 -149.172ZM905.902 -127.994L951.282 -119.498L939.565 -102.252L897.551 -108.93L905.902 -127.994ZM938.205 -100.307L919.173 -72.3241L885.834 -64.5463L876.576 -61.376L896.58 -106.901L938.205 -100.307ZM870.038 -69.1538L834.239 -76.6779L851.588 -114.087L887.323 -108.381L870.038 -69.1538ZM800.835 -111.974L767.172 -119.075L782.968 -151.919L816.695 -144.945L800.835 -111.974ZM764.13 -119.709L736.229 -125.585L751.83 -158.345L779.925 -152.553L764.13 -119.709ZM752.801 -160.373L773.84 -204.462L802.324 -199.051L780.961 -154.582L752.801 -160.373ZM744.903 -212.113L750.471 -233.84L804.137 -226.189L793.52 -202.855L744.903 -212.113ZM805.108 -228.218L751.053 -235.911L753.901 -246.986L794.685 -265.965L814.3 -248.423L805.108 -228.218ZM809.121 -256.623L797.339 -267.149L825.823 -280.379L835.663 -267.529L809.121 -256.623ZM743.155 -270.53L760.958 -257.934L746.068 -251.001L730.791 -261.569L743.155 -270.53ZM750.212 -245.253L741.796 -212.704L698.099 -221.032L750.212 -245.253ZM677.125 -177.62L676.412 -176.14L631.939 -185.313L634.917 -191.569L690.201 -217.312L677.125 -177.62ZM570.181 -169.166L601.06 -238.32L637.959 -232.741L633.363 -198.544L570.181 -169.166ZM592.514 -241.702L553.284 -247.113L530.692 -258.483L607.986 -276.279L592.514 -241.702ZM527.649 -260.005L498.647 -274.631L518.133 -289.763L534.511 -261.569L527.649 -260.005ZM525.059 -258.652L469.581 -214.057L440.579 -229.401L496.576 -273.024L525.059 -258.652ZM358.04 -164.305L333.635 -122.161H299.778L300.749 -152.934L342.504 -187.723L358.04 -164.305ZM250.125 -122.161H217.24L250.125 -150.186V-122.161ZM215.815 -65.8567L226.173 -66.1104V-43.9606H215.815V-65.8567ZM215.815 -41.4244H231.352V-68.3084L215.815 -67.9702V-116.243H252.391L253.039 -29.9268L215.751 -12.6382V-41.4244H215.815ZM236.854 -14.1176L253.686 -14.329L255.175 73.0863L219.117 82.724L218.469 82.3858L216.592 81.7518H215.815V-5.02948L236.854 -14.1176ZM211.931 81.7095L176.521 80.8641L174.255 13.4427L211.931 -3.59229V81.7095ZM135.737 79.8919L102.333 79.131L128.94 51.317L135.737 79.8919ZM132.5 86.1056L134.507 141.818L99.1609 144.904L99.2904 85.3448L132.5 86.1056ZM134.572 143.932L136.449 195.248L100.52 194.36L99.0961 193.98L99.2257 147.017L134.572 143.932ZM171.018 198.207L171.212 204.886L124.214 271.462L93.3994 262.585L139.103 197.446L171.018 198.207ZM122.854 273.364L84.4658 327.724L54.1046 318.466L92.0399 264.487L122.854 273.364ZM131.658 275.9L161.307 284.439L124.537 339.94L93.2052 330.387L131.658 275.9ZM123.243 341.884L86.9905 396.54L53.522 386.606L91.8457 332.289L123.243 341.884ZM182.023 383.901L162.02 352.029L186.166 316.607L186.943 316.48L217.887 381.365C211.284 382.76 204.163 383.774 197.365 383.774C193.611 383.774 188.302 383.774 182.023 383.901ZM190.115 315.93L218.987 310.562C238.02 350.085 240.803 351.141 243.069 351.987C245.141 352.748 251.096 356.003 258.671 360.483L244.234 373.46C241.58 374.517 232.258 378.068 220.929 380.731L190.115 315.93ZM248.507 346.83C245.723 343.998 238.084 329.288 228.439 309.336L266.633 306.039L276.797 344.125L264.238 355.369C256.987 351.141 251.161 347.971 248.507 346.83ZM279.58 342.222L269.805 305.785L305.022 302.742L310.848 327.766L279.58 342.222ZM313.826 326.456L308.258 302.488L352.344 298.684L349.948 309.801L313.826 326.456ZM370.793 258.4L448.412 252.017L456.828 257.343L417.662 282.621L360.63 305.447L370.793 258.4ZM421.482 348.859L419.346 316.564L453.72 324.173L433.199 351.522L421.482 348.859ZM456.828 324.849L500.201 334.445L478.126 361.751L436.306 352.241L456.828 324.849ZM503.308 335.121L540.596 343.364L533.475 358.454L536.518 359.088L543.639 344.082L569.598 349.831L548.429 377.772L481.233 362.47L503.308 335.121ZM522.341 416.788L549.918 380.35L575.295 386.606L541.956 423.255L522.341 416.788ZM578.402 387.325L603.779 393.581L571.475 432.893L544.933 424.185L578.402 387.325ZM605.267 391.721L551.407 378.491L572.576 350.507L628.896 362.977L605.267 391.721ZM680.361 376.25L725.029 387.41L706.838 414.843L663.206 402.838L680.361 376.25ZM726.259 385.465L702.307 379.463L748.075 300.121L777.206 308.406L726.259 385.465ZM749.24 298.177L761.346 277.21L746.392 273.448L766.331 242.422L812.229 255.526L778.501 306.504L749.24 298.177ZM876.188 266.896L819.026 250.58L852.43 200.109L911.275 217.06L876.188 266.896ZM952.771 163.714L979.377 171.492L945.132 221.498L922.539 215.665L952.771 163.714ZM944.355 226.57H983.067L906.743 342.856L876.058 333.853L944.355 226.57ZM945.52 290.145L975.623 298.261L939.435 352.748L909.721 344.336L945.52 290.145ZM884.021 423.297L900.205 416.957L940.989 355.538L971.997 364.33L916.777 444.686L880.914 433.358L884.021 423.297ZM974.975 365.133L1004.43 373.46L949.987 455.085L919.755 445.531L974.975 365.133ZM1007.41 374.306L1040.36 383.647L985.074 466.202L952.9 456.057L1007.41 374.306ZM1008.7 372.361L1052.59 306.546L1085.41 316.353L1041.59 381.745L1008.7 372.361ZM1092.21 311.45L1125.81 261.274L1158.83 271.124L1125.23 321.341L1092.21 311.45ZM1127.1 259.33L1152.48 221.456L1185.76 230.755L1160.06 269.179L1127.1 259.33ZM1188.73 231.558L1216.96 239.463L1189.96 278.056L1163.03 270.024L1188.73 231.558ZM1190.03 229.656L1215.15 192.12L1242.92 202.392L1218.32 237.518L1190.03 229.656ZM1187.05 228.853L1153.78 219.554L1180.71 179.397L1212.36 191.105L1187.05 228.853ZM1181.94 177.452L1200.39 149.892L1232.5 160.882L1213.59 189.203L1181.94 177.452ZM1179.15 176.395L1149.7 165.49L1167.56 138.606L1197.6 148.877L1179.15 176.395ZM1168.79 136.661L1193.98 98.7022L1225.18 107.748L1198.9 146.975L1168.79 136.661ZM1173.65 113.581L1152.09 106.607L1150.67 108.467L1172.36 115.484L1160.25 133.702L1118.37 119.077L1141.74 83.5694L1185.17 96.166L1173.65 113.581ZM1106.45 71.0573L1119.6 49.9644L1201.03 72.2832L1186.47 94.2216L1106.45 71.0573ZM1103.48 70.2119L1076.68 62.4342L1124.45 36.6492L1103.48 70.2119ZM1105.29 44.2579L1084.12 28.1106L1108.66 13.0622L1145.43 22.5731L1105.29 44.2579ZM1116.88 8.4548L1126.39 -8.28436L1159.93 0.677032L1136.75 13.6118L1116.88 8.4548ZM1162.65 -0.844696L1127.49 -10.2711L1138.82 -30.265L1190.42 -16.3157L1162.65 -0.844696ZM1193.07 -17.8375L1139.86 -32.2094L1151.96 -53.556L1221.1 -34.8724L1222.53 -34.2384L1193.07 -17.8375ZM1136.94 -33.0126L1077.32 -49.1176L1089.95 -70.3374L1149.05 -54.3592L1136.94 -33.0126ZM1091.11 -72.2818L1102.18 -90.9231L1160.9 -75.3253L1150.15 -56.3459L1091.11 -72.2818ZM1082.24 -74.6913L1020.03 -91.5149L1030.32 -110.072L1093.31 -93.3325L1082.24 -74.6913ZM1031.36 -112.016L1045.41 -137.378L1111.12 -123.302L1094.41 -95.2347L1031.36 -112.016ZM1046.51 -139.365L1057.64 -159.528L1124.06 -145.156L1112.28 -125.289L1046.51 -139.365ZM1058.74 -161.473L1070.33 -182.354L1135.33 -167.94L1125.1 -147.101L1058.74 -161.473ZM1071.37 -184.341L1082.83 -205.053L1145.94 -189.709L1136.23 -169.969L1071.37 -184.341ZM1084.57 -206.829L1108.91 -222.849L1156.88 -211.859L1146.98 -191.654L1084.57 -206.829ZM1111.37 -224.54L1141.22 -244.196L1169.25 -237.179L1157.85 -213.888L1111.37 -224.54ZM1143.74 -245.802L1174.3 -265.881L1182.32 -263.64L1170.28 -239.123L1143.74 -245.802ZM1176.69 -267.487L1187.7 -274.715L1183.23 -265.627L1176.69 -267.487ZM1111.57 -233.586L1087.36 -247.789L1122.31 -271.207L1163.29 -267.614L1111.57 -233.586ZM1085.03 -249.184L1055.05 -266.811L1061.66 -276.575L1118.43 -271.587L1085.03 -249.184ZM978.212 -159.148L926.941 -176.859L953.548 -240.645L985.527 -236.249L986.174 -238.278L954.324 -242.632L971.738 -284.437L1058.23 -276.829L978.212 -159.148ZM918.007 -179.86L884.668 -186.539L929.725 -284.099H961.122L918.007 -179.86ZM917.166 -177.197L910.628 -161.557L888.164 -110.452L852.495 -116.116L883.762 -183.538L917.166 -177.197ZM865.895 -152.258L826.924 -159.274L842.396 -191.4L880.655 -184.13L865.895 -152.258ZM817.667 -146.974L783.939 -153.948L805.367 -198.459L839.353 -191.992L817.667 -146.974ZM701.789 -260.301L721.663 -257.131L717.067 -242.674L700.494 -238.278L696.027 -228.471L701.789 -260.301ZM636.729 -200.15L641.067 -232.107L683.792 -222.046L636.729 -200.15ZM638.542 -234.812L601.966 -240.349L618.409 -277.125L652.59 -267.529L638.542 -234.812ZM653.431 -269.558L619.25 -279.154L636.406 -317.577L671.234 -311.152L653.431 -269.558ZM615.69 -293.525L604.555 -311.533L626.048 -316.774L615.69 -293.525ZM496.122 -275.899L468.156 -289.975L502.078 -317.324L516.773 -292.004L496.122 -275.899ZM494.051 -274.292L438.054 -230.712L411.836 -244.576L466.15 -288.326L494.051 -274.292ZM409.376 -245.887L382.64 -260.047L434.882 -304.135L463.625 -289.637L409.376 -245.887ZM403.356 -240.983L343.281 -190.935L328.003 -213.972L376.749 -255.102L403.356 -240.983ZM326.514 -216.171L312.725 -236.968L350.207 -269.135L374.224 -256.412L326.514 -216.171ZM265.986 -207.209L226.302 -227.879L301.979 -294.582L342.698 -273.067L265.986 -207.209ZM181.182 -248.677L221.901 -227.457L182.8 -192.964L140.592 -215.875L180.275 -251.593L181.182 -248.677ZM224.425 -226.189L264.044 -205.561L223.648 -170.857L185.26 -191.696L224.425 -226.189ZM271.553 -201.629L294.858 -189.498L253.492 -154.625L230.964 -166.841L271.553 -201.629ZM251.614 -153.737L213.226 -122.161H177.168L229.086 -166.334L251.614 -153.737ZM211.931 -116.243V-11.201L174.514 4.94632L172.313 -116.243H211.931ZM164.544 -46.1587L119.618 -45.1865L112.755 -116.243H162.732L164.544 -46.1587ZM164.609 -43.1152L166.033 10.1456L140.657 21.4741V21.3473L126.026 21.9814L119.812 -41.6357L164.609 -43.1152ZM122.854 22.1081L86.5374 23.7144L80.9054 -40.3676L116.64 -41.5512L122.854 22.1081ZM123.048 24.2216L123.502 29.125L88.35 44.8074L86.6669 25.8279L123.048 24.2216ZM95.9889 145.2L62.4556 148.116L60.9019 122.458L96.1183 85.5984L95.9889 145.2ZM99.4846 196.389L99.7435 196.474L135.607 197.362L90.3568 261.739L57.2119 252.186L98.1899 196.051L99.4846 196.389ZM36.8201 313.183L73.0723 259.034L89.062 263.642L51.1914 317.579L36.8201 313.183ZM14.3567 374.982L52.7452 320.326L83.1063 329.584L44.7178 383.943L14.3567 374.982ZM52.1625 388.509L85.6958 398.442L82.3942 403.388C61.5492 414.378 31.3175 431.582 15.1334 440.882L52.1625 388.509ZM100.197 402.416C112.885 396.963 131.464 393.327 155.74 391.468L158.653 421.437C148.36 423.804 138.132 426.721 128.422 429.807L100.197 402.416ZM199.761 415.181C187.396 415.9 174.514 417.929 161.761 420.761L158.912 391.256C170.5 390.453 183.318 390.03 197.365 390.03C205.199 390.03 213.291 388.889 220.735 387.325L231.999 410.996C221.577 413.152 210.766 414.547 199.761 415.181ZM235.042 410.405L223.778 386.691C238.214 383.352 249.478 378.702 250.19 378.406L250.967 378.068L265.856 364.668C276.214 370.924 288.19 378.448 297.512 384.958C290.003 390.157 268.705 403.134 235.042 410.405ZM388.725 412.434C355.451 416.661 334.8 416.745 327.291 412.645C323.666 410.658 323.471 407.784 323.536 403.346C323.601 401.021 323.666 398.611 322.63 396.455C319.458 389.777 292.333 372.065 271.488 359.596L285.148 347.337L352.149 316.48C360.759 330.894 391.962 383.352 401.025 405.205C401.802 407.023 402.255 408.968 402.449 411.039C398.112 411.377 393.581 411.842 388.725 412.434ZM484.276 440.036C477.219 427.778 465.955 408.207 412.03 410.405C411.771 407.995 411.253 405.67 410.347 403.515C404.327 389.016 389.243 362.09 376.943 340.87L546.94 379.632L519.492 415.858L517.809 415.308L516.385 417.168L518.068 417.717L493.339 450.308C491.72 449.42 490.49 448.575 489.649 447.856C487.771 446.123 486.153 443.291 484.276 440.036ZM541.697 469.034C524.024 463.158 505.768 456.564 495.928 451.661L520.916 418.647L569.857 434.71L541.697 469.034ZM580.02 435.682L618.279 389.185L633.363 396.794L634.334 395.948L633.687 396.92L659.063 403.937L628.443 451.576L580.02 435.682ZM631.291 452.506L661.976 404.74L705.544 416.745L672.852 466.159L631.291 452.506ZM780.184 309.251L806.985 316.86L792.29 338.503L795.98 344.716L785.104 360.568L775.588 363.696L754.873 394.596L729.237 386.353L780.184 309.251ZM757.721 395.483L778.048 365.175L794.038 359.934L807.438 364.584L780.508 402.796L757.721 395.483ZM883.503 271.546L918.784 221.413L941.312 227.247L909.851 276.576L883.503 271.546ZM874.893 336.77L905.513 345.435L859.098 415.815L857.22 416.323L856.702 417.379V430.356L811.905 433.062L874.893 336.77ZM860.587 430.145V420.676L868.355 427.482L879.878 424.396L877.742 432.385L868.42 429.765L860.587 430.145ZM1002.23 471.57L987.922 467.047L1043.27 384.451L1084.06 395.99L1002.23 471.57ZM1208.87 429.046L1088.98 395.103L1107.68 377.814L1223.95 412.349L1208.87 429.046ZM1225.57 410.532L1109.56 376.081L1152.55 336.347L1262.86 369.233L1225.57 410.532ZM1153.71 329.795L1128.14 322.186L1161.74 271.969L1188.6 279.958L1153.71 329.795ZM1218.84 286.679L1192.81 278.944L1219.87 240.308L1245.96 247.579C1231.27 269.137 1221.43 283.086 1218.84 286.679ZM1261.69 224.33C1256.51 232.066 1251.72 239.167 1247.32 245.677L1221.3 238.406L1245.77 203.491L1267.71 211.607C1266.55 215.622 1264.67 219.892 1261.69 224.33ZM1268.1 209.324L1247 201.504L1260.53 182.144C1266.29 189.584 1270.11 198.714 1268.1 209.324ZM1258.65 179.862L1244.21 200.49L1216.38 190.176L1235.21 161.981C1239.29 164.095 1250.36 170.308 1258.65 179.862ZM1233.79 158.938L1201.68 147.947L1228.03 108.594L1261.04 118.147L1233.79 158.938ZM1262.4 116.202L1229.39 106.649L1244.47 84.1612L1277.75 93.2916L1262.4 116.202ZM1241.49 83.3581L1226.47 105.804L1195.27 96.7578L1209.9 74.6926L1241.49 83.3581ZM1202.33 70.381L1120.83 48.0622L1129.69 33.8593L1148.86 23.5031L1221.04 42.1866L1202.33 70.381ZM1140.12 14.4572L1225.31 -33.0548L1260.59 -17.457L1224.86 36.3956L1140.12 14.4572ZM1278.2 -44.0874L1261.82 -19.4015L1227.77 -34.4497L1255.74 -50.0475L1278.2 -44.0874ZM1252.43 -50.9352L1225.05 -35.6756L1222.78 -36.6901L1222.66 -36.7324L1153.13 -55.5427L1163.88 -74.5222L1252.43 -50.9352ZM1162 -77.2697L1103.35 -92.8676L1120.24 -121.358L1179.74 -108.634L1162 -77.2697ZM1180.84 -110.579L1121.41 -123.302L1133.19 -143.127L1192.1 -130.361L1180.84 -110.579ZM1193.2 -132.39L1134.23 -145.156L1144.45 -165.953L1204.66 -152.596L1193.2 -132.39ZM1205.76 -154.54L1145.36 -167.898L1154.94 -187.469L1215.99 -172.674L1205.76 -154.54ZM1217.15 -174.661L1155.98 -189.498L1165.95 -209.788L1228.93 -195.373L1217.15 -174.661ZM1230.04 -197.36L1166.92 -211.817L1178.25 -234.939L1242.21 -218.918L1230.04 -197.36ZM1243.31 -220.905L1179.22 -236.925L1191.13 -261.189L1255.93 -243.139L1243.31 -220.905ZM1257.03 -245.083L1192.1 -263.175L1201.42 -282.197L1269.52 -267.149L1257.03 -245.083ZM1190.48 -285.494L1166.14 -269.474L1125.1 -273.067L1160.06 -296.527L1190.48 -285.494ZM1121.21 -273.447L1063.02 -278.562L1092.08 -321.255L1157.27 -297.626L1121.21 -273.447ZM1089.17 -322.1L1081.14 -310.307L1036.47 -324.002L1035.11 -322.1L1079.85 -308.405L1059.71 -278.815L973.033 -286.424L1012.39 -341.629L1089.17 -322.1ZM963.841 -357.1L1003.59 -345.476L964.358 -290.82H932.703L963.841 -357.1ZM881.626 -186.75L843.431 -194.359L886.481 -284.057H926.423L881.626 -186.75ZM913.476 -329.963L898.133 -290.82H859.486L874.893 -327.595L913.476 -329.963ZM871.592 -327.384L856.12 -290.82H827.701L820.644 -286.635L817.99 -286.678L836.893 -333.513L871.592 -327.384ZM827.183 -316.986L814.948 -286.804L783.874 -292.511L794.879 -322.65L827.183 -316.986ZM791.772 -323.199L780.767 -293.103L745.097 -299.697L758.498 -329.117L791.772 -323.199ZM721.598 -335.585L755.39 -329.624L741.99 -300.246L710.205 -306.122L721.598 -335.585ZM706.579 -304.6L692.402 -226.02L687.029 -223.526L641.649 -234.22L674.406 -310.56L706.579 -304.6ZM684.828 -342.728L672.14 -313.139L637.312 -319.564L650.13 -348.308L684.828 -342.728ZM640.354 -348.815L627.148 -319.268L603.325 -313.477L588.63 -337.318L640.354 -348.815ZM600.348 -312.759L570.634 -305.53L555.615 -330.005L585.588 -336.641L600.348 -312.759ZM552.637 -329.371L567.721 -304.812L519.622 -293.103L504.732 -318.719L552.637 -329.371ZM488.16 -341.333L500.783 -319.606L465.632 -291.285L436.954 -305.742L488.16 -341.333ZM432.293 -305.403L380.115 -261.358L356.034 -274.081L407.24 -318.042L432.293 -305.403ZM357.264 -343.236L399.601 -321.889L348.524 -278.055L307.74 -299.612L357.264 -343.236ZM299.519 -295.893L281.587 -280.083L206.299 -275.011L255.434 -319.226L299.519 -295.893ZM219.894 -337.994L252.909 -320.536L237.89 -307.01L203.71 -322.143L219.894 -337.994ZM155.158 -341.164L199.308 -321.593L170.371 -293.23L155.158 -341.164ZM168.817 -287.904L173.607 -272.813L151.986 -271.376L168.817 -287.904ZM174.19 -270.742L179.369 -254.383L138.067 -217.227L122.336 -225.766L106.476 -266.177L174.19 -270.742ZM119.553 -224.625L136.255 -215.579L117.222 -198.459L67.8286 -263.64L103.369 -266.007L119.553 -224.625ZM64.3977 -263.387L115.086 -196.515L90.7452 -174.576L21.7366 -260.47L64.3977 -263.387ZM92.3636 -172.547L138.65 -214.226L180.858 -191.315L139.556 -154.921L126.933 -149.172L92.3636 -172.547ZM141.628 -153.314L141.822 -153.399L183.318 -189.963L221.641 -169.166L166.94 -122.246L129.198 -147.692L141.628 -153.314ZM101.815 -116.243H109.519L116.381 -44.5947L80.6464 -42.9462L75.5969 -101.66L101.815 -116.243ZM39.6038 -81.4545L72.5543 -98.8277L77.4744 -42.3544L44.2 -41.2553L39.6038 -81.4545ZM44.459 -39.1418L77.6686 -40.2408L83.3005 23.8835L51.8387 25.2784L44.459 -39.1418ZM52.0978 27.3497L83.4949 25.9547L85.2427 46.16L55.7877 59.3062L52.0978 27.3497ZM53.522 67.8871L54.6873 78.032L31.9 77.5247L53.522 67.8871ZM58.5714 84.4148L92.7521 85.1757L60.7076 118.738L58.5714 84.4148ZM57.8593 125.629L59.2834 148.412L34.0364 150.61L57.8593 125.629ZM31.8354 152.893L59.4128 150.484L61.4198 183.624L14.745 170.731L31.8354 152.893ZM26.4623 243.31L64.0092 186.625L95.3414 195.248L54.3636 251.341L26.4623 243.31Z" fill="white"/>
</g>
</svg>
