<svg width="134" height="23" viewBox="0 0 134 23" fill="none" xmlns="http://www.w3.org/2000/svg">
<path fill-rule="evenodd" clip-rule="evenodd" d="M0 13.4066C0 17.7547 2.42081 22.1394 7.84171 22.1394C13.2576 22.1394 15.6831 17.7547 15.6831 13.4066C15.6831 10.4368 14.6884 7.01698 13.0283 4.25409C11.4136 1.5866 9.47356 0 7.84171 0C6.20487 0 4.26429 1.5866 2.6637 4.25409C0.995324 7.01698 0 10.4368 0 13.4066ZM55.6757 6.52327H50.1865V1.18606H67.0459V6.52327H61.5569L61.5567 20.9533H55.6755L55.6757 6.52327ZM79.5914 6.52327H88.2179V1.18606H79.5922C71.6664 1.18606 67.4351 5.15926 67.4351 11.0697C67.4351 16.9801 71.6664 20.9533 79.5922 20.9533H88.2179V15.6161H79.5914C75.9241 15.6161 73.5121 14.2942 73.5121 11.0697C73.5121 7.84516 75.9241 6.52327 79.5914 6.52327ZM35.0894 12.9849L38.2247 1.18606H48.6173V20.9533H42.7363V4.8647L38.461 20.9533H31.7178L27.4452 4.87474V20.9533H21.564V1.18606H31.954L35.0894 12.9849ZM98.943 6.91589H96.8691V8.84949H98.943C99.4683 8.84949 99.7812 8.57753 99.7812 8.076V7.71784C99.7812 7.20208 99.5115 6.91589 98.943 6.91589ZM99.4684 11.0698H94.0986V1.18593H101.997V3.54966H96.8691V4.83864H99.4684C101.642 4.83864 102.693 5.92733 102.693 7.84671C102.693 9.8665 101.642 11.0698 99.4684 11.0698ZM107.991 3.37768L109.085 7.0301H106.897L107.991 3.37768ZM113.29 11.0697L110.264 1.18606H106.144L103.119 11.0697H105.704L106.258 9.17876H109.724L110.292 11.0697H113.29ZM120.292 11.0697V7.24516H117.125V11.0697H114.283V1.18606H117.125V4.81003H120.292V1.18606H123.134V11.0697H120.292ZM128.176 4.81003H127.678V1.18606H124.837V11.0697H127.678V7.24516H128.09L130.718 11.0697H134L130.448 5.89872L133.716 1.18606H130.718L128.176 4.81003Z" fill="white"/>
</svg>
