<svg width="64" height="64" viewBox="0 0 64 64" fill="none" xmlns="http://www.w3.org/2000/svg">
<circle cx="32" cy="32" r="32" fill="white"/>
<path d="M32.0366 37.12C32.8206 37.12 33.4046 36.992 33.7886 36.736C34.1886 36.464 34.3886 35.992 34.3886 35.32V34.744C34.3886 34.136 34.1966 33.696 33.8126 33.424C33.4286 33.136 32.8526 32.992 32.0846 32.992H30.5726V29.944H32.0846C32.6606 29.944 33.0926 29.808 33.3806 29.536C33.6686 29.248 33.8126 28.848 33.8126 28.336V27.808C33.8126 26.816 33.2206 26.32 32.0366 26.32C31.4606 26.32 30.9966 26.44 30.6446 26.68C30.2926 26.904 30.0926 27.384 30.0446 28.12H25.8206C25.8366 27.176 25.9966 26.384 26.3006 25.744C26.6206 25.104 27.0526 24.592 27.5966 24.208C28.1566 23.824 28.8046 23.552 29.5406 23.392C30.2926 23.216 31.1086 23.128 31.9886 23.128C33.8126 23.128 35.2526 23.488 36.3086 24.208C37.3806 24.928 37.9166 26.016 37.9166 27.472C37.9166 28.384 37.6846 29.168 37.2206 29.824C36.7726 30.464 36.0526 30.936 35.0606 31.24C36.1806 31.496 37.0286 31.952 37.6046 32.608C38.1966 33.248 38.4926 34.104 38.4926 35.176C38.4926 36.824 37.9646 38.096 36.9086 38.992C35.8526 39.888 34.2286 40.336 32.0366 40.336C30.9966 40.336 30.0606 40.24 29.2286 40.048C28.4126 39.872 27.7166 39.576 27.1406 39.16C26.5806 38.744 26.1486 38.208 25.8446 37.552C25.5406 36.88 25.3806 36.064 25.3646 35.104H29.6126C29.6446 35.824 29.8526 36.344 30.2366 36.664C30.6366 36.968 31.2366 37.12 32.0366 37.12Z" fill="black"/>
</svg>
