<svg width="64" height="64" viewBox="0 0 64 64" fill="none" xmlns="http://www.w3.org/2000/svg">
<circle cx="32" cy="32" r="32" fill="white"/>
<path d="M32.5806 26.32C31.8606 26.32 31.3486 26.472 31.0446 26.776C30.7406 27.064 30.5486 27.608 30.4686 28.408H26.3406C26.3886 27.432 26.5646 26.608 26.8686 25.936C27.1726 25.248 27.5886 24.704 28.1166 24.304C28.6606 23.888 29.3086 23.592 30.0606 23.416C30.8126 23.224 31.6526 23.128 32.5806 23.128C33.5726 23.128 34.4446 23.216 35.1966 23.392C35.9646 23.568 36.6046 23.856 37.1166 24.256C37.6446 24.656 38.0446 25.176 38.3166 25.816C38.5886 26.456 38.7246 27.232 38.7246 28.144C38.7246 29.104 38.5326 29.904 38.1486 30.544C37.7806 31.168 37.3166 31.704 36.7566 32.152C36.1966 32.584 35.5806 32.96 34.9086 33.28C34.2366 33.584 33.6046 33.888 33.0126 34.192C32.4366 34.496 31.9326 34.832 31.5006 35.2C31.0846 35.552 30.8366 36 30.7566 36.544H38.7246V40H26.2686V38.008C26.2686 36.824 26.4686 35.848 26.8686 35.08C27.2846 34.296 27.7966 33.648 28.4046 33.136C29.0286 32.624 29.7006 32.208 30.4206 31.888C31.1406 31.552 31.8046 31.24 32.4126 30.952C33.0366 30.648 33.5486 30.32 33.9486 29.968C34.3646 29.6 34.5726 29.128 34.5726 28.552V28.024C34.5726 27.416 34.4126 26.984 34.0926 26.728C33.7726 26.456 33.2686 26.32 32.5806 26.32Z" fill="black"/>
</svg>
